<svg xmlns="http://www.w3.org/2000/svg" xmlns:xlink="http://www.w3.org/1999/xlink" width="1920" zoomAndPan="magnify" viewBox="0 0 1440 337.499995" height="450" preserveAspectRatio="xMidYMid meet" version="1.0"><defs><g/><clipPath id="e5485a8b81"><path d="M 1.066406 0 L 1438.933594 0 L 1438.933594 337 L 1.066406 337 Z M 1.066406 0 " clip-rule="nonzero"/></clipPath></defs><g clip-path="url(#e5485a8b81)"><path fill="#ffffff" d="M 1.066406 0 L 1438.933594 0 L 1438.933594 344.488281 L 1.066406 344.488281 Z M 1.066406 0 " fill-opacity="1" fill-rule="nonzero"/><path fill="#ffffff" d="M 1.066406 0 L 1438.933594 0 L 1438.933594 337 L 1.066406 337 Z M 1.066406 0 " fill-opacity="1" fill-rule="nonzero"/><path fill="#ffc72c" d="M 1.066406 0 L 1438.933594 0 L 1438.933594 337 L 1.066406 337 Z M 1.066406 0 " fill-opacity="1" fill-rule="nonzero"/></g><g fill="#404040" fill-opacity="1"><g transform="translate(94.5828, 214.18268)"><g><path d="M 4.015625 -46.71875 C 4.015625 -52.34375 5.03125 -57.898438 7.0625 -63.390625 C 9.101562 -68.890625 12.066406 -73.800781 15.953125 -78.125 C 19.847656 -82.457031 24.609375 -85.960938 30.234375 -88.640625 C 35.859375 -91.316406 42.265625 -92.65625 49.453125 -92.65625 C 57.929688 -92.65625 65.257812 -90.796875 71.4375 -87.078125 C 77.625 -83.359375 82.234375 -78.515625 85.265625 -72.546875 L 71.515625 -63.078125 C 70.296875 -65.671875 68.820312 -67.851562 67.09375 -69.625 C 65.363281 -71.394531 63.503906 -72.800781 61.515625 -73.84375 C 59.523438 -74.882812 57.445312 -75.640625 55.28125 -76.109375 C 53.125 -76.585938 51.003906 -76.828125 48.921875 -76.828125 C 44.421875 -76.828125 40.503906 -75.914062 37.171875 -74.09375 C 33.847656 -72.28125 31.082031 -69.925781 28.875 -67.03125 C 26.664062 -64.132812 25 -60.847656 23.875 -57.171875 C 22.75 -53.492188 22.1875 -49.835938 22.1875 -46.203125 C 22.1875 -42.140625 22.835938 -38.222656 24.140625 -34.453125 C 25.441406 -30.691406 27.28125 -27.382812 29.65625 -24.53125 C 32.03125 -21.675781 34.882812 -19.378906 38.21875 -17.640625 C 41.550781 -15.910156 45.207031 -15.046875 49.1875 -15.046875 C 51.257812 -15.046875 53.421875 -15.304688 55.671875 -15.828125 C 57.921875 -16.347656 60.0625 -17.171875 62.09375 -18.296875 C 64.132812 -19.421875 66.019531 -20.867188 67.75 -22.640625 C 69.476562 -24.421875 70.863281 -26.566406 71.90625 -29.078125 L 86.5625 -20.640625 C 85.09375 -17.171875 82.992188 -14.117188 80.265625 -11.484375 C 77.546875 -8.847656 74.472656 -6.617188 71.046875 -4.796875 C 67.628906 -2.984375 63.972656 -1.597656 60.078125 -0.640625 C 56.191406 0.304688 52.390625 0.78125 48.671875 0.78125 C 42.085938 0.78125 36.070312 -0.601562 30.625 -3.375 C 25.175781 -6.144531 20.484375 -9.753906 16.546875 -14.203125 C 12.609375 -18.660156 9.535156 -23.722656 7.328125 -29.390625 C 5.117188 -35.054688 4.015625 -40.832031 4.015625 -46.71875 Z M 4.015625 -46.71875 "/></g></g></g><g fill="#404040" fill-opacity="1"><g transform="translate(183.612174, 214.18268)"><g><path d="M 71.125 0 L 53.734375 0 L 53.734375 -38.15625 C 53.734375 -43.519531 52.738281 -47.476562 50.75 -50.03125 C 48.757812 -52.582031 45.945312 -53.859375 42.3125 -53.859375 C 40.75 -53.859375 39.101562 -53.507812 37.375 -52.8125 C 35.644531 -52.125 34 -51.148438 32.4375 -49.890625 C 30.882812 -48.640625 29.457031 -47.148438 28.15625 -45.421875 C 26.863281 -43.691406 25.914062 -41.789062 25.3125 -39.71875 L 25.3125 0 L 7.921875 0 L 7.921875 -94.734375 L 25.3125 -94.734375 L 25.3125 -55.421875 C 27.820312 -59.828125 31.21875 -63.21875 35.5 -65.59375 C 39.78125 -67.976562 44.515625 -69.171875 49.703125 -69.171875 C 54.117188 -69.171875 57.707031 -68.410156 60.46875 -66.890625 C 63.238281 -65.378906 65.398438 -63.367188 66.953125 -60.859375 C 68.515625 -58.359375 69.597656 -55.503906 70.203125 -52.296875 C 70.816406 -49.097656 71.125 -45.8125 71.125 -42.4375 Z M 71.125 0 "/></g></g></g><g fill="#404040" fill-opacity="1"><g transform="translate(261.999545, 214.18268)"><g><path d="M 26.46875 1.296875 C 23.1875 1.296875 20.117188 0.753906 17.265625 -0.328125 C 14.410156 -1.410156 11.941406 -2.921875 9.859375 -4.859375 C 7.785156 -6.804688 6.164062 -9.078125 5 -11.671875 C 3.832031 -14.273438 3.25 -17.132812 3.25 -20.25 C 3.25 -23.445312 3.960938 -26.40625 5.390625 -29.125 C 6.816406 -31.851562 8.804688 -34.171875 11.359375 -36.078125 C 13.910156 -37.984375 16.957031 -39.472656 20.5 -40.546875 C 24.050781 -41.628906 27.945312 -42.171875 32.1875 -42.171875 C 35.21875 -42.171875 38.179688 -41.910156 41.078125 -41.390625 C 43.972656 -40.878906 46.546875 -40.144531 48.796875 -39.1875 L 48.796875 -43.09375 C 48.796875 -47.59375 47.519531 -51.050781 44.96875 -53.46875 C 42.414062 -55.894531 38.628906 -57.109375 33.609375 -57.109375 C 29.972656 -57.109375 26.425781 -56.457031 22.96875 -55.15625 C 19.507812 -53.851562 15.960938 -51.953125 12.328125 -49.453125 L 7.015625 -60.484375 C 15.742188 -66.273438 25.171875 -69.171875 35.296875 -69.171875 C 45.078125 -69.171875 52.671875 -66.769531 58.078125 -61.96875 C 63.484375 -57.164062 66.1875 -50.222656 66.1875 -41.140625 L 66.1875 -19.984375 C 66.1875 -18.171875 66.507812 -16.875 67.15625 -16.09375 C 67.8125 -15.3125 68.875 -14.878906 70.34375 -14.796875 L 70.34375 0 C 67.394531 0.601562 64.84375 0.90625 62.6875 0.90625 C 59.394531 0.90625 56.863281 0.171875 55.09375 -1.296875 C 53.320312 -2.765625 52.21875 -4.710938 51.78125 -7.140625 L 51.390625 -10.90625 C 48.359375 -6.925781 44.679688 -3.894531 40.359375 -1.8125 C 36.035156 0.257812 31.40625 1.296875 26.46875 1.296875 Z M 31.40625 -11.421875 C 34.34375 -11.421875 37.128906 -11.9375 39.765625 -12.96875 C 42.410156 -14.007812 44.46875 -15.394531 45.9375 -17.125 C 47.84375 -18.601562 48.796875 -20.25 48.796875 -22.0625 L 48.796875 -29.84375 C 46.722656 -30.625 44.472656 -31.25 42.046875 -31.71875 C 39.628906 -32.195312 37.296875 -32.4375 35.046875 -32.4375 C 30.546875 -32.4375 26.867188 -31.421875 24.015625 -29.390625 C 21.160156 -27.359375 19.734375 -24.785156 19.734375 -21.671875 C 19.734375 -18.734375 20.851562 -16.289062 23.09375 -14.34375 C 25.34375 -12.394531 28.113281 -11.421875 31.40625 -11.421875 Z M 31.40625 -11.421875 "/></g></g></g><g fill="#404040" fill-opacity="1"><g transform="translate(336.493512, 214.18268)"><g><path d="M 71.125 0 L 53.734375 0 L 53.734375 -38.15625 C 53.734375 -43.601562 52.78125 -47.582031 50.875 -50.09375 C 48.96875 -52.601562 46.328125 -53.859375 42.953125 -53.859375 C 41.222656 -53.859375 39.445312 -53.507812 37.625 -52.8125 C 35.8125 -52.125 34.101562 -51.148438 32.5 -49.890625 C 30.90625 -48.640625 29.457031 -47.148438 28.15625 -45.421875 C 26.863281 -43.691406 25.914062 -41.789062 25.3125 -39.71875 L 25.3125 0 L 7.921875 0 L 7.921875 -68 L 23.625 -68 L 23.625 -55.421875 C 26.132812 -59.742188 29.765625 -63.113281 34.515625 -65.53125 C 39.273438 -67.957031 44.640625 -69.171875 50.609375 -69.171875 C 54.847656 -69.171875 58.304688 -68.390625 60.984375 -66.828125 C 63.671875 -65.273438 65.75 -63.242188 67.21875 -60.734375 C 68.695312 -58.222656 69.71875 -55.367188 70.28125 -52.171875 C 70.84375 -48.972656 71.125 -45.726562 71.125 -42.4375 Z M 71.125 0 "/></g></g></g><g fill="#404040" fill-opacity="1"><g transform="translate(414.880895, 214.18268)"><g><path d="M 34.515625 0.390625 C 29.929688 0.390625 25.78125 -0.515625 22.0625 -2.328125 C 18.34375 -4.148438 15.117188 -6.640625 12.390625 -9.796875 C 9.671875 -12.953125 7.570312 -16.609375 6.09375 -20.765625 C 4.625 -24.921875 3.890625 -29.332031 3.890625 -34 C 3.890625 -38.9375 4.664062 -43.523438 6.21875 -47.765625 C 7.78125 -52.003906 9.945312 -55.722656 12.71875 -58.921875 C 15.488281 -62.117188 18.816406 -64.625 22.703125 -66.4375 C 26.597656 -68.257812 30.882812 -69.171875 35.5625 -69.171875 C 40.84375 -69.171875 45.472656 -67.976562 49.453125 -65.59375 C 53.429688 -63.21875 56.71875 -60.039062 59.3125 -56.0625 L 59.3125 -68 L 74.5 -68 L 74.5 -3.25 C 74.5 1.769531 73.546875 6.269531 71.640625 10.25 C 69.734375 14.226562 67.113281 17.601562 63.78125 20.375 C 60.457031 23.144531 56.476562 25.265625 51.84375 26.734375 C 47.21875 28.203125 42.179688 28.9375 36.734375 28.9375 C 29.285156 28.9375 23.03125 27.703125 17.96875 25.234375 C 12.90625 22.773438 8.5625 19.296875 4.9375 14.796875 L 14.40625 5.578125 C 17 8.773438 20.265625 11.28125 24.203125 13.09375 C 28.140625 14.914062 32.316406 15.828125 36.734375 15.828125 C 39.410156 15.828125 41.984375 15.457031 44.453125 14.71875 C 46.921875 13.988281 49.101562 12.84375 51 11.28125 C 52.90625 9.726562 54.398438 7.738281 55.484375 5.3125 C 56.566406 2.894531 57.109375 0.0390625 57.109375 -3.25 L 57.109375 -11.8125 C 54.859375 -7.914062 51.695312 -4.90625 47.625 -2.78125 C 43.5625 -0.664062 39.191406 0.390625 34.515625 0.390625 Z M 40.359375 -13.5 C 42.265625 -13.5 44.082031 -13.800781 45.8125 -14.40625 C 47.539062 -15.007812 49.140625 -15.828125 50.609375 -16.859375 C 52.085938 -17.898438 53.382812 -19.113281 54.5 -20.5 C 55.625 -21.882812 56.492188 -23.359375 57.109375 -24.921875 L 57.109375 -41.140625 C 55.546875 -45.117188 53.097656 -48.316406 49.765625 -50.734375 C 46.441406 -53.160156 42.960938 -54.375 39.328125 -54.375 C 36.640625 -54.375 34.210938 -53.789062 32.046875 -52.625 C 29.890625 -51.457031 28.03125 -49.898438 26.46875 -47.953125 C 24.914062 -46.003906 23.726562 -43.773438 22.90625 -41.265625 C 22.082031 -38.753906 21.671875 -36.160156 21.671875 -33.484375 C 21.671875 -30.710938 22.144531 -28.113281 23.09375 -25.6875 C 24.050781 -23.269531 25.375 -21.148438 27.0625 -19.328125 C 28.75 -17.515625 30.71875 -16.085938 32.96875 -15.046875 C 35.21875 -14.015625 37.679688 -13.5 40.359375 -13.5 Z M 40.359375 -13.5 "/></g></g></g><g fill="#404040" fill-opacity="1"><g transform="translate(497.161672, 214.18268)"><g><path d="M 7.921875 0 L 7.921875 -68 L 25.3125 -68 L 25.3125 0 Z M 7.921875 -77.484375 L 7.921875 -94.734375 L 25.3125 -94.734375 L 25.3125 -77.484375 Z M 7.921875 -77.484375 "/></g></g></g><g fill="#404040" fill-opacity="1"><g transform="translate(530.255693, 214.18268)"><g><path d="M 71.125 0 L 53.734375 0 L 53.734375 -38.15625 C 53.734375 -43.601562 52.78125 -47.582031 50.875 -50.09375 C 48.96875 -52.601562 46.328125 -53.859375 42.953125 -53.859375 C 41.222656 -53.859375 39.445312 -53.507812 37.625 -52.8125 C 35.8125 -52.125 34.101562 -51.148438 32.5 -49.890625 C 30.90625 -48.640625 29.457031 -47.148438 28.15625 -45.421875 C 26.863281 -43.691406 25.914062 -41.789062 25.3125 -39.71875 L 25.3125 0 L 7.921875 0 L 7.921875 -68 L 23.625 -68 L 23.625 -55.421875 C 26.132812 -59.742188 29.765625 -63.113281 34.515625 -65.53125 C 39.273438 -67.957031 44.640625 -69.171875 50.609375 -69.171875 C 54.847656 -69.171875 58.304688 -68.390625 60.984375 -66.828125 C 63.671875 -65.273438 65.75 -63.242188 67.21875 -60.734375 C 68.695312 -58.222656 69.71875 -55.367188 70.28125 -52.171875 C 70.84375 -48.972656 71.125 -45.726562 71.125 -42.4375 Z M 71.125 0 "/></g></g></g><g fill="#404040" fill-opacity="1"><g transform="translate(608.643054, 214.18268)"><g><path d="M 34.515625 0.390625 C 29.929688 0.390625 25.78125 -0.515625 22.0625 -2.328125 C 18.34375 -4.148438 15.117188 -6.640625 12.390625 -9.796875 C 9.671875 -12.953125 7.570312 -16.609375 6.09375 -20.765625 C 4.625 -24.921875 3.890625 -29.332031 3.890625 -34 C 3.890625 -38.9375 4.664062 -43.523438 6.21875 -47.765625 C 7.78125 -52.003906 9.945312 -55.722656 12.71875 -58.921875 C 15.488281 -62.117188 18.816406 -64.625 22.703125 -66.4375 C 26.597656 -68.257812 30.882812 -69.171875 35.5625 -69.171875 C 40.84375 -69.171875 45.472656 -67.976562 49.453125 -65.59375 C 53.429688 -63.21875 56.71875 -60.039062 59.3125 -56.0625 L 59.3125 -68 L 74.5 -68 L 74.5 -3.25 C 74.5 1.769531 73.546875 6.269531 71.640625 10.25 C 69.734375 14.226562 67.113281 17.601562 63.78125 20.375 C 60.457031 23.144531 56.476562 25.265625 51.84375 26.734375 C 47.21875 28.203125 42.179688 28.9375 36.734375 28.9375 C 29.285156 28.9375 23.03125 27.703125 17.96875 25.234375 C 12.90625 22.773438 8.5625 19.296875 4.9375 14.796875 L 14.40625 5.578125 C 17 8.773438 20.265625 11.28125 24.203125 13.09375 C 28.140625 14.914062 32.316406 15.828125 36.734375 15.828125 C 39.410156 15.828125 41.984375 15.457031 44.453125 14.71875 C 46.921875 13.988281 49.101562 12.84375 51 11.28125 C 52.90625 9.726562 54.398438 7.738281 55.484375 5.3125 C 56.566406 2.894531 57.109375 0.0390625 57.109375 -3.25 L 57.109375 -11.8125 C 54.859375 -7.914062 51.695312 -4.90625 47.625 -2.78125 C 43.5625 -0.664062 39.191406 0.390625 34.515625 0.390625 Z M 40.359375 -13.5 C 42.265625 -13.5 44.082031 -13.800781 45.8125 -14.40625 C 47.539062 -15.007812 49.140625 -15.828125 50.609375 -16.859375 C 52.085938 -17.898438 53.382812 -19.113281 54.5 -20.5 C 55.625 -21.882812 56.492188 -23.359375 57.109375 -24.921875 L 57.109375 -41.140625 C 55.546875 -45.117188 53.097656 -48.316406 49.765625 -50.734375 C 46.441406 -53.160156 42.960938 -54.375 39.328125 -54.375 C 36.640625 -54.375 34.210938 -53.789062 32.046875 -52.625 C 29.890625 -51.457031 28.03125 -49.898438 26.46875 -47.953125 C 24.914062 -46.003906 23.726562 -43.773438 22.90625 -41.265625 C 22.082031 -38.753906 21.671875 -36.160156 21.671875 -33.484375 C 21.671875 -30.710938 22.144531 -28.113281 23.09375 -25.6875 C 24.050781 -23.269531 25.375 -21.148438 27.0625 -19.328125 C 28.75 -17.515625 30.71875 -16.085938 32.96875 -15.046875 C 35.21875 -14.015625 37.679688 -13.5 40.359375 -13.5 Z M 40.359375 -13.5 "/></g></g></g><g fill="#404040" fill-opacity="1"><g transform="translate(690.923831, 214.18268)"><g/></g></g><g fill="#404040" fill-opacity="1"><g transform="translate(722.071121, 214.18268)"><g><path d="M 48.671875 -3.5 C 46.328125 -2.46875 43.46875 -1.429688 40.09375 -0.390625 C 36.726562 0.648438 33.179688 1.171875 29.453125 1.171875 C 27.035156 1.171875 24.765625 0.863281 22.640625 0.25 C 20.523438 -0.351562 18.664062 -1.320312 17.0625 -2.65625 C 15.46875 -4 14.191406 -5.726562 13.234375 -7.84375 C 12.285156 -9.96875 11.8125 -12.546875 11.8125 -15.578125 L 11.8125 -54.640625 L 2.859375 -54.640625 L 2.859375 -68 L 11.8125 -68 L 11.8125 -90.0625 L 29.203125 -90.0625 L 29.203125 -68 L 43.484375 -68 L 43.484375 -54.640625 L 29.203125 -54.640625 L 29.203125 -21.40625 C 29.203125 -18.988281 29.828125 -17.28125 31.078125 -16.28125 C 32.335938 -15.289062 33.875 -14.796875 35.6875 -14.796875 C 37.507812 -14.796875 39.285156 -15.097656 41.015625 -15.703125 C 42.742188 -16.304688 44.125 -16.828125 45.15625 -17.265625 Z M 48.671875 -3.5 "/></g></g></g><g fill="#404040" fill-opacity="1"><g transform="translate(771.906804, 214.18268)"><g><path d="M 71.125 0 L 53.734375 0 L 53.734375 -38.15625 C 53.734375 -43.519531 52.738281 -47.476562 50.75 -50.03125 C 48.757812 -52.582031 45.945312 -53.859375 42.3125 -53.859375 C 40.75 -53.859375 39.101562 -53.507812 37.375 -52.8125 C 35.644531 -52.125 34 -51.148438 32.4375 -49.890625 C 30.882812 -48.640625 29.457031 -47.148438 28.15625 -45.421875 C 26.863281 -43.691406 25.914062 -41.789062 25.3125 -39.71875 L 25.3125 0 L 7.921875 0 L 7.921875 -94.734375 L 25.3125 -94.734375 L 25.3125 -55.421875 C 27.820312 -59.828125 31.21875 -63.21875 35.5 -65.59375 C 39.78125 -67.976562 44.515625 -69.171875 49.703125 -69.171875 C 54.117188 -69.171875 57.707031 -68.410156 60.46875 -66.890625 C 63.238281 -65.378906 65.398438 -63.367188 66.953125 -60.859375 C 68.515625 -58.359375 69.597656 -55.503906 70.203125 -52.296875 C 70.816406 -49.097656 71.125 -45.8125 71.125 -42.4375 Z M 71.125 0 "/></g></g></g><g fill="#404040" fill-opacity="1"><g transform="translate(850.294164, 214.18268)"><g><path d="M 39.453125 1.296875 C 34.003906 1.296875 29.070312 0.367188 24.65625 -1.484375 C 20.25 -3.347656 16.488281 -5.878906 13.375 -9.078125 C 10.257812 -12.285156 7.859375 -16.007812 6.171875 -20.25 C 4.484375 -24.488281 3.640625 -28.941406 3.640625 -33.609375 C 3.640625 -38.453125 4.457031 -43.015625 6.09375 -47.296875 C 7.738281 -51.585938 10.117188 -55.351562 13.234375 -58.59375 C 16.347656 -61.84375 20.132812 -64.414062 24.59375 -66.3125 C 29.050781 -68.21875 34.046875 -69.171875 39.578125 -69.171875 C 45.117188 -69.171875 50.070312 -68.21875 54.4375 -66.3125 C 58.8125 -64.414062 62.535156 -61.863281 65.609375 -58.65625 C 68.679688 -55.457031 71.015625 -51.738281 72.609375 -47.5 C 74.210938 -43.257812 75.015625 -38.847656 75.015625 -34.265625 C 75.015625 -33.140625 74.992188 -32.054688 74.953125 -31.015625 C 74.910156 -29.972656 74.800781 -29.109375 74.625 -28.421875 L 22.0625 -28.421875 C 22.320312 -25.742188 22.96875 -23.363281 24 -21.28125 C 25.039062 -19.207031 26.382812 -17.429688 28.03125 -15.953125 C 29.675781 -14.484375 31.535156 -13.359375 33.609375 -12.578125 C 35.691406 -11.804688 37.859375 -11.421875 40.109375 -11.421875 C 43.566406 -11.421875 46.832031 -12.265625 49.90625 -13.953125 C 52.976562 -15.640625 55.070312 -17.867188 56.1875 -20.640625 L 71.125 -16.484375 C 68.613281 -11.296875 64.609375 -7.035156 59.109375 -3.703125 C 53.617188 -0.367188 47.066406 1.296875 39.453125 1.296875 Z M 57.109375 -39.71875 C 56.671875 -44.820312 54.785156 -48.90625 51.453125 -51.96875 C 48.128906 -55.039062 44.085938 -56.578125 39.328125 -56.578125 C 36.984375 -56.578125 34.796875 -56.164062 32.765625 -55.34375 C 30.734375 -54.53125 28.9375 -53.382812 27.375 -51.90625 C 25.820312 -50.4375 24.546875 -48.664062 23.546875 -46.59375 C 22.554688 -44.519531 21.972656 -42.226562 21.796875 -39.71875 Z M 57.109375 -39.71875 "/></g></g></g><g fill="#404040" fill-opacity="1"><g transform="translate(928.032645, 214.18268)"><g/></g></g><g fill="#404040" fill-opacity="1"><g transform="translate(959.179981, 214.18268)"><g><path d="M 12.0625 0 L 12.0625 -51.140625 L 3.109375 -51.140625 L 3.109375 -64.375 L 12.0625 -64.375 L 12.0625 -68.53125 C 12.0625 -77.007812 14.09375 -83.710938 18.15625 -88.640625 C 22.226562 -93.566406 27.769531 -96.03125 34.78125 -96.03125 C 40.320312 -96.03125 45.898438 -94.691406 51.515625 -92.015625 L 48.015625 -78.90625 C 46.722656 -79.59375 45.1875 -80.175781 43.40625 -80.65625 C 41.632812 -81.132812 40.015625 -81.375 38.546875 -81.375 C 32.484375 -81.375 29.453125 -77.304688 29.453125 -69.171875 L 29.453125 -64.375 L 46.078125 -64.375 L 46.078125 -51.140625 L 29.453125 -51.140625 L 29.453125 0 Z M 12.0625 0 "/></g></g></g><g fill="#404040" fill-opacity="1"><g transform="translate(1007.198744, 214.18268)"><g><path d="M 28.6875 1.296875 C 21.675781 1.296875 16.351562 -0.953125 12.71875 -5.453125 C 9.082031 -9.953125 7.265625 -16.613281 7.265625 -25.4375 L 7.265625 -68 L 24.65625 -68 L 24.65625 -29.203125 C 24.65625 -18.734375 28.421875 -13.5 35.953125 -13.5 C 39.328125 -13.5 42.59375 -14.515625 45.75 -16.546875 C 48.90625 -18.578125 51.476562 -21.671875 53.46875 -25.828125 L 53.46875 -68 L 70.859375 -68 L 70.859375 -19.984375 C 70.859375 -18.171875 71.179688 -16.875 71.828125 -16.09375 C 72.484375 -15.3125 73.546875 -14.878906 75.015625 -14.796875 L 75.015625 0 C 73.285156 0.34375 71.832031 0.554688 70.65625 0.640625 C 69.488281 0.734375 68.429688 0.78125 67.484375 0.78125 C 64.367188 0.78125 61.835938 0.0664062 59.890625 -1.359375 C 57.941406 -2.785156 56.796875 -4.753906 56.453125 -7.265625 L 56.0625 -12.71875 C 53.03125 -8.039062 49.132812 -4.535156 44.375 -2.203125 C 39.625 0.128906 34.394531 1.296875 28.6875 1.296875 Z M 28.6875 1.296875 "/></g></g></g><g fill="#404040" fill-opacity="1"><g transform="translate(1087.403069, 214.18268)"><g><path d="M 48.671875 -3.5 C 46.328125 -2.46875 43.46875 -1.429688 40.09375 -0.390625 C 36.726562 0.648438 33.179688 1.171875 29.453125 1.171875 C 27.035156 1.171875 24.765625 0.863281 22.640625 0.25 C 20.523438 -0.351562 18.664062 -1.320312 17.0625 -2.65625 C 15.46875 -4 14.191406 -5.726562 13.234375 -7.84375 C 12.285156 -9.96875 11.8125 -12.546875 11.8125 -15.578125 L 11.8125 -54.640625 L 2.859375 -54.640625 L 2.859375 -68 L 11.8125 -68 L 11.8125 -90.0625 L 29.203125 -90.0625 L 29.203125 -68 L 43.484375 -68 L 43.484375 -54.640625 L 29.203125 -54.640625 L 29.203125 -21.40625 C 29.203125 -18.988281 29.828125 -17.28125 31.078125 -16.28125 C 32.335938 -15.289062 33.875 -14.796875 35.6875 -14.796875 C 37.507812 -14.796875 39.285156 -15.097656 41.015625 -15.703125 C 42.742188 -16.304688 44.125 -16.828125 45.15625 -17.265625 Z M 48.671875 -3.5 "/></g></g></g><g fill="#404040" fill-opacity="1"><g transform="translate(1137.238751, 214.18268)"><g><path d="M 28.6875 1.296875 C 21.675781 1.296875 16.351562 -0.953125 12.71875 -5.453125 C 9.082031 -9.953125 7.265625 -16.613281 7.265625 -25.4375 L 7.265625 -68 L 24.65625 -68 L 24.65625 -29.203125 C 24.65625 -18.734375 28.421875 -13.5 35.953125 -13.5 C 39.328125 -13.5 42.59375 -14.515625 45.75 -16.546875 C 48.90625 -18.578125 51.476562 -21.671875 53.46875 -25.828125 L 53.46875 -68 L 70.859375 -68 L 70.859375 -19.984375 C 70.859375 -18.171875 71.179688 -16.875 71.828125 -16.09375 C 72.484375 -15.3125 73.546875 -14.878906 75.015625 -14.796875 L 75.015625 0 C 73.285156 0.34375 71.832031 0.554688 70.65625 0.640625 C 69.488281 0.734375 68.429688 0.78125 67.484375 0.78125 C 64.367188 0.78125 61.835938 0.0664062 59.890625 -1.359375 C 57.941406 -2.785156 56.796875 -4.753906 56.453125 -7.265625 L 56.0625 -12.71875 C 53.03125 -8.039062 49.132812 -4.535156 44.375 -2.203125 C 39.625 0.128906 34.394531 1.296875 28.6875 1.296875 Z M 28.6875 1.296875 "/></g></g></g><g fill="#404040" fill-opacity="1"><g transform="translate(1217.443076, 214.18268)"><g><path d="M 48.40625 -52.953125 C 43.125 -52.867188 38.40625 -51.851562 34.25 -49.90625 C 30.101562 -47.957031 27.125 -45.035156 25.3125 -41.140625 L 25.3125 0 L 7.921875 0 L 7.921875 -68 L 23.875 -68 L 23.875 -53.46875 C 25.09375 -55.800781 26.519531 -57.894531 28.15625 -59.75 C 29.800781 -61.613281 31.578125 -63.238281 33.484375 -64.625 C 35.390625 -66.007812 37.3125 -67.066406 39.25 -67.796875 C 41.195312 -68.535156 43.082031 -68.90625 44.90625 -68.90625 C 45.851562 -68.90625 46.566406 -68.90625 47.046875 -68.90625 C 47.523438 -68.90625 47.976562 -68.863281 48.40625 -68.78125 Z M 48.40625 -52.953125 "/></g></g></g><g fill="#404040" fill-opacity="1"><g transform="translate(1267.668104, 214.18268)"><g><path d="M 39.453125 1.296875 C 34.003906 1.296875 29.070312 0.367188 24.65625 -1.484375 C 20.25 -3.347656 16.488281 -5.878906 13.375 -9.078125 C 10.257812 -12.285156 7.859375 -16.007812 6.171875 -20.25 C 4.484375 -24.488281 3.640625 -28.941406 3.640625 -33.609375 C 3.640625 -38.453125 4.457031 -43.015625 6.09375 -47.296875 C 7.738281 -51.585938 10.117188 -55.351562 13.234375 -58.59375 C 16.347656 -61.84375 20.132812 -64.414062 24.59375 -66.3125 C 29.050781 -68.21875 34.046875 -69.171875 39.578125 -69.171875 C 45.117188 -69.171875 50.070312 -68.21875 54.4375 -66.3125 C 58.8125 -64.414062 62.535156 -61.863281 65.609375 -58.65625 C 68.679688 -55.457031 71.015625 -51.738281 72.609375 -47.5 C 74.210938 -43.257812 75.015625 -38.847656 75.015625 -34.265625 C 75.015625 -33.140625 74.992188 -32.054688 74.953125 -31.015625 C 74.910156 -29.972656 74.800781 -29.109375 74.625 -28.421875 L 22.0625 -28.421875 C 22.320312 -25.742188 22.96875 -23.363281 24 -21.28125 C 25.039062 -19.207031 26.382812 -17.429688 28.03125 -15.953125 C 29.675781 -14.484375 31.535156 -13.359375 33.609375 -12.578125 C 35.691406 -11.804688 37.859375 -11.421875 40.109375 -11.421875 C 43.566406 -11.421875 46.832031 -12.265625 49.90625 -13.953125 C 52.976562 -15.640625 55.070312 -17.867188 56.1875 -20.640625 L 71.125 -16.484375 C 68.613281 -11.296875 64.609375 -7.035156 59.109375 -3.703125 C 53.617188 -0.367188 47.066406 1.296875 39.453125 1.296875 Z M 57.109375 -39.71875 C 56.671875 -44.820312 54.785156 -48.90625 51.453125 -51.96875 C 48.128906 -55.039062 44.085938 -56.578125 39.328125 -56.578125 C 36.984375 -56.578125 34.796875 -56.164062 32.765625 -55.34375 C 30.734375 -54.53125 28.9375 -53.382812 27.375 -51.90625 C 25.820312 -50.4375 24.546875 -48.664062 23.546875 -46.59375 C 22.554688 -44.519531 21.972656 -42.226562 21.796875 -39.71875 Z M 57.109375 -39.71875 "/></g></g></g></svg>