<svg xmlns="http://www.w3.org/2000/svg" xmlns:xlink="http://www.w3.org/1999/xlink" width="1920" zoomAndPan="magnify" viewBox="0 0 1440 149.999998" height="200" preserveAspectRatio="xMidYMid meet" version="1.0"><defs><g/></defs><rect x="-144" width="1728" fill="#ffffff" y="-15" height="179.999997" fill-opacity="1"/><rect x="-144" width="1728" fill="#ffffff" y="-15" height="179.999997" fill-opacity="1"/><rect x="-144" width="1728" fill="#ffc72c" y="-15" height="179.999997" fill-opacity="1"/><g fill="#404040" fill-opacity="1"><g transform="translate(86.175043, 113.115938)"><g><path d="M 4.078125 -47.34375 C 4.078125 -53.050781 5.109375 -58.6875 7.171875 -64.25 C 9.234375 -69.820312 12.234375 -74.800781 16.171875 -79.1875 C 20.117188 -83.570312 24.941406 -87.117188 30.640625 -89.828125 C 36.347656 -92.546875 42.835938 -93.90625 50.109375 -93.90625 C 58.703125 -93.90625 66.132812 -92.019531 72.40625 -88.25 C 78.675781 -84.488281 83.347656 -79.582031 86.421875 -73.53125 L 72.46875 -63.921875 C 71.238281 -66.554688 69.75 -68.769531 68 -70.5625 C 66.25 -72.363281 64.363281 -73.789062 62.34375 -74.84375 C 60.332031 -75.894531 58.226562 -76.660156 56.03125 -77.140625 C 53.84375 -77.617188 51.695312 -77.859375 49.59375 -77.859375 C 45.03125 -77.859375 41.0625 -76.9375 37.6875 -75.09375 C 34.3125 -73.257812 31.503906 -70.875 29.265625 -67.9375 C 27.023438 -65 25.332031 -61.664062 24.1875 -57.9375 C 23.050781 -54.207031 22.484375 -50.503906 22.484375 -46.828125 C 22.484375 -42.703125 23.140625 -38.734375 24.453125 -34.921875 C 25.773438 -31.109375 27.640625 -27.753906 30.046875 -24.859375 C 32.460938 -21.960938 35.359375 -19.632812 38.734375 -17.875 C 42.109375 -16.125 45.8125 -15.25 49.84375 -15.25 C 51.945312 -15.25 54.140625 -15.515625 56.421875 -16.046875 C 58.703125 -16.578125 60.875 -17.410156 62.9375 -18.546875 C 65 -19.679688 66.90625 -21.148438 68.65625 -22.953125 C 70.414062 -24.753906 71.820312 -26.925781 72.875 -29.46875 L 87.734375 -20.90625 C 86.242188 -17.40625 84.113281 -14.316406 81.34375 -11.640625 C 78.582031 -8.960938 75.46875 -6.703125 72 -4.859375 C 68.539062 -3.023438 64.835938 -1.625 60.890625 -0.65625 C 56.953125 0.3125 53.097656 0.796875 49.328125 0.796875 C 42.660156 0.796875 36.5625 -0.601562 31.03125 -3.40625 C 25.507812 -6.21875 20.753906 -9.878906 16.765625 -14.390625 C 12.773438 -18.910156 9.660156 -24.039062 7.421875 -29.78125 C 5.191406 -35.53125 4.078125 -41.382812 4.078125 -47.34375 Z M 4.078125 -47.34375 "/></g></g></g><g fill="#404040" fill-opacity="1"><g transform="translate(176.401271, 113.115938)"><g><path d="M 72.078125 0 L 54.453125 0 L 54.453125 -38.671875 C 54.453125 -44.109375 53.441406 -48.117188 51.421875 -50.703125 C 49.410156 -53.285156 46.5625 -54.578125 42.875 -54.578125 C 41.300781 -54.578125 39.632812 -54.226562 37.875 -53.53125 C 36.125 -52.832031 34.457031 -51.847656 32.875 -50.578125 C 31.300781 -49.304688 29.851562 -47.789062 28.53125 -46.03125 C 27.21875 -44.28125 26.257812 -42.351562 25.65625 -40.25 L 25.65625 0 L 8.015625 0 L 8.015625 -96.015625 L 25.65625 -96.015625 L 25.65625 -56.15625 C 28.195312 -60.632812 31.632812 -64.078125 35.96875 -66.484375 C 40.3125 -68.898438 45.113281 -70.109375 50.375 -70.109375 C 54.84375 -70.109375 58.476562 -69.335938 61.28125 -67.796875 C 64.09375 -66.265625 66.285156 -64.226562 67.859375 -61.6875 C 69.441406 -59.144531 70.539062 -56.25 71.15625 -53 C 71.769531 -49.757812 72.078125 -46.429688 72.078125 -43.015625 Z M 72.078125 0 "/></g></g></g><g fill="#404040" fill-opacity="1"><g transform="translate(255.842433, 113.115938)"><g><path d="M 26.828125 1.3125 C 23.492188 1.3125 20.378906 0.765625 17.484375 -0.328125 C 14.597656 -1.421875 12.101562 -2.953125 10 -4.921875 C 7.894531 -6.898438 6.25 -9.203125 5.0625 -11.828125 C 3.875 -14.460938 3.28125 -17.359375 3.28125 -20.515625 C 3.28125 -23.765625 4.003906 -26.769531 5.453125 -29.53125 C 6.898438 -32.289062 8.914062 -34.632812 11.5 -36.5625 C 14.09375 -38.488281 17.1875 -40 20.78125 -41.09375 C 24.375 -42.195312 28.320312 -42.75 32.625 -42.75 C 35.6875 -42.75 38.6875 -42.484375 41.625 -41.953125 C 44.5625 -41.429688 47.171875 -40.6875 49.453125 -39.71875 L 49.453125 -43.671875 C 49.453125 -48.234375 48.160156 -51.738281 45.578125 -54.1875 C 42.992188 -56.644531 39.15625 -57.875 34.0625 -57.875 C 30.382812 -57.875 26.789062 -57.210938 23.28125 -55.890625 C 19.769531 -54.578125 16.175781 -52.648438 12.5 -50.109375 L 7.109375 -61.296875 C 15.960938 -67.171875 25.519531 -70.109375 35.78125 -70.109375 C 45.6875 -70.109375 53.378906 -67.671875 58.859375 -62.796875 C 64.335938 -57.929688 67.078125 -50.898438 67.078125 -41.703125 L 67.078125 -20.25 C 67.078125 -18.414062 67.40625 -17.101562 68.0625 -16.3125 C 68.71875 -15.519531 69.796875 -15.082031 71.296875 -15 L 71.296875 0 C 68.304688 0.613281 65.71875 0.921875 63.53125 0.921875 C 60.195312 0.921875 57.628906 0.175781 55.828125 -1.3125 C 54.035156 -2.800781 52.921875 -4.773438 52.484375 -7.234375 L 52.09375 -11.046875 C 49.019531 -7.015625 45.289062 -3.945312 40.90625 -1.84375 C 36.519531 0.257812 31.828125 1.3125 26.828125 1.3125 Z M 31.828125 -11.578125 C 34.804688 -11.578125 37.632812 -12.101562 40.3125 -13.15625 C 42.988281 -14.207031 45.070312 -15.609375 46.5625 -17.359375 C 48.488281 -18.847656 49.453125 -20.515625 49.453125 -22.359375 L 49.453125 -30.25 C 47.347656 -31.039062 45.066406 -31.675781 42.609375 -32.15625 C 40.160156 -32.632812 37.796875 -32.875 35.515625 -32.875 C 30.953125 -32.875 27.222656 -31.84375 24.328125 -29.78125 C 21.441406 -27.726562 20 -25.125 20 -21.96875 C 20 -18.988281 21.132812 -16.507812 23.40625 -14.53125 C 25.6875 -12.5625 28.492188 -11.578125 31.828125 -11.578125 Z M 31.828125 -11.578125 "/></g></g></g><g fill="#404040" fill-opacity="1"><g transform="translate(331.33785, 113.115938)"><g><path d="M 72.078125 0 L 54.453125 0 L 54.453125 -38.671875 C 54.453125 -44.191406 53.488281 -48.222656 51.5625 -50.765625 C 49.632812 -53.304688 46.957031 -54.578125 43.53125 -54.578125 C 41.78125 -54.578125 39.984375 -54.226562 38.140625 -53.53125 C 36.296875 -52.832031 34.5625 -51.847656 32.9375 -50.578125 C 31.320312 -49.304688 29.851562 -47.789062 28.53125 -46.03125 C 27.21875 -44.28125 26.257812 -42.351562 25.65625 -40.25 L 25.65625 0 L 8.015625 0 L 8.015625 -68.921875 L 23.9375 -68.921875 L 23.9375 -56.15625 C 26.476562 -60.539062 30.160156 -63.960938 34.984375 -66.421875 C 39.804688 -68.878906 45.242188 -70.109375 51.296875 -70.109375 C 55.597656 -70.109375 59.101562 -69.316406 61.8125 -67.734375 C 64.53125 -66.160156 66.632812 -64.101562 68.125 -61.5625 C 69.625 -59.019531 70.65625 -56.125 71.21875 -52.875 C 71.789062 -49.632812 72.078125 -46.347656 72.078125 -43.015625 Z M 72.078125 0 "/></g></g></g><g fill="#404040" fill-opacity="1"><g transform="translate(410.779023, 113.115938)"><g><path d="M 34.984375 0.390625 C 30.335938 0.390625 26.128906 -0.523438 22.359375 -2.359375 C 18.585938 -4.203125 15.320312 -6.722656 12.5625 -9.921875 C 9.800781 -13.128906 7.675781 -16.835938 6.1875 -21.046875 C 4.695312 -25.253906 3.953125 -29.726562 3.953125 -34.46875 C 3.953125 -39.457031 4.738281 -44.097656 6.3125 -48.390625 C 7.894531 -52.691406 10.085938 -56.460938 12.890625 -59.703125 C 15.691406 -62.953125 19.066406 -65.5 23.015625 -67.34375 C 26.960938 -69.1875 31.304688 -70.109375 36.046875 -70.109375 C 41.390625 -70.109375 46.078125 -68.898438 50.109375 -66.484375 C 54.140625 -64.078125 57.472656 -60.859375 60.109375 -56.828125 L 60.109375 -68.921875 L 75.5 -68.921875 L 75.5 -3.28125 C 75.5 1.800781 74.535156 6.359375 72.609375 10.390625 C 70.679688 14.421875 68.023438 17.835938 64.640625 20.640625 C 61.265625 23.453125 57.234375 25.601562 52.546875 27.09375 C 47.859375 28.582031 42.75 29.328125 37.21875 29.328125 C 29.675781 29.328125 23.335938 28.078125 18.203125 25.578125 C 13.078125 23.078125 8.675781 19.550781 5 15 L 14.59375 5.65625 C 17.226562 8.894531 20.539062 11.4375 24.53125 13.28125 C 28.519531 15.125 32.75 16.046875 37.21875 16.046875 C 39.9375 16.046875 42.546875 15.671875 45.046875 14.921875 C 47.546875 14.179688 49.757812 13.019531 51.6875 11.4375 C 53.613281 9.863281 55.125 7.847656 56.21875 5.390625 C 57.320312 2.929688 57.875 0.0390625 57.875 -3.28125 L 57.875 -11.96875 C 55.59375 -8.019531 52.390625 -4.972656 48.265625 -2.828125 C 44.148438 -0.679688 39.722656 0.390625 34.984375 0.390625 Z M 40.90625 -13.671875 C 42.832031 -13.671875 44.671875 -13.976562 46.421875 -14.59375 C 48.179688 -15.207031 49.804688 -16.039062 51.296875 -17.09375 C 52.785156 -18.144531 54.097656 -19.375 55.234375 -20.78125 C 56.378906 -22.1875 57.257812 -23.675781 57.875 -25.25 L 57.875 -41.703125 C 56.289062 -45.734375 53.8125 -48.972656 50.4375 -51.421875 C 47.0625 -53.878906 43.535156 -55.109375 39.859375 -55.109375 C 37.140625 -55.109375 34.679688 -54.515625 32.484375 -53.328125 C 30.296875 -52.148438 28.410156 -50.570312 26.828125 -48.59375 C 25.253906 -46.625 24.050781 -44.367188 23.21875 -41.828125 C 22.382812 -39.285156 21.96875 -36.65625 21.96875 -33.9375 C 21.96875 -31.125 22.445312 -28.488281 23.40625 -26.03125 C 24.375 -23.582031 25.710938 -21.4375 27.421875 -19.59375 C 29.128906 -17.757812 31.125 -16.3125 33.40625 -15.25 C 35.6875 -14.195312 38.1875 -13.671875 40.90625 -13.671875 Z M 40.90625 -13.671875 "/></g></g></g><g fill="#404040" fill-opacity="1"><g transform="translate(494.165931, 113.115938)"><g><path d="M 8.015625 0 L 8.015625 -68.921875 L 25.65625 -68.921875 L 25.65625 0 Z M 8.015625 -78.53125 L 8.015625 -96.015625 L 25.65625 -96.015625 L 25.65625 -78.53125 Z M 8.015625 -78.53125 "/></g></g></g><g fill="#404040" fill-opacity="1"><g transform="translate(527.704847, 113.115938)"><g><path d="M 72.078125 0 L 54.453125 0 L 54.453125 -38.671875 C 54.453125 -44.191406 53.488281 -48.222656 51.5625 -50.765625 C 49.632812 -53.304688 46.957031 -54.578125 43.53125 -54.578125 C 41.78125 -54.578125 39.984375 -54.226562 38.140625 -53.53125 C 36.296875 -52.832031 34.5625 -51.847656 32.9375 -50.578125 C 31.320312 -49.304688 29.851562 -47.789062 28.53125 -46.03125 C 27.21875 -44.28125 26.257812 -42.351562 25.65625 -40.25 L 25.65625 0 L 8.015625 0 L 8.015625 -68.921875 L 23.9375 -68.921875 L 23.9375 -56.15625 C 26.476562 -60.539062 30.160156 -63.960938 34.984375 -66.421875 C 39.804688 -68.878906 45.242188 -70.109375 51.296875 -70.109375 C 55.597656 -70.109375 59.101562 -69.316406 61.8125 -67.734375 C 64.53125 -66.160156 66.632812 -64.101562 68.125 -61.5625 C 69.625 -59.019531 70.65625 -56.125 71.21875 -52.875 C 71.789062 -49.632812 72.078125 -46.347656 72.078125 -43.015625 Z M 72.078125 0 "/></g></g></g><g fill="#404040" fill-opacity="1"><g transform="translate(607.145998, 113.115938)"><g><path d="M 34.984375 0.390625 C 30.335938 0.390625 26.128906 -0.523438 22.359375 -2.359375 C 18.585938 -4.203125 15.320312 -6.722656 12.5625 -9.921875 C 9.800781 -13.128906 7.675781 -16.835938 6.1875 -21.046875 C 4.695312 -25.253906 3.953125 -29.726562 3.953125 -34.46875 C 3.953125 -39.457031 4.738281 -44.097656 6.3125 -48.390625 C 7.894531 -52.691406 10.085938 -56.460938 12.890625 -59.703125 C 15.691406 -62.953125 19.066406 -65.5 23.015625 -67.34375 C 26.960938 -69.1875 31.304688 -70.109375 36.046875 -70.109375 C 41.390625 -70.109375 46.078125 -68.898438 50.109375 -66.484375 C 54.140625 -64.078125 57.472656 -60.859375 60.109375 -56.828125 L 60.109375 -68.921875 L 75.5 -68.921875 L 75.5 -3.28125 C 75.5 1.800781 74.535156 6.359375 72.609375 10.390625 C 70.679688 14.421875 68.023438 17.835938 64.640625 20.640625 C 61.265625 23.453125 57.234375 25.601562 52.546875 27.09375 C 47.859375 28.582031 42.75 29.328125 37.21875 29.328125 C 29.675781 29.328125 23.335938 28.078125 18.203125 25.578125 C 13.078125 23.078125 8.675781 19.550781 5 15 L 14.59375 5.65625 C 17.226562 8.894531 20.539062 11.4375 24.53125 13.28125 C 28.519531 15.125 32.75 16.046875 37.21875 16.046875 C 39.9375 16.046875 42.546875 15.671875 45.046875 14.921875 C 47.546875 14.179688 49.757812 13.019531 51.6875 11.4375 C 53.613281 9.863281 55.125 7.847656 56.21875 5.390625 C 57.320312 2.929688 57.875 0.0390625 57.875 -3.28125 L 57.875 -11.96875 C 55.59375 -8.019531 52.390625 -4.972656 48.265625 -2.828125 C 44.148438 -0.679688 39.722656 0.390625 34.984375 0.390625 Z M 40.90625 -13.671875 C 42.832031 -13.671875 44.671875 -13.976562 46.421875 -14.59375 C 48.179688 -15.207031 49.804688 -16.039062 51.296875 -17.09375 C 52.785156 -18.144531 54.097656 -19.375 55.234375 -20.78125 C 56.378906 -22.1875 57.257812 -23.675781 57.875 -25.25 L 57.875 -41.703125 C 56.289062 -45.734375 53.8125 -48.972656 50.4375 -51.421875 C 47.0625 -53.878906 43.535156 -55.109375 39.859375 -55.109375 C 37.140625 -55.109375 34.679688 -54.515625 32.484375 -53.328125 C 30.296875 -52.148438 28.410156 -50.570312 26.828125 -48.59375 C 25.253906 -46.625 24.050781 -44.367188 23.21875 -41.828125 C 22.382812 -39.285156 21.96875 -36.65625 21.96875 -33.9375 C 21.96875 -31.125 22.445312 -28.488281 23.40625 -26.03125 C 24.375 -23.582031 25.710938 -21.4375 27.421875 -19.59375 C 29.128906 -17.757812 31.125 -16.3125 33.40625 -15.25 C 35.6875 -14.195312 38.1875 -13.671875 40.90625 -13.671875 Z M 40.90625 -13.671875 "/></g></g></g><g fill="#404040" fill-opacity="1"><g transform="translate(690.532906, 113.115938)"><g/></g></g><g fill="#404040" fill-opacity="1"><g transform="translate(722.09892, 113.115938)"><g><path d="M 49.328125 -3.546875 C 46.953125 -2.492188 44.054688 -1.441406 40.640625 -0.390625 C 37.222656 0.660156 33.628906 1.1875 29.859375 1.1875 C 27.398438 1.1875 25.097656 0.878906 22.953125 0.265625 C 20.804688 -0.347656 18.921875 -1.332031 17.296875 -2.6875 C 15.671875 -4.050781 14.375 -5.804688 13.40625 -7.953125 C 12.445312 -10.109375 11.96875 -12.71875 11.96875 -15.78125 L 11.96875 -55.375 L 2.890625 -55.375 L 2.890625 -68.921875 L 11.96875 -68.921875 L 11.96875 -91.28125 L 29.59375 -91.28125 L 29.59375 -68.921875 L 44.0625 -68.921875 L 44.0625 -55.375 L 29.59375 -55.375 L 29.59375 -21.703125 C 29.59375 -19.242188 30.226562 -17.507812 31.5 -16.5 C 32.769531 -15.5 34.328125 -15 36.171875 -15 C 38.015625 -15 39.8125 -15.304688 41.5625 -15.921875 C 43.3125 -16.535156 44.710938 -17.0625 45.765625 -17.5 Z M 49.328125 -3.546875 "/></g></g></g><g fill="#404040" fill-opacity="1"><g transform="translate(772.604562, 113.115938)"><g><path d="M 72.078125 0 L 54.453125 0 L 54.453125 -38.671875 C 54.453125 -44.109375 53.441406 -48.117188 51.421875 -50.703125 C 49.410156 -53.285156 46.5625 -54.578125 42.875 -54.578125 C 41.300781 -54.578125 39.632812 -54.226562 37.875 -53.53125 C 36.125 -52.832031 34.457031 -51.847656 32.875 -50.578125 C 31.300781 -49.304688 29.851562 -47.789062 28.53125 -46.03125 C 27.21875 -44.28125 26.257812 -42.351562 25.65625 -40.25 L 25.65625 0 L 8.015625 0 L 8.015625 -96.015625 L 25.65625 -96.015625 L 25.65625 -56.15625 C 28.195312 -60.632812 31.632812 -64.078125 35.96875 -66.484375 C 40.3125 -68.898438 45.113281 -70.109375 50.375 -70.109375 C 54.84375 -70.109375 58.476562 -69.335938 61.28125 -67.796875 C 64.09375 -66.265625 66.285156 -64.226562 67.859375 -61.6875 C 69.441406 -59.144531 70.539062 -56.25 71.15625 -53 C 71.769531 -49.757812 72.078125 -46.429688 72.078125 -43.015625 Z M 72.078125 0 "/></g></g></g><g fill="#404040" fill-opacity="1"><g transform="translate(852.045712, 113.115938)"><g><path d="M 39.984375 1.3125 C 34.460938 1.3125 29.460938 0.367188 24.984375 -1.515625 C 20.515625 -3.398438 16.703125 -5.960938 13.546875 -9.203125 C 10.390625 -12.453125 7.957031 -16.222656 6.25 -20.515625 C 4.539062 -24.816406 3.6875 -29.332031 3.6875 -34.0625 C 3.6875 -38.976562 4.519531 -43.601562 6.1875 -47.9375 C 7.851562 -52.28125 10.265625 -56.09375 13.421875 -59.375 C 16.578125 -62.664062 20.410156 -65.273438 24.921875 -67.203125 C 29.441406 -69.140625 34.503906 -70.109375 40.109375 -70.109375 C 45.722656 -70.109375 50.742188 -69.140625 55.171875 -67.203125 C 59.597656 -65.273438 63.367188 -62.6875 66.484375 -59.4375 C 69.597656 -56.195312 71.96875 -52.429688 73.59375 -48.140625 C 75.21875 -43.847656 76.03125 -39.375 76.03125 -34.71875 C 76.03125 -33.582031 76.003906 -32.488281 75.953125 -31.4375 C 75.910156 -30.382812 75.800781 -29.507812 75.625 -28.8125 L 22.359375 -28.8125 C 22.617188 -26.09375 23.273438 -23.679688 24.328125 -21.578125 C 25.378906 -19.472656 26.738281 -17.671875 28.40625 -16.171875 C 30.070312 -14.679688 31.957031 -13.539062 34.0625 -12.75 C 36.164062 -11.96875 38.359375 -11.578125 40.640625 -11.578125 C 44.148438 -11.578125 47.460938 -12.429688 50.578125 -14.140625 C 53.691406 -15.847656 55.816406 -18.101562 56.953125 -20.90625 L 72.078125 -16.703125 C 69.535156 -11.441406 65.476562 -7.125 59.90625 -3.75 C 54.34375 -0.375 47.703125 1.3125 39.984375 1.3125 Z M 57.875 -40.25 C 57.4375 -45.425781 55.53125 -49.566406 52.15625 -52.671875 C 48.78125 -55.785156 44.679688 -57.34375 39.859375 -57.34375 C 37.484375 -57.34375 35.265625 -56.925781 33.203125 -56.09375 C 31.148438 -55.257812 29.332031 -54.097656 27.75 -52.609375 C 26.175781 -51.117188 24.882812 -49.320312 23.875 -47.21875 C 22.863281 -45.113281 22.269531 -42.789062 22.09375 -40.25 Z M 57.875 -40.25 "/></g></g></g><g fill="#404040" fill-opacity="1"><g transform="translate(930.82926, 113.115938)"><g/></g></g><g fill="#404040" fill-opacity="1"><g transform="translate(962.395321, 113.115938)"><g><path d="M 12.234375 0 L 12.234375 -51.828125 L 3.15625 -51.828125 L 3.15625 -65.234375 L 12.234375 -65.234375 L 12.234375 -69.453125 C 12.234375 -78.046875 14.289062 -84.835938 18.40625 -89.828125 C 22.53125 -94.828125 28.144531 -97.328125 35.25 -97.328125 C 40.863281 -97.328125 46.519531 -95.96875 52.21875 -93.25 L 48.671875 -79.96875 C 47.347656 -80.664062 45.785156 -81.253906 43.984375 -81.734375 C 42.191406 -82.222656 40.550781 -82.46875 39.0625 -82.46875 C 32.925781 -82.46875 29.859375 -78.347656 29.859375 -70.109375 L 29.859375 -65.234375 L 46.6875 -65.234375 L 46.6875 -51.828125 L 29.859375 -51.828125 L 29.859375 0 Z M 12.234375 0 "/></g></g></g><g fill="#404040" fill-opacity="1"><g transform="translate(1011.059618, 113.115938)"><g><path d="M 29.0625 1.3125 C 21.96875 1.3125 16.578125 -0.960938 12.890625 -5.515625 C 9.203125 -10.078125 7.359375 -16.832031 7.359375 -25.78125 L 7.359375 -68.921875 L 24.984375 -68.921875 L 24.984375 -29.59375 C 24.984375 -18.976562 28.800781 -13.671875 36.4375 -13.671875 C 39.851562 -13.671875 43.160156 -14.703125 46.359375 -16.765625 C 49.566406 -18.828125 52.175781 -21.960938 54.1875 -26.171875 L 54.1875 -68.921875 L 71.8125 -68.921875 L 71.8125 -20.25 C 71.8125 -18.414062 72.140625 -17.101562 72.796875 -16.3125 C 73.453125 -15.519531 74.53125 -15.082031 76.03125 -15 L 76.03125 0 C 74.269531 0.351562 72.796875 0.570312 71.609375 0.65625 C 70.429688 0.75 69.359375 0.796875 68.390625 0.796875 C 65.234375 0.796875 62.671875 0.0703125 60.703125 -1.375 C 58.734375 -2.820312 57.570312 -4.816406 57.21875 -7.359375 L 56.828125 -12.890625 C 53.753906 -8.148438 49.804688 -4.597656 44.984375 -2.234375 C 40.160156 0.128906 34.851562 1.3125 29.0625 1.3125 Z M 29.0625 1.3125 "/></g></g></g><g fill="#404040" fill-opacity="1"><g transform="translate(1092.342159, 113.115938)"><g><path d="M 49.328125 -3.546875 C 46.953125 -2.492188 44.054688 -1.441406 40.640625 -0.390625 C 37.222656 0.660156 33.628906 1.1875 29.859375 1.1875 C 27.398438 1.1875 25.097656 0.878906 22.953125 0.265625 C 20.804688 -0.347656 18.921875 -1.332031 17.296875 -2.6875 C 15.671875 -4.050781 14.375 -5.804688 13.40625 -7.953125 C 12.445312 -10.109375 11.96875 -12.71875 11.96875 -15.78125 L 11.96875 -55.375 L 2.890625 -55.375 L 2.890625 -68.921875 L 11.96875 -68.921875 L 11.96875 -91.28125 L 29.59375 -91.28125 L 29.59375 -68.921875 L 44.0625 -68.921875 L 44.0625 -55.375 L 29.59375 -55.375 L 29.59375 -21.703125 C 29.59375 -19.242188 30.226562 -17.507812 31.5 -16.5 C 32.769531 -15.5 34.328125 -15 36.171875 -15 C 38.015625 -15 39.8125 -15.304688 41.5625 -15.921875 C 43.3125 -16.535156 44.710938 -17.0625 45.765625 -17.5 Z M 49.328125 -3.546875 "/></g></g></g><g fill="#404040" fill-opacity="1"><g transform="translate(1142.8478, 113.115938)"><g><path d="M 29.0625 1.3125 C 21.96875 1.3125 16.578125 -0.960938 12.890625 -5.515625 C 9.203125 -10.078125 7.359375 -16.832031 7.359375 -25.78125 L 7.359375 -68.921875 L 24.984375 -68.921875 L 24.984375 -29.59375 C 24.984375 -18.976562 28.800781 -13.671875 36.4375 -13.671875 C 39.851562 -13.671875 43.160156 -14.703125 46.359375 -16.765625 C 49.566406 -18.828125 52.175781 -21.960938 54.1875 -26.171875 L 54.1875 -68.921875 L 71.8125 -68.921875 L 71.8125 -20.25 C 71.8125 -18.414062 72.140625 -17.101562 72.796875 -16.3125 C 73.453125 -15.519531 74.53125 -15.082031 76.03125 -15 L 76.03125 0 C 74.269531 0.351562 72.796875 0.570312 71.609375 0.65625 C 70.429688 0.75 69.359375 0.796875 68.390625 0.796875 C 65.234375 0.796875 62.671875 0.0703125 60.703125 -1.375 C 58.734375 -2.820312 57.570312 -4.816406 57.21875 -7.359375 L 56.828125 -12.890625 C 53.753906 -8.148438 49.804688 -4.597656 44.984375 -2.234375 C 40.160156 0.128906 34.851562 1.3125 29.0625 1.3125 Z M 29.0625 1.3125 "/></g></g></g><g fill="#404040" fill-opacity="1"><g transform="translate(1224.130341, 113.115938)"><g><path d="M 49.0625 -53.671875 C 43.707031 -53.578125 38.925781 -52.539062 34.71875 -50.5625 C 30.507812 -48.59375 27.488281 -45.640625 25.65625 -41.703125 L 25.65625 0 L 8.015625 0 L 8.015625 -68.921875 L 24.203125 -68.921875 L 24.203125 -54.1875 C 25.429688 -56.5625 26.878906 -58.6875 28.546875 -60.5625 C 30.210938 -62.445312 32.007812 -64.09375 33.9375 -65.5 C 35.863281 -66.90625 37.8125 -67.976562 39.78125 -68.71875 C 41.757812 -69.46875 43.671875 -69.84375 45.515625 -69.84375 C 46.472656 -69.84375 47.191406 -69.84375 47.671875 -69.84375 C 48.160156 -69.84375 48.625 -69.800781 49.0625 -69.71875 Z M 49.0625 -53.671875 "/></g></g></g><g fill="#404040" fill-opacity="1"><g transform="translate(1275.030563, 113.115938)"><g><path d="M 39.984375 1.3125 C 34.460938 1.3125 29.460938 0.367188 24.984375 -1.515625 C 20.515625 -3.398438 16.703125 -5.960938 13.546875 -9.203125 C 10.390625 -12.453125 7.957031 -16.222656 6.25 -20.515625 C 4.539062 -24.816406 3.6875 -29.332031 3.6875 -34.0625 C 3.6875 -38.976562 4.519531 -43.601562 6.1875 -47.9375 C 7.851562 -52.28125 10.265625 -56.09375 13.421875 -59.375 C 16.578125 -62.664062 20.410156 -65.273438 24.921875 -67.203125 C 29.441406 -69.140625 34.503906 -70.109375 40.109375 -70.109375 C 45.722656 -70.109375 50.742188 -69.140625 55.171875 -67.203125 C 59.597656 -65.273438 63.367188 -62.6875 66.484375 -59.4375 C 69.597656 -56.195312 71.96875 -52.429688 73.59375 -48.140625 C 75.21875 -43.847656 76.03125 -39.375 76.03125 -34.71875 C 76.03125 -33.582031 76.003906 -32.488281 75.953125 -31.4375 C 75.910156 -30.382812 75.800781 -29.507812 75.625 -28.8125 L 22.359375 -28.8125 C 22.617188 -26.09375 23.273438 -23.679688 24.328125 -21.578125 C 25.378906 -19.472656 26.738281 -17.671875 28.40625 -16.171875 C 30.070312 -14.679688 31.957031 -13.539062 34.0625 -12.75 C 36.164062 -11.96875 38.359375 -11.578125 40.640625 -11.578125 C 44.148438 -11.578125 47.460938 -12.429688 50.578125 -14.140625 C 53.691406 -15.847656 55.816406 -18.101562 56.953125 -20.90625 L 72.078125 -16.703125 C 69.535156 -11.441406 65.476562 -7.125 59.90625 -3.75 C 54.34375 -0.375 47.703125 1.3125 39.984375 1.3125 Z M 57.875 -40.25 C 57.4375 -45.425781 55.53125 -49.566406 52.15625 -52.671875 C 48.78125 -55.785156 44.679688 -57.34375 39.859375 -57.34375 C 37.484375 -57.34375 35.265625 -56.925781 33.203125 -56.09375 C 31.148438 -55.257812 29.332031 -54.097656 27.75 -52.609375 C 26.175781 -51.117188 24.882812 -49.320312 23.875 -47.21875 C 22.863281 -45.113281 22.269531 -42.789062 22.09375 -40.25 Z M 57.875 -40.25 "/></g></g></g></svg>