<svg xmlns="http://www.w3.org/2000/svg" xmlns:xlink="http://www.w3.org/1999/xlink" width="1366" zoomAndPan="magnify" viewBox="0 0 1024.5 576" height="768" preserveAspectRatio="xMidYMid meet" version="1.0"><defs><g/><clipPath id="70873dd74a"><path d="M 136.960938 82.480469 L 887 82.480469 L 887 212 L 136.960938 212 Z M 136.960938 82.480469 " clip-rule="nonzero"/></clipPath></defs><g clip-path="url(#70873dd74a)"><path fill="#ffc72c" d="M 136.960938 82.480469 L 886.875 82.480469 L 886.875 211.960938 L 136.960938 211.960938 Z M 136.960938 82.480469 " fill-opacity="1" fill-rule="nonzero"/></g><g fill="#404040" fill-opacity="1"><g transform="translate(154.014438, 171.709696)"><g><path d="M 2.15625 -25.125 C 2.15625 -28.144531 2.703125 -31.128906 3.796875 -34.078125 C 4.890625 -37.035156 6.484375 -39.675781 8.578125 -42 C 10.671875 -44.332031 13.226562 -46.21875 16.25 -47.65625 C 19.28125 -49.101562 22.726562 -49.828125 26.59375 -49.828125 C 31.144531 -49.828125 35.082031 -48.828125 38.40625 -46.828125 C 41.738281 -44.828125 44.21875 -42.21875 45.84375 -39 L 38.453125 -33.90625 C 37.796875 -35.300781 37.003906 -36.476562 36.078125 -37.4375 C 35.148438 -38.394531 34.148438 -39.148438 33.078125 -39.703125 C 32.003906 -40.265625 30.882812 -40.671875 29.71875 -40.921875 C 28.5625 -41.179688 27.425781 -41.3125 26.3125 -41.3125 C 23.882812 -41.3125 21.773438 -40.820312 19.984375 -39.84375 C 18.203125 -38.863281 16.71875 -37.59375 15.53125 -36.03125 C 14.34375 -34.476562 13.445312 -32.710938 12.84375 -30.734375 C 12.238281 -28.753906 11.9375 -26.789062 11.9375 -24.84375 C 11.9375 -22.65625 12.285156 -20.546875 12.984375 -18.515625 C 13.679688 -16.492188 14.664062 -14.71875 15.9375 -13.1875 C 17.21875 -11.65625 18.753906 -10.421875 20.546875 -9.484375 C 22.335938 -8.554688 24.304688 -8.09375 26.453125 -8.09375 C 27.566406 -8.09375 28.726562 -8.234375 29.9375 -8.515625 C 31.144531 -8.796875 32.296875 -9.238281 33.390625 -9.84375 C 34.484375 -10.445312 35.492188 -11.222656 36.421875 -12.171875 C 37.359375 -13.128906 38.101562 -14.28125 38.65625 -15.625 L 46.546875 -11.09375 C 45.753906 -9.226562 44.625 -7.585938 43.15625 -6.171875 C 41.695312 -4.753906 40.046875 -3.554688 38.203125 -2.578125 C 36.367188 -1.597656 34.40625 -0.851562 32.3125 -0.34375 C 30.21875 0.164062 28.171875 0.421875 26.171875 0.421875 C 22.628906 0.421875 19.394531 -0.320312 16.46875 -1.8125 C 13.539062 -3.300781 11.015625 -5.242188 8.890625 -7.640625 C 6.773438 -10.035156 5.125 -12.753906 3.9375 -15.796875 C 2.75 -18.847656 2.15625 -21.957031 2.15625 -25.125 Z M 2.15625 -25.125 "/></g></g></g><g fill="#404040" fill-opacity="1"><g transform="translate(201.878968, 171.709696)"><g><path d="M 38.234375 0 L 28.890625 0 L 28.890625 -20.515625 C 28.890625 -23.398438 28.351562 -25.523438 27.28125 -26.890625 C 26.207031 -28.265625 24.695312 -28.953125 22.75 -28.953125 C 21.914062 -28.953125 21.03125 -28.765625 20.09375 -28.390625 C 19.164062 -28.023438 18.28125 -27.503906 17.4375 -26.828125 C 16.601562 -26.148438 15.835938 -25.347656 15.140625 -24.421875 C 14.441406 -23.492188 13.929688 -22.472656 13.609375 -21.359375 L 13.609375 0 L 4.25 0 L 4.25 -50.9375 L 13.609375 -50.9375 L 13.609375 -29.796875 C 14.953125 -32.171875 16.773438 -33.992188 19.078125 -35.265625 C 21.390625 -36.546875 23.9375 -37.1875 26.71875 -37.1875 C 29.09375 -37.1875 31.023438 -36.78125 32.515625 -35.96875 C 34.003906 -35.15625 35.164062 -34.070312 36 -32.71875 C 36.84375 -31.375 37.425781 -29.84375 37.75 -28.125 C 38.070312 -26.40625 38.234375 -24.632812 38.234375 -22.8125 Z M 38.234375 0 "/></g></g></g><g fill="#404040" fill-opacity="1"><g transform="translate(244.022083, 171.709696)"><g><path d="M 14.234375 0.703125 C 12.460938 0.703125 10.8125 0.410156 9.28125 -0.171875 C 7.75 -0.753906 6.421875 -1.566406 5.296875 -2.609375 C 4.179688 -3.660156 3.3125 -4.882812 2.6875 -6.28125 C 2.0625 -7.675781 1.75 -9.210938 1.75 -10.890625 C 1.75 -12.609375 2.128906 -14.195312 2.890625 -15.65625 C 3.660156 -17.125 4.734375 -18.367188 6.109375 -19.390625 C 7.484375 -20.421875 9.125 -21.222656 11.03125 -21.796875 C 12.9375 -22.378906 15.03125 -22.671875 17.3125 -22.671875 C 18.9375 -22.671875 20.523438 -22.53125 22.078125 -22.25 C 23.640625 -21.976562 25.023438 -21.585938 26.234375 -21.078125 L 26.234375 -23.171875 C 26.234375 -25.585938 25.546875 -27.445312 24.171875 -28.75 C 22.804688 -30.050781 20.773438 -30.703125 18.078125 -30.703125 C 16.117188 -30.703125 14.207031 -30.351562 12.34375 -29.65625 C 10.488281 -28.957031 8.582031 -27.9375 6.625 -26.59375 L 3.765625 -32.515625 C 8.460938 -35.628906 13.535156 -37.1875 18.984375 -37.1875 C 24.234375 -37.1875 28.3125 -35.894531 31.21875 -33.3125 C 34.132812 -30.738281 35.59375 -27.007812 35.59375 -22.125 L 35.59375 -10.75 C 35.59375 -9.769531 35.765625 -9.070312 36.109375 -8.65625 C 36.460938 -8.238281 37.035156 -8.003906 37.828125 -7.953125 L 37.828125 0 C 36.242188 0.320312 34.867188 0.484375 33.703125 0.484375 C 31.929688 0.484375 30.566406 0.0859375 29.609375 -0.703125 C 28.660156 -1.492188 28.070312 -2.539062 27.84375 -3.84375 L 27.640625 -5.859375 C 26.003906 -3.722656 24.023438 -2.09375 21.703125 -0.96875 C 19.378906 0.144531 16.890625 0.703125 14.234375 0.703125 Z M 16.890625 -6.140625 C 18.472656 -6.140625 19.972656 -6.414062 21.390625 -6.96875 C 22.804688 -7.53125 23.910156 -8.28125 24.703125 -9.21875 C 25.722656 -10 26.234375 -10.878906 26.234375 -11.859375 L 26.234375 -16.046875 C 25.117188 -16.460938 23.910156 -16.800781 22.609375 -17.0625 C 21.304688 -17.320312 20.050781 -17.453125 18.84375 -17.453125 C 16.425781 -17.453125 14.445312 -16.90625 12.90625 -15.8125 C 11.375 -14.71875 10.609375 -13.332031 10.609375 -11.65625 C 10.609375 -10.070312 11.210938 -8.753906 12.421875 -7.703125 C 13.628906 -6.660156 15.117188 -6.140625 16.890625 -6.140625 Z M 16.890625 -6.140625 "/></g></g></g><g fill="#404040" fill-opacity="1"><g transform="translate(284.071994, 171.709696)"><g><path d="M 38.234375 0 L 28.890625 0 L 28.890625 -20.515625 C 28.890625 -23.441406 28.375 -25.578125 27.34375 -26.921875 C 26.320312 -28.273438 24.90625 -28.953125 23.09375 -28.953125 C 22.164062 -28.953125 21.210938 -28.765625 20.234375 -28.390625 C 19.253906 -28.023438 18.332031 -27.503906 17.46875 -26.828125 C 16.613281 -26.148438 15.835938 -25.347656 15.140625 -24.421875 C 14.441406 -23.492188 13.929688 -22.472656 13.609375 -21.359375 L 13.609375 0 L 4.25 0 L 4.25 -36.5625 L 12.703125 -36.5625 L 12.703125 -29.796875 C 14.046875 -32.117188 16 -33.929688 18.5625 -35.234375 C 21.125 -36.535156 24.007812 -37.1875 27.21875 -37.1875 C 29.5 -37.1875 31.359375 -36.769531 32.796875 -35.9375 C 34.234375 -35.101562 35.347656 -34.007812 36.140625 -32.65625 C 36.929688 -31.3125 37.476562 -29.773438 37.78125 -28.046875 C 38.082031 -26.328125 38.234375 -24.582031 38.234375 -22.8125 Z M 38.234375 0 "/></g></g></g><g fill="#404040" fill-opacity="1"><g transform="translate(326.215108, 171.709696)"><g><path d="M 18.5625 0.203125 C 16.09375 0.203125 13.859375 -0.28125 11.859375 -1.25 C 9.859375 -2.226562 8.125 -3.566406 6.65625 -5.265625 C 5.195312 -6.960938 4.070312 -8.925781 3.28125 -11.15625 C 2.488281 -13.394531 2.09375 -15.769531 2.09375 -18.28125 C 2.09375 -20.9375 2.507812 -23.398438 3.34375 -25.671875 C 4.1875 -27.953125 5.351562 -29.953125 6.84375 -31.671875 C 8.332031 -33.398438 10.125 -34.75 12.21875 -35.71875 C 14.3125 -36.695312 16.613281 -37.1875 19.125 -37.1875 C 21.957031 -37.1875 24.441406 -36.546875 26.578125 -35.265625 C 28.722656 -33.992188 30.492188 -32.285156 31.890625 -30.140625 L 31.890625 -36.5625 L 40.046875 -36.5625 L 40.046875 -1.75 C 40.046875 0.945312 39.535156 3.363281 38.515625 5.5 C 37.492188 7.644531 36.085938 9.460938 34.296875 10.953125 C 32.503906 12.441406 30.363281 13.582031 27.875 14.375 C 25.382812 15.164062 22.675781 15.5625 19.75 15.5625 C 15.75 15.5625 12.382812 14.894531 9.65625 13.5625 C 6.9375 12.238281 4.601562 10.367188 2.65625 7.953125 L 7.75 3 C 9.144531 4.71875 10.898438 6.066406 13.015625 7.046875 C 15.128906 8.023438 17.375 8.515625 19.75 8.515625 C 21.1875 8.515625 22.566406 8.316406 23.890625 7.921875 C 25.222656 7.523438 26.398438 6.90625 27.421875 6.0625 C 28.441406 5.226562 29.242188 4.160156 29.828125 2.859375 C 30.410156 1.554688 30.703125 0.0195312 30.703125 -1.75 L 30.703125 -6.34375 C 29.492188 -4.25 27.796875 -2.632812 25.609375 -1.5 C 23.421875 -0.363281 21.070312 0.203125 18.5625 0.203125 Z M 21.703125 -7.25 C 22.722656 -7.25 23.695312 -7.410156 24.625 -7.734375 C 25.5625 -8.066406 26.425781 -8.507812 27.21875 -9.0625 C 28.007812 -9.625 28.707031 -10.273438 29.3125 -11.015625 C 29.914062 -11.765625 30.378906 -12.554688 30.703125 -13.390625 L 30.703125 -22.125 C 29.867188 -24.257812 28.554688 -25.976562 26.765625 -27.28125 C 24.972656 -28.582031 23.097656 -29.234375 21.140625 -29.234375 C 19.703125 -29.234375 18.398438 -28.921875 17.234375 -28.296875 C 16.066406 -27.671875 15.066406 -26.832031 14.234375 -25.78125 C 13.398438 -24.738281 12.757812 -23.539062 12.3125 -22.1875 C 11.875 -20.84375 11.65625 -19.445312 11.65625 -18 C 11.65625 -16.507812 11.910156 -15.113281 12.421875 -13.8125 C 12.929688 -12.507812 13.640625 -11.367188 14.546875 -10.390625 C 15.453125 -9.421875 16.507812 -8.65625 17.71875 -8.09375 C 18.925781 -7.53125 20.253906 -7.25 21.703125 -7.25 Z M 21.703125 -7.25 "/></g></g></g><g fill="#404040" fill-opacity="1"><g transform="translate(370.451439, 171.709696)"><g><path d="M 4.25 0 L 4.25 -36.5625 L 13.609375 -36.5625 L 13.609375 0 Z M 4.25 -41.65625 L 4.25 -50.9375 L 13.609375 -50.9375 L 13.609375 -41.65625 Z M 4.25 -41.65625 "/></g></g></g><g fill="#404040" fill-opacity="1"><g transform="translate(388.243657, 171.709696)"><g><path d="M 38.234375 0 L 28.890625 0 L 28.890625 -20.515625 C 28.890625 -23.441406 28.375 -25.578125 27.34375 -26.921875 C 26.320312 -28.273438 24.90625 -28.953125 23.09375 -28.953125 C 22.164062 -28.953125 21.210938 -28.765625 20.234375 -28.390625 C 19.253906 -28.023438 18.332031 -27.503906 17.46875 -26.828125 C 16.613281 -26.148438 15.835938 -25.347656 15.140625 -24.421875 C 14.441406 -23.492188 13.929688 -22.472656 13.609375 -21.359375 L 13.609375 0 L 4.25 0 L 4.25 -36.5625 L 12.703125 -36.5625 L 12.703125 -29.796875 C 14.046875 -32.117188 16 -33.929688 18.5625 -35.234375 C 21.125 -36.535156 24.007812 -37.1875 27.21875 -37.1875 C 29.5 -37.1875 31.359375 -36.769531 32.796875 -35.9375 C 34.234375 -35.101562 35.347656 -34.007812 36.140625 -32.65625 C 36.929688 -31.3125 37.476562 -29.773438 37.78125 -28.046875 C 38.082031 -26.328125 38.234375 -24.582031 38.234375 -22.8125 Z M 38.234375 0 "/></g></g></g><g fill="#404040" fill-opacity="1"><g transform="translate(430.386772, 171.709696)"><g><path d="M 18.5625 0.203125 C 16.09375 0.203125 13.859375 -0.28125 11.859375 -1.25 C 9.859375 -2.226562 8.125 -3.566406 6.65625 -5.265625 C 5.195312 -6.960938 4.070312 -8.925781 3.28125 -11.15625 C 2.488281 -13.394531 2.09375 -15.769531 2.09375 -18.28125 C 2.09375 -20.9375 2.507812 -23.398438 3.34375 -25.671875 C 4.1875 -27.953125 5.351562 -29.953125 6.84375 -31.671875 C 8.332031 -33.398438 10.125 -34.75 12.21875 -35.71875 C 14.3125 -36.695312 16.613281 -37.1875 19.125 -37.1875 C 21.957031 -37.1875 24.441406 -36.546875 26.578125 -35.265625 C 28.722656 -33.992188 30.492188 -32.285156 31.890625 -30.140625 L 31.890625 -36.5625 L 40.046875 -36.5625 L 40.046875 -1.75 C 40.046875 0.945312 39.535156 3.363281 38.515625 5.5 C 37.492188 7.644531 36.085938 9.460938 34.296875 10.953125 C 32.503906 12.441406 30.363281 13.582031 27.875 14.375 C 25.382812 15.164062 22.675781 15.5625 19.75 15.5625 C 15.75 15.5625 12.382812 14.894531 9.65625 13.5625 C 6.9375 12.238281 4.601562 10.367188 2.65625 7.953125 L 7.75 3 C 9.144531 4.71875 10.898438 6.066406 13.015625 7.046875 C 15.128906 8.023438 17.375 8.515625 19.75 8.515625 C 21.1875 8.515625 22.566406 8.316406 23.890625 7.921875 C 25.222656 7.523438 26.398438 6.90625 27.421875 6.0625 C 28.441406 5.226562 29.242188 4.160156 29.828125 2.859375 C 30.410156 1.554688 30.703125 0.0195312 30.703125 -1.75 L 30.703125 -6.34375 C 29.492188 -4.25 27.796875 -2.632812 25.609375 -1.5 C 23.421875 -0.363281 21.070312 0.203125 18.5625 0.203125 Z M 21.703125 -7.25 C 22.722656 -7.25 23.695312 -7.410156 24.625 -7.734375 C 25.5625 -8.066406 26.425781 -8.507812 27.21875 -9.0625 C 28.007812 -9.625 28.707031 -10.273438 29.3125 -11.015625 C 29.914062 -11.765625 30.378906 -12.554688 30.703125 -13.390625 L 30.703125 -22.125 C 29.867188 -24.257812 28.554688 -25.976562 26.765625 -27.28125 C 24.972656 -28.582031 23.097656 -29.234375 21.140625 -29.234375 C 19.703125 -29.234375 18.398438 -28.921875 17.234375 -28.296875 C 16.066406 -27.671875 15.066406 -26.832031 14.234375 -25.78125 C 13.398438 -24.738281 12.757812 -23.539062 12.3125 -22.1875 C 11.875 -20.84375 11.65625 -19.445312 11.65625 -18 C 11.65625 -16.507812 11.910156 -15.113281 12.421875 -13.8125 C 12.929688 -12.507812 13.640625 -11.367188 14.546875 -10.390625 C 15.453125 -9.421875 16.507812 -8.65625 17.71875 -8.09375 C 18.925781 -7.53125 20.253906 -7.25 21.703125 -7.25 Z M 21.703125 -7.25 "/></g></g></g><g fill="#404040" fill-opacity="1"><g transform="translate(474.623103, 171.709696)"><g/></g></g><g fill="#404040" fill-opacity="1"><g transform="translate(491.368714, 171.709696)"><g><path d="M 42.21875 -41.09375 L 26.375 -41.09375 L 26.375 0 L 16.8125 0 L 16.8125 -41.09375 L 0.984375 -41.09375 L 0.984375 -49.546875 L 42.21875 -49.546875 Z M 42.21875 -41.09375 "/></g></g></g><g fill="#404040" fill-opacity="1"><g transform="translate(534.558413, 171.709696)"><g><path d="M 38.234375 0 L 28.890625 0 L 28.890625 -20.515625 C 28.890625 -23.398438 28.351562 -25.523438 27.28125 -26.890625 C 26.207031 -28.265625 24.695312 -28.953125 22.75 -28.953125 C 21.914062 -28.953125 21.03125 -28.765625 20.09375 -28.390625 C 19.164062 -28.023438 18.28125 -27.503906 17.4375 -26.828125 C 16.601562 -26.148438 15.835938 -25.347656 15.140625 -24.421875 C 14.441406 -23.492188 13.929688 -22.472656 13.609375 -21.359375 L 13.609375 0 L 4.25 0 L 4.25 -50.9375 L 13.609375 -50.9375 L 13.609375 -29.796875 C 14.953125 -32.171875 16.773438 -33.992188 19.078125 -35.265625 C 21.390625 -36.546875 23.9375 -37.1875 26.71875 -37.1875 C 29.09375 -37.1875 31.023438 -36.78125 32.515625 -35.96875 C 34.003906 -35.15625 35.164062 -34.070312 36 -32.71875 C 36.84375 -31.375 37.425781 -29.84375 37.75 -28.125 C 38.070312 -26.40625 38.234375 -24.632812 38.234375 -22.8125 Z M 38.234375 0 "/></g></g></g><g fill="#404040" fill-opacity="1"><g transform="translate(576.701551, 171.709696)"><g><path d="M 21.21875 0.703125 C 18.28125 0.703125 15.625 0.203125 13.25 -0.796875 C 10.882812 -1.796875 8.863281 -3.15625 7.1875 -4.875 C 5.507812 -6.601562 4.21875 -8.609375 3.3125 -10.890625 C 2.40625 -13.171875 1.953125 -15.566406 1.953125 -18.078125 C 1.953125 -20.679688 2.394531 -23.132812 3.28125 -25.4375 C 4.164062 -27.738281 5.441406 -29.757812 7.109375 -31.5 C 8.785156 -33.25 10.820312 -34.632812 13.21875 -35.65625 C 15.613281 -36.675781 18.300781 -37.1875 21.28125 -37.1875 C 24.257812 -37.1875 26.921875 -36.675781 29.265625 -35.65625 C 31.617188 -34.632812 33.617188 -33.257812 35.265625 -31.53125 C 36.921875 -29.8125 38.175781 -27.8125 39.03125 -25.53125 C 39.894531 -23.257812 40.328125 -20.890625 40.328125 -18.421875 C 40.328125 -17.816406 40.316406 -17.234375 40.296875 -16.671875 C 40.273438 -16.117188 40.21875 -15.65625 40.125 -15.28125 L 11.859375 -15.28125 C 12.003906 -13.84375 12.351562 -12.5625 12.90625 -11.4375 C 13.46875 -10.320312 14.191406 -9.367188 15.078125 -8.578125 C 15.960938 -7.785156 16.960938 -7.179688 18.078125 -6.765625 C 19.191406 -6.347656 20.351562 -6.140625 21.5625 -6.140625 C 23.425781 -6.140625 25.179688 -6.59375 26.828125 -7.5 C 28.484375 -8.40625 29.613281 -9.601562 30.21875 -11.09375 L 38.234375 -8.859375 C 36.890625 -6.066406 34.738281 -3.773438 31.78125 -1.984375 C 28.832031 -0.191406 25.3125 0.703125 21.21875 0.703125 Z M 30.703125 -21.359375 C 30.472656 -24.097656 29.460938 -26.289062 27.671875 -27.9375 C 25.878906 -29.59375 23.703125 -30.421875 21.140625 -30.421875 C 19.890625 -30.421875 18.71875 -30.195312 17.625 -29.75 C 16.53125 -29.3125 15.5625 -28.695312 14.71875 -27.90625 C 13.882812 -27.113281 13.195312 -26.160156 12.65625 -25.046875 C 12.125 -23.929688 11.8125 -22.703125 11.71875 -21.359375 Z M 30.703125 -21.359375 "/></g></g></g><g fill="#404040" fill-opacity="1"><g transform="translate(618.495782, 171.709696)"><g/></g></g><g fill="#404040" fill-opacity="1"><g transform="translate(635.24137, 171.709696)"><g><path d="M 5.15625 0 L 5.15625 -49.546875 L 38.453125 -49.546875 L 38.453125 -41.09375 L 14.796875 -41.09375 L 14.796875 -28.328125 L 34.46875 -28.328125 L 34.46875 -20.515625 L 14.796875 -20.515625 L 14.796875 0 Z M 5.15625 0 "/></g></g></g><g fill="#404040" fill-opacity="1"><g transform="translate(675.291292, 171.709696)"><g><path d="M 15.421875 0.703125 C 11.648438 0.703125 8.785156 -0.503906 6.828125 -2.921875 C 4.878906 -5.347656 3.90625 -8.929688 3.90625 -13.671875 L 3.90625 -36.5625 L 13.265625 -36.5625 L 13.265625 -15.703125 C 13.265625 -10.066406 15.285156 -7.25 19.328125 -7.25 C 21.140625 -7.25 22.894531 -7.796875 24.59375 -8.890625 C 26.289062 -9.984375 27.675781 -11.648438 28.75 -13.890625 L 28.75 -36.5625 L 38.09375 -36.5625 L 38.09375 -10.75 C 38.09375 -9.769531 38.265625 -9.070312 38.609375 -8.65625 C 38.960938 -8.238281 39.535156 -8.003906 40.328125 -7.953125 L 40.328125 0 C 39.398438 0.1875 38.617188 0.300781 37.984375 0.34375 C 37.359375 0.394531 36.789062 0.421875 36.28125 0.421875 C 34.613281 0.421875 33.253906 0.0351562 32.203125 -0.734375 C 31.160156 -1.503906 30.546875 -2.5625 30.359375 -3.90625 L 30.140625 -6.84375 C 28.515625 -4.332031 26.421875 -2.445312 23.859375 -1.1875 C 21.304688 0.0703125 18.492188 0.703125 15.421875 0.703125 Z M 15.421875 0.703125 "/></g></g></g><g fill="#404040" fill-opacity="1"><g transform="translate(718.411251, 171.709696)"><g><path d="M 26.171875 -1.890625 C 24.910156 -1.328125 23.375 -0.765625 21.5625 -0.203125 C 19.75 0.347656 17.84375 0.625 15.84375 0.625 C 14.539062 0.625 13.316406 0.460938 12.171875 0.140625 C 11.035156 -0.179688 10.035156 -0.703125 9.171875 -1.421875 C 8.316406 -2.148438 7.628906 -3.082031 7.109375 -4.21875 C 6.597656 -5.363281 6.34375 -6.75 6.34375 -8.375 L 6.34375 -29.375 L 1.53125 -29.375 L 1.53125 -36.5625 L 6.34375 -36.5625 L 6.34375 -48.421875 L 15.703125 -48.421875 L 15.703125 -36.5625 L 23.375 -36.5625 L 23.375 -29.375 L 15.703125 -29.375 L 15.703125 -11.515625 C 15.703125 -10.210938 16.035156 -9.289062 16.703125 -8.75 C 17.378906 -8.21875 18.207031 -7.953125 19.1875 -7.953125 C 20.164062 -7.953125 21.117188 -8.113281 22.046875 -8.4375 C 22.984375 -8.769531 23.726562 -9.050781 24.28125 -9.28125 Z M 26.171875 -1.890625 "/></g></g></g><g fill="#404040" fill-opacity="1"><g transform="translate(745.204248, 171.709696)"><g><path d="M 15.421875 0.703125 C 11.648438 0.703125 8.785156 -0.503906 6.828125 -2.921875 C 4.878906 -5.347656 3.90625 -8.929688 3.90625 -13.671875 L 3.90625 -36.5625 L 13.265625 -36.5625 L 13.265625 -15.703125 C 13.265625 -10.066406 15.285156 -7.25 19.328125 -7.25 C 21.140625 -7.25 22.894531 -7.796875 24.59375 -8.890625 C 26.289062 -9.984375 27.675781 -11.648438 28.75 -13.890625 L 28.75 -36.5625 L 38.09375 -36.5625 L 38.09375 -10.75 C 38.09375 -9.769531 38.265625 -9.070312 38.609375 -8.65625 C 38.960938 -8.238281 39.535156 -8.003906 40.328125 -7.953125 L 40.328125 0 C 39.398438 0.1875 38.617188 0.300781 37.984375 0.34375 C 37.359375 0.394531 36.789062 0.421875 36.28125 0.421875 C 34.613281 0.421875 33.253906 0.0351562 32.203125 -0.734375 C 31.160156 -1.503906 30.546875 -2.5625 30.359375 -3.90625 L 30.140625 -6.84375 C 28.515625 -4.332031 26.421875 -2.445312 23.859375 -1.1875 C 21.304688 0.0703125 18.492188 0.703125 15.421875 0.703125 Z M 15.421875 0.703125 "/></g></g></g><g fill="#404040" fill-opacity="1"><g transform="translate(788.324207, 171.709696)"><g><path d="M 26.03125 -28.46875 C 23.1875 -28.425781 20.648438 -27.878906 18.421875 -26.828125 C 16.191406 -25.785156 14.585938 -24.21875 13.609375 -22.125 L 13.609375 0 L 4.25 0 L 4.25 -36.5625 L 12.84375 -36.5625 L 12.84375 -28.75 C 13.488281 -30.007812 14.253906 -31.140625 15.140625 -32.140625 C 16.023438 -33.140625 16.976562 -34.007812 18 -34.75 C 19.019531 -35.5 20.050781 -36.066406 21.09375 -36.453125 C 22.144531 -36.847656 23.160156 -37.046875 24.140625 -37.046875 C 24.648438 -37.046875 25.03125 -37.046875 25.28125 -37.046875 C 25.539062 -37.046875 25.789062 -37.023438 26.03125 -36.984375 Z M 26.03125 -28.46875 "/></g></g></g><g fill="#404040" fill-opacity="1"><g transform="translate(815.326493, 171.709696)"><g><path d="M 21.21875 0.703125 C 18.28125 0.703125 15.625 0.203125 13.25 -0.796875 C 10.882812 -1.796875 8.863281 -3.15625 7.1875 -4.875 C 5.507812 -6.601562 4.21875 -8.609375 3.3125 -10.890625 C 2.40625 -13.171875 1.953125 -15.566406 1.953125 -18.078125 C 1.953125 -20.679688 2.394531 -23.132812 3.28125 -25.4375 C 4.164062 -27.738281 5.441406 -29.757812 7.109375 -31.5 C 8.785156 -33.25 10.820312 -34.632812 13.21875 -35.65625 C 15.613281 -36.675781 18.300781 -37.1875 21.28125 -37.1875 C 24.257812 -37.1875 26.921875 -36.675781 29.265625 -35.65625 C 31.617188 -34.632812 33.617188 -33.257812 35.265625 -31.53125 C 36.921875 -29.8125 38.175781 -27.8125 39.03125 -25.53125 C 39.894531 -23.257812 40.328125 -20.890625 40.328125 -18.421875 C 40.328125 -17.816406 40.316406 -17.234375 40.296875 -16.671875 C 40.273438 -16.117188 40.21875 -15.65625 40.125 -15.28125 L 11.859375 -15.28125 C 12.003906 -13.84375 12.351562 -12.5625 12.90625 -11.4375 C 13.46875 -10.320312 14.191406 -9.367188 15.078125 -8.578125 C 15.960938 -7.785156 16.960938 -7.179688 18.078125 -6.765625 C 19.191406 -6.347656 20.351562 -6.140625 21.5625 -6.140625 C 23.425781 -6.140625 25.179688 -6.59375 26.828125 -7.5 C 28.484375 -8.40625 29.613281 -9.601562 30.21875 -11.09375 L 38.234375 -8.859375 C 36.890625 -6.066406 34.738281 -3.773438 31.78125 -1.984375 C 28.832031 -0.191406 25.3125 0.703125 21.21875 0.703125 Z M 30.703125 -21.359375 C 30.472656 -24.097656 29.460938 -26.289062 27.671875 -27.9375 C 25.878906 -29.59375 23.703125 -30.421875 21.140625 -30.421875 C 19.890625 -30.421875 18.71875 -30.195312 17.625 -29.75 C 16.53125 -29.3125 15.5625 -28.695312 14.71875 -27.90625 C 13.882812 -27.113281 13.195312 -26.160156 12.65625 -25.046875 C 12.125 -23.929688 11.8125 -22.703125 11.71875 -21.359375 Z M 30.703125 -21.359375 "/></g></g></g><g fill="#404040" fill-opacity="1"><g transform="translate(214.972074, 306.236356)"><g><path d="M 2.9375 0 L 2.9375 -23.4375 L 12.640625 -23.4375 C 13.648438 -23.4375 14.578125 -23.21875 15.421875 -22.78125 C 16.273438 -22.351562 17.007812 -21.789062 17.625 -21.09375 C 18.238281 -20.40625 18.722656 -19.617188 19.078125 -18.734375 C 19.429688 -17.859375 19.609375 -16.972656 19.609375 -16.078125 C 19.609375 -15.109375 19.441406 -14.175781 19.109375 -13.28125 C 18.773438 -12.394531 18.3125 -11.609375 17.71875 -10.921875 C 17.125 -10.242188 16.414062 -9.691406 15.59375 -9.265625 C 14.769531 -8.847656 13.851562 -8.640625 12.84375 -8.640625 L 5.25 -8.640625 L 5.25 0 Z M 5.25 -10.6875 L 12.734375 -10.6875 C 13.421875 -10.6875 14.039062 -10.832031 14.59375 -11.125 C 15.15625 -11.425781 15.632812 -11.820312 16.03125 -12.3125 C 16.425781 -12.8125 16.734375 -13.382812 16.953125 -14.03125 C 17.179688 -14.6875 17.296875 -15.367188 17.296875 -16.078125 C 17.296875 -16.796875 17.164062 -17.476562 16.90625 -18.125 C 16.65625 -18.78125 16.316406 -19.347656 15.890625 -19.828125 C 15.460938 -20.316406 14.957031 -20.695312 14.375 -20.96875 C 13.789062 -21.25 13.179688 -21.390625 12.546875 -21.390625 L 5.25 -21.390625 Z M 5.25 -10.6875 "/></g></g></g><g fill="#404040" fill-opacity="1"><g transform="translate(235.498034, 306.236356)"><g><path d="M 9.796875 0.328125 C 8.546875 0.328125 7.398438 0.09375 6.359375 -0.375 C 5.328125 -0.851562 4.429688 -1.5 3.671875 -2.3125 C 2.921875 -3.125 2.332031 -4.066406 1.90625 -5.140625 C 1.488281 -6.222656 1.28125 -7.359375 1.28125 -8.546875 C 1.28125 -9.753906 1.492188 -10.894531 1.921875 -11.96875 C 2.359375 -13.050781 2.953125 -14 3.703125 -14.8125 C 4.460938 -15.625 5.359375 -16.269531 6.390625 -16.75 C 7.429688 -17.238281 8.566406 -17.484375 9.796875 -17.484375 C 11.035156 -17.484375 12.175781 -17.238281 13.21875 -16.75 C 14.257812 -16.269531 15.160156 -15.625 15.921875 -14.8125 C 16.679688 -14 17.273438 -13.050781 17.703125 -11.96875 C 18.128906 -10.894531 18.34375 -9.753906 18.34375 -8.546875 C 18.34375 -7.359375 18.132812 -6.222656 17.71875 -5.140625 C 17.300781 -4.066406 16.710938 -3.125 15.953125 -2.3125 C 15.191406 -1.5 14.289062 -0.851562 13.25 -0.375 C 12.207031 0.09375 11.054688 0.328125 9.796875 0.328125 Z M 3.5625 -8.515625 C 3.5625 -7.546875 3.722656 -6.648438 4.046875 -5.828125 C 4.378906 -5.003906 4.828125 -4.273438 5.390625 -3.640625 C 5.953125 -3.015625 6.613281 -2.523438 7.375 -2.171875 C 8.132812 -1.828125 8.941406 -1.65625 9.796875 -1.65625 C 10.660156 -1.65625 11.46875 -1.832031 12.21875 -2.1875 C 12.976562 -2.550781 13.644531 -3.046875 14.21875 -3.671875 C 14.789062 -4.304688 15.242188 -5.039062 15.578125 -5.875 C 15.910156 -6.707031 16.078125 -7.609375 16.078125 -8.578125 C 16.078125 -9.523438 15.910156 -10.421875 15.578125 -11.265625 C 15.242188 -12.117188 14.789062 -12.859375 14.21875 -13.484375 C 13.644531 -14.109375 12.976562 -14.601562 12.21875 -14.96875 C 11.46875 -15.332031 10.660156 -15.515625 9.796875 -15.515625 C 8.941406 -15.515625 8.140625 -15.332031 7.390625 -14.96875 C 6.640625 -14.601562 5.976562 -14.097656 5.40625 -13.453125 C 4.832031 -12.816406 4.378906 -12.078125 4.046875 -11.234375 C 3.722656 -10.390625 3.5625 -9.484375 3.5625 -8.515625 Z M 3.5625 -8.515625 "/></g></g></g><g fill="#404040" fill-opacity="1"><g transform="translate(255.132992, 306.236356)"><g><path d="M 10.71875 -0.828125 C 10.59375 -0.753906 10.398438 -0.660156 10.140625 -0.546875 C 9.890625 -0.441406 9.597656 -0.332031 9.265625 -0.21875 C 8.941406 -0.113281 8.570312 -0.0195312 8.15625 0.0625 C 7.738281 0.15625 7.296875 0.203125 6.828125 0.203125 C 6.347656 0.203125 5.882812 0.132812 5.4375 0 C 5 -0.132812 4.613281 -0.335938 4.28125 -0.609375 C 3.957031 -0.878906 3.695312 -1.222656 3.5 -1.640625 C 3.300781 -2.066406 3.203125 -2.554688 3.203125 -3.109375 L 3.203125 -15.40625 L 0.828125 -15.40625 L 0.828125 -17.1875 L 3.203125 -17.1875 L 3.203125 -23 L 5.4375 -23 L 5.4375 -17.1875 L 9.40625 -17.1875 L 9.40625 -15.40625 L 5.4375 -15.40625 L 5.4375 -3.734375 C 5.488281 -3.085938 5.71875 -2.613281 6.125 -2.3125 C 6.53125 -2.019531 7 -1.875 7.53125 -1.875 C 8.164062 -1.875 8.722656 -1.976562 9.203125 -2.1875 C 9.691406 -2.40625 10 -2.554688 10.125 -2.640625 Z M 10.71875 -0.828125 "/></g></g></g><g fill="#404040" fill-opacity="1"><g transform="translate(266.187972, 306.236356)"><g><path d="M 9.90625 0.328125 C 8.644531 0.328125 7.492188 0.09375 6.453125 -0.375 C 5.410156 -0.851562 4.503906 -1.503906 3.734375 -2.328125 C 2.960938 -3.148438 2.359375 -4.097656 1.921875 -5.171875 C 1.492188 -6.253906 1.28125 -7.410156 1.28125 -8.640625 C 1.28125 -9.859375 1.492188 -11 1.921875 -12.0625 C 2.359375 -13.125 2.953125 -14.054688 3.703125 -14.859375 C 4.460938 -15.671875 5.367188 -16.3125 6.421875 -16.78125 C 7.484375 -17.25 8.628906 -17.484375 9.859375 -17.484375 C 11.117188 -17.484375 12.269531 -17.25 13.3125 -16.78125 C 14.363281 -16.3125 15.257812 -15.664062 16 -14.84375 C 16.75 -14.03125 17.332031 -13.097656 17.75 -12.046875 C 18.164062 -10.992188 18.375 -9.867188 18.375 -8.671875 C 18.375 -8.503906 18.375 -8.332031 18.375 -8.15625 C 18.375 -7.976562 18.363281 -7.851562 18.34375 -7.78125 L 3.625 -7.78125 C 3.695312 -6.863281 3.910156 -6.015625 4.265625 -5.234375 C 4.628906 -4.453125 5.097656 -3.773438 5.671875 -3.203125 C 6.242188 -2.628906 6.898438 -2.179688 7.640625 -1.859375 C 8.378906 -1.546875 9.164062 -1.390625 10 -1.390625 C 10.550781 -1.390625 11.097656 -1.460938 11.640625 -1.609375 C 12.191406 -1.765625 12.695312 -1.972656 13.15625 -2.234375 C 13.625 -2.503906 14.046875 -2.832031 14.421875 -3.21875 C 14.796875 -3.601562 15.082031 -4.023438 15.28125 -4.484375 L 17.21875 -3.953125 C 16.957031 -3.316406 16.582031 -2.738281 16.09375 -2.21875 C 15.613281 -1.707031 15.054688 -1.257812 14.421875 -0.875 C 13.785156 -0.488281 13.082031 -0.191406 12.3125 0.015625 C 11.539062 0.222656 10.738281 0.328125 9.90625 0.328125 Z M 16.234375 -9.5 C 16.171875 -10.425781 15.957031 -11.269531 15.59375 -12.03125 C 15.226562 -12.789062 14.765625 -13.441406 14.203125 -13.984375 C 13.640625 -14.535156 12.988281 -14.960938 12.25 -15.265625 C 11.519531 -15.578125 10.738281 -15.734375 9.90625 -15.734375 C 9.0625 -15.734375 8.265625 -15.578125 7.515625 -15.265625 C 6.773438 -14.960938 6.125 -14.535156 5.5625 -13.984375 C 5 -13.441406 4.546875 -12.785156 4.203125 -12.015625 C 3.867188 -11.242188 3.664062 -10.40625 3.59375 -9.5 Z M 16.234375 -9.5 "/></g></g></g><g fill="#404040" fill-opacity="1"><g transform="translate(285.558926, 306.236356)"><g><path d="M 16.921875 0 L 14.6875 0 L 14.6875 -9.609375 C 14.6875 -11.648438 14.382812 -13.128906 13.78125 -14.046875 C 13.175781 -14.972656 12.242188 -15.4375 10.984375 -15.4375 C 10.328125 -15.4375 9.664062 -15.316406 9 -15.078125 C 8.34375 -14.835938 7.734375 -14.492188 7.171875 -14.046875 C 6.617188 -13.609375 6.117188 -13.085938 5.671875 -12.484375 C 5.234375 -11.878906 4.914062 -11.226562 4.71875 -10.53125 L 4.71875 0 L 2.46875 0 L 2.46875 -17.1875 L 4.515625 -17.1875 L 4.515625 -13.296875 C 5.222656 -14.554688 6.226562 -15.566406 7.53125 -16.328125 C 8.84375 -17.097656 10.269531 -17.484375 11.8125 -17.484375 C 12.757812 -17.484375 13.5625 -17.304688 14.21875 -16.953125 C 14.882812 -16.609375 15.414062 -16.113281 15.8125 -15.46875 C 16.207031 -14.832031 16.488281 -14.050781 16.65625 -13.125 C 16.832031 -12.207031 16.921875 -11.1875 16.921875 -10.0625 Z M 16.921875 0 "/></g></g></g><g fill="#404040" fill-opacity="1"><g transform="translate(304.797884, 306.236356)"><g><path d="M 1.28125 -8.640625 C 1.28125 -9.859375 1.488281 -11.003906 1.90625 -12.078125 C 2.332031 -13.148438 2.921875 -14.085938 3.671875 -14.890625 C 4.429688 -15.703125 5.335938 -16.335938 6.390625 -16.796875 C 7.453125 -17.253906 8.625 -17.484375 9.90625 -17.484375 C 11.53125 -17.484375 12.945312 -17.113281 14.15625 -16.375 C 15.363281 -15.644531 16.273438 -14.648438 16.890625 -13.390625 L 14.71875 -12.703125 C 14.226562 -13.585938 13.550781 -14.273438 12.6875 -14.765625 C 11.820312 -15.265625 10.859375 -15.515625 9.796875 -15.515625 C 8.921875 -15.515625 8.101562 -15.335938 7.34375 -14.984375 C 6.582031 -14.628906 5.921875 -14.148438 5.359375 -13.546875 C 4.796875 -12.941406 4.351562 -12.21875 4.03125 -11.375 C 3.71875 -10.539062 3.5625 -9.628906 3.5625 -8.640625 C 3.5625 -7.671875 3.722656 -6.757812 4.046875 -5.90625 C 4.378906 -5.050781 4.832031 -4.304688 5.40625 -3.671875 C 5.976562 -3.046875 6.644531 -2.550781 7.40625 -2.1875 C 8.164062 -1.832031 8.972656 -1.65625 9.828125 -1.65625 C 10.378906 -1.65625 10.925781 -1.726562 11.46875 -1.875 C 12.007812 -2.03125 12.507812 -2.242188 12.96875 -2.515625 C 13.425781 -2.796875 13.820312 -3.113281 14.15625 -3.46875 C 14.488281 -3.820312 14.71875 -4.195312 14.84375 -4.59375 L 17.0625 -3.921875 C 16.820312 -3.304688 16.46875 -2.738281 16 -2.21875 C 15.539062 -1.707031 15 -1.257812 14.375 -0.875 C 13.75 -0.488281 13.054688 -0.191406 12.296875 0.015625 C 11.535156 0.222656 10.75 0.328125 9.9375 0.328125 C 8.675781 0.328125 7.519531 0.09375 6.46875 -0.375 C 5.414062 -0.851562 4.503906 -1.503906 3.734375 -2.328125 C 2.960938 -3.148438 2.359375 -4.097656 1.921875 -5.171875 C 1.492188 -6.253906 1.28125 -7.410156 1.28125 -8.640625 Z M 1.28125 -8.640625 "/></g></g></g><g fill="#404040" fill-opacity="1"><g transform="translate(322.914841, 306.236356)"><g><path d="M 2.46875 0 L 2.46875 -17.1875 L 4.71875 -17.1875 L 4.71875 0 Z M 2.46875 -20.796875 L 2.46875 -24.09375 L 4.71875 -24.09375 L 4.71875 -20.796875 Z M 2.46875 -20.796875 "/></g></g></g><g fill="#404040" fill-opacity="1"><g transform="translate(330.108825, 306.236356)"><g><path d="M 6.796875 0.328125 C 5.984375 0.328125 5.226562 0.191406 4.53125 -0.078125 C 3.84375 -0.359375 3.238281 -0.738281 2.71875 -1.21875 C 2.207031 -1.707031 1.804688 -2.273438 1.515625 -2.921875 C 1.234375 -3.566406 1.09375 -4.265625 1.09375 -5.015625 C 1.09375 -5.765625 1.265625 -6.457031 1.609375 -7.09375 C 1.960938 -7.726562 2.457031 -8.273438 3.09375 -8.734375 C 3.738281 -9.203125 4.5 -9.5625 5.375 -9.8125 C 6.257812 -10.070312 7.226562 -10.203125 8.28125 -10.203125 C 9.164062 -10.203125 10.054688 -10.125 10.953125 -9.96875 C 11.859375 -9.8125 12.660156 -9.59375 13.359375 -9.3125 L 13.359375 -10.859375 C 13.359375 -12.378906 12.929688 -13.582031 12.078125 -14.46875 C 11.222656 -15.363281 10.035156 -15.8125 8.515625 -15.8125 C 7.628906 -15.8125 6.722656 -15.632812 5.796875 -15.28125 C 4.878906 -14.925781 3.945312 -14.421875 3 -13.765625 L 2.21875 -15.25 C 4.4375 -16.738281 6.585938 -17.484375 8.671875 -17.484375 C 10.828125 -17.484375 12.519531 -16.878906 13.75 -15.671875 C 14.988281 -14.460938 15.609375 -12.789062 15.609375 -10.65625 L 15.609375 -2.90625 C 15.609375 -2.289062 15.882812 -1.984375 16.4375 -1.984375 L 16.4375 0 C 16.0625 0.0625 15.773438 0.09375 15.578125 0.09375 C 15.003906 0.09375 14.554688 -0.046875 14.234375 -0.328125 C 13.921875 -0.617188 13.753906 -1.015625 13.734375 -1.515625 L 13.65625 -2.875 C 12.863281 -1.832031 11.867188 -1.035156 10.671875 -0.484375 C 9.472656 0.0546875 8.179688 0.328125 6.796875 0.328125 Z M 7.328125 -1.390625 C 8.492188 -1.390625 9.566406 -1.609375 10.546875 -2.046875 C 11.523438 -2.484375 12.265625 -3.066406 12.765625 -3.796875 C 12.960938 -3.992188 13.109375 -4.207031 13.203125 -4.4375 C 13.304688 -4.664062 13.359375 -4.878906 13.359375 -5.078125 L 13.359375 -7.890625 C 12.617188 -8.171875 11.84375 -8.390625 11.03125 -8.546875 C 10.226562 -8.703125 9.410156 -8.78125 8.578125 -8.78125 C 6.992188 -8.78125 5.707031 -8.445312 4.71875 -7.78125 C 3.726562 -7.125 3.234375 -6.257812 3.234375 -5.1875 C 3.234375 -4.65625 3.335938 -4.15625 3.546875 -3.6875 C 3.753906 -3.226562 4.039062 -2.828125 4.40625 -2.484375 C 4.769531 -2.148438 5.203125 -1.882812 5.703125 -1.6875 C 6.210938 -1.488281 6.753906 -1.390625 7.328125 -1.390625 Z M 7.328125 -1.390625 "/></g></g></g><g fill="#404040" fill-opacity="1"><g transform="translate(348.093786, 306.236356)"><g><path d="M 28.046875 0 L 25.8125 0 L 25.8125 -9.609375 C 25.8125 -11.609375 25.488281 -13.078125 24.84375 -14.015625 C 24.207031 -14.960938 23.265625 -15.4375 22.015625 -15.4375 C 21.347656 -15.4375 20.722656 -15.316406 20.140625 -15.078125 C 19.554688 -14.835938 19.015625 -14.492188 18.515625 -14.046875 C 18.023438 -13.609375 17.59375 -13.085938 17.21875 -12.484375 C 16.851562 -11.878906 16.570312 -11.21875 16.375 -10.5 L 16.375 0 L 14.125 0 L 14.125 -9.609375 C 14.125 -11.648438 13.816406 -13.128906 13.203125 -14.046875 C 12.585938 -14.972656 11.640625 -15.4375 10.359375 -15.4375 C 9.066406 -15.4375 7.910156 -14.984375 6.890625 -14.078125 C 5.878906 -13.179688 5.15625 -12 4.71875 -10.53125 L 4.71875 0 L 2.46875 0 L 2.46875 -17.1875 L 4.515625 -17.1875 L 4.515625 -13.296875 C 5.222656 -14.617188 6.148438 -15.644531 7.296875 -16.375 C 8.441406 -17.113281 9.707031 -17.484375 11.09375 -17.484375 C 12.539062 -17.484375 13.695312 -17.078125 14.5625 -16.265625 C 15.4375 -15.453125 15.972656 -14.382812 16.171875 -13.0625 C 17.773438 -16.007812 19.984375 -17.484375 22.796875 -17.484375 C 23.765625 -17.484375 24.582031 -17.304688 25.25 -16.953125 C 25.925781 -16.609375 26.46875 -16.109375 26.875 -15.453125 C 27.28125 -14.804688 27.578125 -14.023438 27.765625 -13.109375 C 27.953125 -12.203125 28.046875 -11.1875 28.046875 -10.0625 Z M 28.046875 0 "/></g></g></g><g fill="#404040" fill-opacity="1"><g transform="translate(378.420717, 306.236356)"><g><path d="M 9.796875 0.328125 C 8.546875 0.328125 7.398438 0.09375 6.359375 -0.375 C 5.328125 -0.851562 4.429688 -1.5 3.671875 -2.3125 C 2.921875 -3.125 2.332031 -4.066406 1.90625 -5.140625 C 1.488281 -6.222656 1.28125 -7.359375 1.28125 -8.546875 C 1.28125 -9.753906 1.492188 -10.894531 1.921875 -11.96875 C 2.359375 -13.050781 2.953125 -14 3.703125 -14.8125 C 4.460938 -15.625 5.359375 -16.269531 6.390625 -16.75 C 7.429688 -17.238281 8.566406 -17.484375 9.796875 -17.484375 C 11.035156 -17.484375 12.175781 -17.238281 13.21875 -16.75 C 14.257812 -16.269531 15.160156 -15.625 15.921875 -14.8125 C 16.679688 -14 17.273438 -13.050781 17.703125 -11.96875 C 18.128906 -10.894531 18.34375 -9.753906 18.34375 -8.546875 C 18.34375 -7.359375 18.132812 -6.222656 17.71875 -5.140625 C 17.300781 -4.066406 16.710938 -3.125 15.953125 -2.3125 C 15.191406 -1.5 14.289062 -0.851562 13.25 -0.375 C 12.207031 0.09375 11.054688 0.328125 9.796875 0.328125 Z M 3.5625 -8.515625 C 3.5625 -7.546875 3.722656 -6.648438 4.046875 -5.828125 C 4.378906 -5.003906 4.828125 -4.273438 5.390625 -3.640625 C 5.953125 -3.015625 6.613281 -2.523438 7.375 -2.171875 C 8.132812 -1.828125 8.941406 -1.65625 9.796875 -1.65625 C 10.660156 -1.65625 11.46875 -1.832031 12.21875 -2.1875 C 12.976562 -2.550781 13.644531 -3.046875 14.21875 -3.671875 C 14.789062 -4.304688 15.242188 -5.039062 15.578125 -5.875 C 15.910156 -6.707031 16.078125 -7.609375 16.078125 -8.578125 C 16.078125 -9.523438 15.910156 -10.421875 15.578125 -11.265625 C 15.242188 -12.117188 14.789062 -12.859375 14.21875 -13.484375 C 13.644531 -14.109375 12.976562 -14.601562 12.21875 -14.96875 C 11.46875 -15.332031 10.660156 -15.515625 9.796875 -15.515625 C 8.941406 -15.515625 8.140625 -15.332031 7.390625 -14.96875 C 6.640625 -14.601562 5.976562 -14.097656 5.40625 -13.453125 C 4.832031 -12.816406 4.378906 -12.078125 4.046875 -11.234375 C 3.722656 -10.390625 3.5625 -9.484375 3.5625 -8.515625 Z M 3.5625 -8.515625 "/></g></g></g><g fill="#404040" fill-opacity="1"><g transform="translate(398.055675, 306.236356)"><g><path d="M 8.1875 0.328125 C 6.84375 0.328125 5.53125 0.109375 4.25 -0.328125 C 2.976562 -0.765625 1.878906 -1.40625 0.953125 -2.25 L 1.984375 -3.765625 C 2.953125 -2.972656 3.9375 -2.378906 4.9375 -1.984375 C 5.9375 -1.585938 7.007812 -1.390625 8.15625 -1.390625 C 9.539062 -1.390625 10.644531 -1.664062 11.46875 -2.21875 C 12.289062 -2.78125 12.703125 -3.582031 12.703125 -4.625 C 12.703125 -5.101562 12.59375 -5.5 12.375 -5.8125 C 12.15625 -6.132812 11.832031 -6.414062 11.40625 -6.65625 C 10.976562 -6.90625 10.4375 -7.125 9.78125 -7.3125 C 9.132812 -7.5 8.382812 -7.691406 7.53125 -7.890625 C 6.53125 -8.128906 5.664062 -8.367188 4.9375 -8.609375 C 4.21875 -8.847656 3.617188 -9.125 3.140625 -9.4375 C 2.671875 -9.75 2.320312 -10.128906 2.09375 -10.578125 C 1.863281 -11.023438 1.75 -11.59375 1.75 -12.28125 C 1.75 -13.132812 1.914062 -13.890625 2.25 -14.546875 C 2.59375 -15.210938 3.054688 -15.757812 3.640625 -16.1875 C 4.222656 -16.613281 4.90625 -16.9375 5.6875 -17.15625 C 6.46875 -17.375 7.300781 -17.484375 8.1875 -17.484375 C 9.5 -17.484375 10.691406 -17.269531 11.765625 -16.84375 C 12.847656 -16.414062 13.722656 -15.847656 14.390625 -15.140625 L 13.296875 -13.828125 C 12.660156 -14.484375 11.882812 -14.976562 10.96875 -15.3125 C 10.0625 -15.644531 9.113281 -15.8125 8.125 -15.8125 C 7.53125 -15.8125 6.976562 -15.75 6.46875 -15.625 C 5.957031 -15.5 5.507812 -15.304688 5.125 -15.046875 C 4.738281 -14.785156 4.4375 -14.453125 4.21875 -14.046875 C 4 -13.640625 3.890625 -13.160156 3.890625 -12.609375 C 3.890625 -12.140625 3.96875 -11.765625 4.125 -11.484375 C 4.28125 -11.203125 4.53125 -10.953125 4.875 -10.734375 C 5.226562 -10.523438 5.675781 -10.335938 6.21875 -10.171875 C 6.757812 -10.015625 7.414062 -9.847656 8.1875 -9.671875 C 9.28125 -9.398438 10.242188 -9.132812 11.078125 -8.875 C 11.921875 -8.613281 12.625 -8.304688 13.1875 -7.953125 C 13.75 -7.597656 14.171875 -7.164062 14.453125 -6.65625 C 14.742188 -6.15625 14.890625 -5.539062 14.890625 -4.8125 C 14.890625 -3.226562 14.28125 -1.972656 13.0625 -1.046875 C 11.851562 -0.128906 10.226562 0.328125 8.1875 0.328125 Z M 8.1875 0.328125 "/></g></g></g><g fill="#404040" fill-opacity="1"><g transform="translate(414.126645, 306.236356)"><g/></g></g><g fill="#404040" fill-opacity="1"><g transform="translate(422.541622, 306.236356)"><g><path d="M 10.71875 -0.828125 C 10.59375 -0.753906 10.398438 -0.660156 10.140625 -0.546875 C 9.890625 -0.441406 9.597656 -0.332031 9.265625 -0.21875 C 8.941406 -0.113281 8.570312 -0.0195312 8.15625 0.0625 C 7.738281 0.15625 7.296875 0.203125 6.828125 0.203125 C 6.347656 0.203125 5.882812 0.132812 5.4375 0 C 5 -0.132812 4.613281 -0.335938 4.28125 -0.609375 C 3.957031 -0.878906 3.695312 -1.222656 3.5 -1.640625 C 3.300781 -2.066406 3.203125 -2.554688 3.203125 -3.109375 L 3.203125 -15.40625 L 0.828125 -15.40625 L 0.828125 -17.1875 L 3.203125 -17.1875 L 3.203125 -23 L 5.4375 -23 L 5.4375 -17.1875 L 9.40625 -17.1875 L 9.40625 -15.40625 L 5.4375 -15.40625 L 5.4375 -3.734375 C 5.488281 -3.085938 5.71875 -2.613281 6.125 -2.3125 C 6.53125 -2.019531 7 -1.875 7.53125 -1.875 C 8.164062 -1.875 8.722656 -1.976562 9.203125 -2.1875 C 9.691406 -2.40625 10 -2.554688 10.125 -2.640625 Z M 10.71875 -0.828125 "/></g></g></g><g fill="#404040" fill-opacity="1"><g transform="translate(433.596591, 306.236356)"><g><path d="M 7.859375 0.328125 C 5.984375 0.328125 4.585938 -0.289062 3.671875 -1.53125 C 2.765625 -2.78125 2.3125 -4.632812 2.3125 -7.09375 L 2.3125 -17.1875 L 4.546875 -17.1875 L 4.546875 -7.484375 C 4.546875 -3.597656 5.878906 -1.65625 8.546875 -1.65625 C 9.203125 -1.65625 9.847656 -1.765625 10.484375 -1.984375 C 11.128906 -2.203125 11.71875 -2.519531 12.25 -2.9375 C 12.789062 -3.351562 13.273438 -3.847656 13.703125 -4.421875 C 14.140625 -4.992188 14.488281 -5.644531 14.75 -6.375 L 14.75 -17.1875 L 17 -17.1875 L 17 -2.90625 C 17 -2.289062 17.257812 -1.984375 17.78125 -1.984375 L 17.78125 0 C 17.519531 0.0390625 17.304688 0.0625 17.140625 0.0625 C 16.972656 0.0625 16.859375 0.0625 16.796875 0.0625 C 16.265625 0.0390625 15.832031 -0.140625 15.5 -0.484375 C 15.175781 -0.835938 15.015625 -1.3125 15.015625 -1.90625 L 15.015625 -3.890625 C 14.265625 -2.546875 13.242188 -1.503906 11.953125 -0.765625 C 10.671875 -0.0351562 9.304688 0.328125 7.859375 0.328125 Z M 7.859375 0.328125 "/></g></g></g><g fill="#404040" fill-opacity="1"><g transform="translate(453.198532, 306.236356)"><g/></g></g><g fill="#404040" fill-opacity="1"><g transform="translate(461.613509, 306.236356)"><g><path d="M 9.796875 0.328125 C 8.546875 0.328125 7.398438 0.09375 6.359375 -0.375 C 5.328125 -0.851562 4.429688 -1.5 3.671875 -2.3125 C 2.921875 -3.125 2.332031 -4.066406 1.90625 -5.140625 C 1.488281 -6.222656 1.28125 -7.359375 1.28125 -8.546875 C 1.28125 -9.753906 1.492188 -10.894531 1.921875 -11.96875 C 2.359375 -13.050781 2.953125 -14 3.703125 -14.8125 C 4.460938 -15.625 5.359375 -16.269531 6.390625 -16.75 C 7.429688 -17.238281 8.566406 -17.484375 9.796875 -17.484375 C 11.035156 -17.484375 12.175781 -17.238281 13.21875 -16.75 C 14.257812 -16.269531 15.160156 -15.625 15.921875 -14.8125 C 16.679688 -14 17.273438 -13.050781 17.703125 -11.96875 C 18.128906 -10.894531 18.34375 -9.753906 18.34375 -8.546875 C 18.34375 -7.359375 18.132812 -6.222656 17.71875 -5.140625 C 17.300781 -4.066406 16.710938 -3.125 15.953125 -2.3125 C 15.191406 -1.5 14.289062 -0.851562 13.25 -0.375 C 12.207031 0.09375 11.054688 0.328125 9.796875 0.328125 Z M 3.5625 -8.515625 C 3.5625 -7.546875 3.722656 -6.648438 4.046875 -5.828125 C 4.378906 -5.003906 4.828125 -4.273438 5.390625 -3.640625 C 5.953125 -3.015625 6.613281 -2.523438 7.375 -2.171875 C 8.132812 -1.828125 8.941406 -1.65625 9.796875 -1.65625 C 10.660156 -1.65625 11.46875 -1.832031 12.21875 -2.1875 C 12.976562 -2.550781 13.644531 -3.046875 14.21875 -3.671875 C 14.789062 -4.304688 15.242188 -5.039062 15.578125 -5.875 C 15.910156 -6.707031 16.078125 -7.609375 16.078125 -8.578125 C 16.078125 -9.523438 15.910156 -10.421875 15.578125 -11.265625 C 15.242188 -12.117188 14.789062 -12.859375 14.21875 -13.484375 C 13.644531 -14.109375 12.976562 -14.601562 12.21875 -14.96875 C 11.46875 -15.332031 10.660156 -15.515625 9.796875 -15.515625 C 8.941406 -15.515625 8.140625 -15.332031 7.390625 -14.96875 C 6.640625 -14.601562 5.976562 -14.097656 5.40625 -13.453125 C 4.832031 -12.816406 4.378906 -12.078125 4.046875 -11.234375 C 3.722656 -10.390625 3.5625 -9.484375 3.5625 -8.515625 Z M 3.5625 -8.515625 "/></g></g></g><g fill="#404040" fill-opacity="1"><g transform="translate(481.248456, 306.236356)"><g><path d="M 11.0625 -15.21875 C 9.539062 -15.164062 8.21875 -14.742188 7.09375 -13.953125 C 5.96875 -13.160156 5.175781 -12.070312 4.71875 -10.6875 L 4.71875 0 L 2.46875 0 L 2.46875 -17.1875 L 4.59375 -17.1875 L 4.59375 -13.0625 C 5.226562 -14.382812 6.082031 -15.421875 7.15625 -16.171875 C 8.238281 -16.921875 9.394531 -17.296875 10.625 -17.296875 C 10.800781 -17.296875 10.945312 -17.285156 11.0625 -17.265625 Z M 11.0625 -15.21875 "/></g></g></g><g fill="#404040" fill-opacity="1"><g transform="translate(492.831432, 306.236356)"><g><path d="M 9.375 0.234375 C 8.1875 0.234375 7.101562 -0.0078125 6.125 -0.5 C 5.144531 -1 4.296875 -1.65625 3.578125 -2.46875 C 2.867188 -3.289062 2.3125 -4.226562 1.90625 -5.28125 C 1.507812 -6.332031 1.3125 -7.421875 1.3125 -8.546875 C 1.3125 -9.734375 1.503906 -10.867188 1.890625 -11.953125 C 2.273438 -13.046875 2.820312 -14 3.53125 -14.8125 C 4.238281 -15.625 5.082031 -16.269531 6.0625 -16.75 C 7.039062 -17.238281 8.125 -17.484375 9.3125 -17.484375 C 10.78125 -17.484375 12.050781 -17.113281 13.125 -16.375 C 14.207031 -15.644531 15.132812 -14.71875 15.90625 -13.59375 L 15.90625 -17.1875 L 17.921875 -17.1875 L 17.921875 0.0625 C 17.921875 1.25 17.691406 2.300781 17.234375 3.21875 C 16.785156 4.132812 16.179688 4.898438 15.421875 5.515625 C 14.660156 6.128906 13.769531 6.585938 12.75 6.890625 C 11.726562 7.203125 10.644531 7.359375 9.5 7.359375 C 7.519531 7.359375 5.925781 7.003906 4.71875 6.296875 C 3.507812 5.597656 2.53125 4.65625 1.78125 3.46875 L 3.171875 2.375 C 3.847656 3.476562 4.75 4.285156 5.875 4.796875 C 7 5.316406 8.207031 5.578125 9.5 5.578125 C 10.34375 5.578125 11.132812 5.460938 11.875 5.234375 C 12.625 5.003906 13.28125 4.660156 13.84375 4.203125 C 14.40625 3.753906 14.847656 3.179688 15.171875 2.484375 C 15.503906 1.796875 15.671875 0.988281 15.671875 0.0625 L 15.671875 -3.328125 C 15.015625 -2.234375 14.113281 -1.363281 12.96875 -0.71875 C 11.820312 -0.0820312 10.625 0.234375 9.375 0.234375 Z M 10 -1.65625 C 10.65625 -1.65625 11.300781 -1.773438 11.9375 -2.015625 C 12.582031 -2.253906 13.160156 -2.578125 13.671875 -2.984375 C 14.191406 -3.390625 14.628906 -3.84375 14.984375 -4.34375 C 15.335938 -4.851562 15.566406 -5.375 15.671875 -5.90625 L 15.671875 -11.21875 C 15.429688 -11.832031 15.101562 -12.40625 14.6875 -12.9375 C 14.269531 -13.46875 13.796875 -13.914062 13.265625 -14.28125 C 12.734375 -14.65625 12.164062 -14.953125 11.5625 -15.171875 C 10.957031 -15.398438 10.347656 -15.515625 9.734375 -15.515625 C 8.765625 -15.515625 7.898438 -15.304688 7.140625 -14.890625 C 6.378906 -14.484375 5.734375 -13.953125 5.203125 -13.296875 C 4.679688 -12.640625 4.28125 -11.890625 4 -11.046875 C 3.726562 -10.210938 3.59375 -9.367188 3.59375 -8.515625 C 3.59375 -7.585938 3.757812 -6.707031 4.09375 -5.875 C 4.425781 -5.039062 4.882812 -4.304688 5.46875 -3.671875 C 6.050781 -3.046875 6.722656 -2.550781 7.484375 -2.1875 C 8.253906 -1.832031 9.09375 -1.65625 10 -1.65625 Z M 10 -1.65625 "/></g></g></g><g fill="#404040" fill-opacity="1"><g transform="translate(513.225397, 306.236356)"><g><path d="M 6.796875 0.328125 C 5.984375 0.328125 5.226562 0.191406 4.53125 -0.078125 C 3.84375 -0.359375 3.238281 -0.738281 2.71875 -1.21875 C 2.207031 -1.707031 1.804688 -2.273438 1.515625 -2.921875 C 1.234375 -3.566406 1.09375 -4.265625 1.09375 -5.015625 C 1.09375 -5.765625 1.265625 -6.457031 1.609375 -7.09375 C 1.960938 -7.726562 2.457031 -8.273438 3.09375 -8.734375 C 3.738281 -9.203125 4.5 -9.5625 5.375 -9.8125 C 6.257812 -10.070312 7.226562 -10.203125 8.28125 -10.203125 C 9.164062 -10.203125 10.054688 -10.125 10.953125 -9.96875 C 11.859375 -9.8125 12.660156 -9.59375 13.359375 -9.3125 L 13.359375 -10.859375 C 13.359375 -12.378906 12.929688 -13.582031 12.078125 -14.46875 C 11.222656 -15.363281 10.035156 -15.8125 8.515625 -15.8125 C 7.628906 -15.8125 6.722656 -15.632812 5.796875 -15.28125 C 4.878906 -14.925781 3.945312 -14.421875 3 -13.765625 L 2.21875 -15.25 C 4.4375 -16.738281 6.585938 -17.484375 8.671875 -17.484375 C 10.828125 -17.484375 12.519531 -16.878906 13.75 -15.671875 C 14.988281 -14.460938 15.609375 -12.789062 15.609375 -10.65625 L 15.609375 -2.90625 C 15.609375 -2.289062 15.882812 -1.984375 16.4375 -1.984375 L 16.4375 0 C 16.0625 0.0625 15.773438 0.09375 15.578125 0.09375 C 15.003906 0.09375 14.554688 -0.046875 14.234375 -0.328125 C 13.921875 -0.617188 13.753906 -1.015625 13.734375 -1.515625 L 13.65625 -2.875 C 12.863281 -1.832031 11.867188 -1.035156 10.671875 -0.484375 C 9.472656 0.0546875 8.179688 0.328125 6.796875 0.328125 Z M 7.328125 -1.390625 C 8.492188 -1.390625 9.566406 -1.609375 10.546875 -2.046875 C 11.523438 -2.484375 12.265625 -3.066406 12.765625 -3.796875 C 12.960938 -3.992188 13.109375 -4.207031 13.203125 -4.4375 C 13.304688 -4.664062 13.359375 -4.878906 13.359375 -5.078125 L 13.359375 -7.890625 C 12.617188 -8.171875 11.84375 -8.390625 11.03125 -8.546875 C 10.226562 -8.703125 9.410156 -8.78125 8.578125 -8.78125 C 6.992188 -8.78125 5.707031 -8.445312 4.71875 -7.78125 C 3.726562 -7.125 3.234375 -6.257812 3.234375 -5.1875 C 3.234375 -4.65625 3.335938 -4.15625 3.546875 -3.6875 C 3.753906 -3.226562 4.039062 -2.828125 4.40625 -2.484375 C 4.769531 -2.148438 5.203125 -1.882812 5.703125 -1.6875 C 6.210938 -1.488281 6.753906 -1.390625 7.328125 -1.390625 Z M 7.328125 -1.390625 "/></g></g></g><g fill="#404040" fill-opacity="1"><g transform="translate(531.210357, 306.236356)"><g><path d="M 16.921875 0 L 14.6875 0 L 14.6875 -9.609375 C 14.6875 -11.648438 14.382812 -13.128906 13.78125 -14.046875 C 13.175781 -14.972656 12.242188 -15.4375 10.984375 -15.4375 C 10.328125 -15.4375 9.664062 -15.316406 9 -15.078125 C 8.34375 -14.835938 7.734375 -14.492188 7.171875 -14.046875 C 6.617188 -13.609375 6.117188 -13.085938 5.671875 -12.484375 C 5.234375 -11.878906 4.914062 -11.226562 4.71875 -10.53125 L 4.71875 0 L 2.46875 0 L 2.46875 -17.1875 L 4.515625 -17.1875 L 4.515625 -13.296875 C 5.222656 -14.554688 6.226562 -15.566406 7.53125 -16.328125 C 8.84375 -17.097656 10.269531 -17.484375 11.8125 -17.484375 C 12.757812 -17.484375 13.5625 -17.304688 14.21875 -16.953125 C 14.882812 -16.609375 15.414062 -16.113281 15.8125 -15.46875 C 16.207031 -14.832031 16.488281 -14.050781 16.65625 -13.125 C 16.832031 -12.207031 16.921875 -11.1875 16.921875 -10.0625 Z M 16.921875 0 "/></g></g></g><g fill="#404040" fill-opacity="1"><g transform="translate(550.449315, 306.236356)"><g><path d="M 2.46875 0 L 2.46875 -17.1875 L 4.71875 -17.1875 L 4.71875 0 Z M 2.46875 -20.796875 L 2.46875 -24.09375 L 4.71875 -24.09375 L 4.71875 -20.796875 Z M 2.46875 -20.796875 "/></g></g></g><g fill="#404040" fill-opacity="1"><g transform="translate(557.643299, 306.236356)"><g><path d="M 1.015625 -1.515625 L 12.640625 -15.515625 L 1.28125 -15.515625 L 1.28125 -17.1875 L 15.078125 -17.1875 L 15.078125 -15.671875 L 3.5 -1.6875 L 15.046875 -1.6875 L 15.046875 0 L 1.015625 0 Z M 1.015625 -1.515625 "/></g></g></g><g fill="#404040" fill-opacity="1"><g transform="translate(573.879259, 306.236356)"><g><path d="M 6.796875 0.328125 C 5.984375 0.328125 5.226562 0.191406 4.53125 -0.078125 C 3.84375 -0.359375 3.238281 -0.738281 2.71875 -1.21875 C 2.207031 -1.707031 1.804688 -2.273438 1.515625 -2.921875 C 1.234375 -3.566406 1.09375 -4.265625 1.09375 -5.015625 C 1.09375 -5.765625 1.265625 -6.457031 1.609375 -7.09375 C 1.960938 -7.726562 2.457031 -8.273438 3.09375 -8.734375 C 3.738281 -9.203125 4.5 -9.5625 5.375 -9.8125 C 6.257812 -10.070312 7.226562 -10.203125 8.28125 -10.203125 C 9.164062 -10.203125 10.054688 -10.125 10.953125 -9.96875 C 11.859375 -9.8125 12.660156 -9.59375 13.359375 -9.3125 L 13.359375 -10.859375 C 13.359375 -12.378906 12.929688 -13.582031 12.078125 -14.46875 C 11.222656 -15.363281 10.035156 -15.8125 8.515625 -15.8125 C 7.628906 -15.8125 6.722656 -15.632812 5.796875 -15.28125 C 4.878906 -14.925781 3.945312 -14.421875 3 -13.765625 L 2.21875 -15.25 C 4.4375 -16.738281 6.585938 -17.484375 8.671875 -17.484375 C 10.828125 -17.484375 12.519531 -16.878906 13.75 -15.671875 C 14.988281 -14.460938 15.609375 -12.789062 15.609375 -10.65625 L 15.609375 -2.90625 C 15.609375 -2.289062 15.882812 -1.984375 16.4375 -1.984375 L 16.4375 0 C 16.0625 0.0625 15.773438 0.09375 15.578125 0.09375 C 15.003906 0.09375 14.554688 -0.046875 14.234375 -0.328125 C 13.921875 -0.617188 13.753906 -1.015625 13.734375 -1.515625 L 13.65625 -2.875 C 12.863281 -1.832031 11.867188 -1.035156 10.671875 -0.484375 C 9.472656 0.0546875 8.179688 0.328125 6.796875 0.328125 Z M 7.328125 -1.390625 C 8.492188 -1.390625 9.566406 -1.609375 10.546875 -2.046875 C 11.523438 -2.484375 12.265625 -3.066406 12.765625 -3.796875 C 12.960938 -3.992188 13.109375 -4.207031 13.203125 -4.4375 C 13.304688 -4.664062 13.359375 -4.878906 13.359375 -5.078125 L 13.359375 -7.890625 C 12.617188 -8.171875 11.84375 -8.390625 11.03125 -8.546875 C 10.226562 -8.703125 9.410156 -8.78125 8.578125 -8.78125 C 6.992188 -8.78125 5.707031 -8.445312 4.71875 -7.78125 C 3.726562 -7.125 3.234375 -6.257812 3.234375 -5.1875 C 3.234375 -4.65625 3.335938 -4.15625 3.546875 -3.6875 C 3.753906 -3.226562 4.039062 -2.828125 4.40625 -2.484375 C 4.769531 -2.148438 5.203125 -1.882812 5.703125 -1.6875 C 6.210938 -1.488281 6.753906 -1.390625 7.328125 -1.390625 Z M 7.328125 -1.390625 "/></g></g></g><g fill="#404040" fill-opacity="1"><g transform="translate(591.864219, 306.236356)"><g><path d="M 1.28125 -8.640625 C 1.28125 -9.859375 1.488281 -11.003906 1.90625 -12.078125 C 2.332031 -13.148438 2.921875 -14.085938 3.671875 -14.890625 C 4.429688 -15.703125 5.335938 -16.335938 6.390625 -16.796875 C 7.453125 -17.253906 8.625 -17.484375 9.90625 -17.484375 C 11.53125 -17.484375 12.945312 -17.113281 14.15625 -16.375 C 15.363281 -15.644531 16.273438 -14.648438 16.890625 -13.390625 L 14.71875 -12.703125 C 14.226562 -13.585938 13.550781 -14.273438 12.6875 -14.765625 C 11.820312 -15.265625 10.859375 -15.515625 9.796875 -15.515625 C 8.921875 -15.515625 8.101562 -15.335938 7.34375 -14.984375 C 6.582031 -14.628906 5.921875 -14.148438 5.359375 -13.546875 C 4.796875 -12.941406 4.351562 -12.21875 4.03125 -11.375 C 3.71875 -10.539062 3.5625 -9.628906 3.5625 -8.640625 C 3.5625 -7.671875 3.722656 -6.757812 4.046875 -5.90625 C 4.378906 -5.050781 4.832031 -4.304688 5.40625 -3.671875 C 5.976562 -3.046875 6.644531 -2.550781 7.40625 -2.1875 C 8.164062 -1.832031 8.972656 -1.65625 9.828125 -1.65625 C 10.378906 -1.65625 10.925781 -1.726562 11.46875 -1.875 C 12.007812 -2.03125 12.507812 -2.242188 12.96875 -2.515625 C 13.425781 -2.796875 13.820312 -3.113281 14.15625 -3.46875 C 14.488281 -3.820312 14.71875 -4.195312 14.84375 -4.59375 L 17.0625 -3.921875 C 16.820312 -3.304688 16.46875 -2.738281 16 -2.21875 C 15.539062 -1.707031 15 -1.257812 14.375 -0.875 C 13.75 -0.488281 13.054688 -0.191406 12.296875 0.015625 C 11.535156 0.222656 10.75 0.328125 9.9375 0.328125 C 8.675781 0.328125 7.519531 0.09375 6.46875 -0.375 C 5.414062 -0.851562 4.503906 -1.503906 3.734375 -2.328125 C 2.960938 -3.148438 2.359375 -4.097656 1.921875 -5.171875 C 1.492188 -6.253906 1.28125 -7.410156 1.28125 -8.640625 Z M 1.28125 -8.640625 "/></g></g></g><g fill="#404040" fill-opacity="1"><g transform="translate(609.981153, 306.236356)"><g><path d="M 2.46875 0 L 2.46875 -17.1875 L 4.71875 -17.1875 L 4.71875 0 Z M 2.46875 -20.796875 L 2.46875 -24.09375 L 4.71875 -24.09375 L 4.71875 -20.796875 Z M 2.46875 -20.796875 "/></g></g></g><g fill="#404040" fill-opacity="1"><g transform="translate(617.175137, 306.236356)"><g><path d="M 10 -20.453125 L 8.515625 -21.015625 L 10.46875 -24.09375 L 12.84375 -24.09375 Z M 9.796875 0.328125 C 8.546875 0.328125 7.398438 0.09375 6.359375 -0.375 C 5.328125 -0.851562 4.429688 -1.5 3.671875 -2.3125 C 2.921875 -3.125 2.332031 -4.066406 1.90625 -5.140625 C 1.488281 -6.222656 1.28125 -7.359375 1.28125 -8.546875 C 1.28125 -9.753906 1.492188 -10.894531 1.921875 -11.96875 C 2.359375 -13.050781 2.953125 -14 3.703125 -14.8125 C 4.460938 -15.625 5.359375 -16.269531 6.390625 -16.75 C 7.429688 -17.238281 8.566406 -17.484375 9.796875 -17.484375 C 11.035156 -17.484375 12.175781 -17.238281 13.21875 -16.75 C 14.257812 -16.269531 15.160156 -15.625 15.921875 -14.8125 C 16.679688 -14 17.273438 -13.050781 17.703125 -11.96875 C 18.128906 -10.894531 18.34375 -9.753906 18.34375 -8.546875 C 18.34375 -7.359375 18.132812 -6.222656 17.71875 -5.140625 C 17.300781 -4.066406 16.710938 -3.125 15.953125 -2.3125 C 15.191406 -1.5 14.289062 -0.851562 13.25 -0.375 C 12.207031 0.09375 11.054688 0.328125 9.796875 0.328125 Z M 3.5625 -8.515625 C 3.5625 -7.546875 3.722656 -6.648438 4.046875 -5.828125 C 4.378906 -5.003906 4.828125 -4.273438 5.390625 -3.640625 C 5.953125 -3.015625 6.613281 -2.523438 7.375 -2.171875 C 8.132812 -1.828125 8.941406 -1.65625 9.796875 -1.65625 C 10.660156 -1.65625 11.46875 -1.832031 12.21875 -2.1875 C 12.976562 -2.550781 13.644531 -3.046875 14.21875 -3.671875 C 14.789062 -4.304688 15.242188 -5.039062 15.578125 -5.875 C 15.910156 -6.707031 16.078125 -7.609375 16.078125 -8.578125 C 16.078125 -9.523438 15.910156 -10.421875 15.578125 -11.265625 C 15.242188 -12.117188 14.789062 -12.859375 14.21875 -13.484375 C 13.644531 -14.109375 12.976562 -14.601562 12.21875 -14.96875 C 11.46875 -15.332031 10.660156 -15.515625 9.796875 -15.515625 C 8.941406 -15.515625 8.140625 -15.332031 7.390625 -14.96875 C 6.640625 -14.601562 5.976562 -14.097656 5.40625 -13.453125 C 4.832031 -12.816406 4.378906 -12.078125 4.046875 -11.234375 C 3.722656 -10.390625 3.5625 -9.484375 3.5625 -8.515625 Z M 3.5625 -8.515625 "/></g></g></g><g fill="#404040" fill-opacity="1"><g transform="translate(636.810084, 306.236356)"><g><path d="M 16.921875 0 L 14.6875 0 L 14.6875 -9.609375 C 14.6875 -11.648438 14.382812 -13.128906 13.78125 -14.046875 C 13.175781 -14.972656 12.242188 -15.4375 10.984375 -15.4375 C 10.328125 -15.4375 9.664062 -15.316406 9 -15.078125 C 8.34375 -14.835938 7.734375 -14.492188 7.171875 -14.046875 C 6.617188 -13.609375 6.117188 -13.085938 5.671875 -12.484375 C 5.234375 -11.878906 4.914062 -11.226562 4.71875 -10.53125 L 4.71875 0 L 2.46875 0 L 2.46875 -17.1875 L 4.515625 -17.1875 L 4.515625 -13.296875 C 5.222656 -14.554688 6.226562 -15.566406 7.53125 -16.328125 C 8.84375 -17.097656 10.269531 -17.484375 11.8125 -17.484375 C 12.757812 -17.484375 13.5625 -17.304688 14.21875 -16.953125 C 14.882812 -16.609375 15.414062 -16.113281 15.8125 -15.46875 C 16.207031 -14.832031 16.488281 -14.050781 16.65625 -13.125 C 16.832031 -12.207031 16.921875 -11.1875 16.921875 -10.0625 Z M 16.921875 0 "/></g></g></g><g fill="#404040" fill-opacity="1"><g transform="translate(656.049019, 306.236356)"><g/></g></g><g fill="#404040" fill-opacity="1"><g transform="translate(664.463996, 306.236356)"><g><path d="M 28.046875 0 L 25.8125 0 L 25.8125 -9.609375 C 25.8125 -11.609375 25.488281 -13.078125 24.84375 -14.015625 C 24.207031 -14.960938 23.265625 -15.4375 22.015625 -15.4375 C 21.347656 -15.4375 20.722656 -15.316406 20.140625 -15.078125 C 19.554688 -14.835938 19.015625 -14.492188 18.515625 -14.046875 C 18.023438 -13.609375 17.59375 -13.085938 17.21875 -12.484375 C 16.851562 -11.878906 16.570312 -11.21875 16.375 -10.5 L 16.375 0 L 14.125 0 L 14.125 -9.609375 C 14.125 -11.648438 13.816406 -13.128906 13.203125 -14.046875 C 12.585938 -14.972656 11.640625 -15.4375 10.359375 -15.4375 C 9.066406 -15.4375 7.910156 -14.984375 6.890625 -14.078125 C 5.878906 -13.179688 5.15625 -12 4.71875 -10.53125 L 4.71875 0 L 2.46875 0 L 2.46875 -17.1875 L 4.515625 -17.1875 L 4.515625 -13.296875 C 5.222656 -14.617188 6.148438 -15.644531 7.296875 -16.375 C 8.441406 -17.113281 9.707031 -17.484375 11.09375 -17.484375 C 12.539062 -17.484375 13.695312 -17.078125 14.5625 -16.265625 C 15.4375 -15.453125 15.972656 -14.382812 16.171875 -13.0625 C 17.773438 -16.007812 19.984375 -17.484375 22.796875 -17.484375 C 23.765625 -17.484375 24.582031 -17.304688 25.25 -16.953125 C 25.925781 -16.609375 26.46875 -16.109375 26.875 -15.453125 C 27.28125 -14.804688 27.578125 -14.023438 27.765625 -13.109375 C 27.953125 -12.203125 28.046875 -11.1875 28.046875 -10.0625 Z M 28.046875 0 "/></g></g></g><g fill="#404040" fill-opacity="1"><g transform="translate(694.790927, 306.236356)"><g><path d="M 9.90625 0.328125 C 8.644531 0.328125 7.492188 0.09375 6.453125 -0.375 C 5.410156 -0.851562 4.503906 -1.503906 3.734375 -2.328125 C 2.960938 -3.148438 2.359375 -4.097656 1.921875 -5.171875 C 1.492188 -6.253906 1.28125 -7.410156 1.28125 -8.640625 C 1.28125 -9.859375 1.492188 -11 1.921875 -12.0625 C 2.359375 -13.125 2.953125 -14.054688 3.703125 -14.859375 C 4.460938 -15.671875 5.367188 -16.3125 6.421875 -16.78125 C 7.484375 -17.25 8.628906 -17.484375 9.859375 -17.484375 C 11.117188 -17.484375 12.269531 -17.25 13.3125 -16.78125 C 14.363281 -16.3125 15.257812 -15.664062 16 -14.84375 C 16.75 -14.03125 17.332031 -13.097656 17.75 -12.046875 C 18.164062 -10.992188 18.375 -9.867188 18.375 -8.671875 C 18.375 -8.503906 18.375 -8.332031 18.375 -8.15625 C 18.375 -7.976562 18.363281 -7.851562 18.34375 -7.78125 L 3.625 -7.78125 C 3.695312 -6.863281 3.910156 -6.015625 4.265625 -5.234375 C 4.628906 -4.453125 5.097656 -3.773438 5.671875 -3.203125 C 6.242188 -2.628906 6.898438 -2.179688 7.640625 -1.859375 C 8.378906 -1.546875 9.164062 -1.390625 10 -1.390625 C 10.550781 -1.390625 11.097656 -1.460938 11.640625 -1.609375 C 12.191406 -1.765625 12.695312 -1.972656 13.15625 -2.234375 C 13.625 -2.503906 14.046875 -2.832031 14.421875 -3.21875 C 14.796875 -3.601562 15.082031 -4.023438 15.28125 -4.484375 L 17.21875 -3.953125 C 16.957031 -3.316406 16.582031 -2.738281 16.09375 -2.21875 C 15.613281 -1.707031 15.054688 -1.257812 14.421875 -0.875 C 13.785156 -0.488281 13.082031 -0.191406 12.3125 0.015625 C 11.539062 0.222656 10.738281 0.328125 9.90625 0.328125 Z M 16.234375 -9.5 C 16.171875 -10.425781 15.957031 -11.269531 15.59375 -12.03125 C 15.226562 -12.789062 14.765625 -13.441406 14.203125 -13.984375 C 13.640625 -14.535156 12.988281 -14.960938 12.25 -15.265625 C 11.519531 -15.578125 10.738281 -15.734375 9.90625 -15.734375 C 9.0625 -15.734375 8.265625 -15.578125 7.515625 -15.265625 C 6.773438 -14.960938 6.125 -14.535156 5.5625 -13.984375 C 5 -13.441406 4.546875 -12.785156 4.203125 -12.015625 C 3.867188 -11.242188 3.664062 -10.40625 3.59375 -9.5 Z M 16.234375 -9.5 "/></g></g></g><g fill="#404040" fill-opacity="1"><g transform="translate(714.161882, 306.236356)"><g><path d="M 9.53125 0.328125 C 8.34375 0.328125 7.242188 0.0820312 6.234375 -0.40625 C 5.222656 -0.90625 4.351562 -1.5625 3.625 -2.375 C 2.90625 -3.1875 2.335938 -4.125 1.921875 -5.1875 C 1.515625 -6.257812 1.3125 -7.378906 1.3125 -8.546875 C 1.3125 -9.753906 1.507812 -10.898438 1.90625 -11.984375 C 2.3125 -13.078125 2.859375 -14.03125 3.546875 -14.84375 C 4.242188 -15.664062 5.066406 -16.3125 6.015625 -16.78125 C 6.972656 -17.25 8.023438 -17.484375 9.171875 -17.484375 C 10.628906 -17.484375 11.914062 -17.101562 13.03125 -16.34375 C 14.15625 -15.59375 15.035156 -14.675781 15.671875 -13.59375 L 15.671875 -24.09375 L 17.921875 -24.09375 L 17.921875 -2.90625 C 17.921875 -2.289062 18.1875 -1.984375 18.71875 -1.984375 L 18.71875 0 C 18.382812 0.0625 18.117188 0.09375 17.921875 0.09375 C 17.390625 0.09375 16.925781 -0.0703125 16.53125 -0.40625 C 16.132812 -0.75 15.9375 -1.164062 15.9375 -1.65625 L 15.9375 -3.328125 C 15.257812 -2.210938 14.335938 -1.320312 13.171875 -0.65625 C 12.003906 0 10.789062 0.328125 9.53125 0.328125 Z M 10.03125 -1.65625 C 10.582031 -1.65625 11.171875 -1.765625 11.796875 -1.984375 C 12.421875 -2.203125 13.007812 -2.503906 13.5625 -2.890625 C 14.113281 -3.273438 14.582031 -3.722656 14.96875 -4.234375 C 15.351562 -4.753906 15.585938 -5.3125 15.671875 -5.90625 L 15.671875 -11.21875 C 15.453125 -11.8125 15.132812 -12.363281 14.71875 -12.875 C 14.300781 -13.394531 13.820312 -13.851562 13.28125 -14.25 C 12.738281 -14.644531 12.160156 -14.953125 11.546875 -15.171875 C 10.929688 -15.398438 10.328125 -15.515625 9.734375 -15.515625 C 8.804688 -15.515625 7.96875 -15.316406 7.21875 -14.921875 C 6.476562 -14.523438 5.835938 -14 5.296875 -13.34375 C 4.753906 -12.695312 4.335938 -11.953125 4.046875 -11.109375 C 3.765625 -10.273438 3.625 -9.421875 3.625 -8.546875 C 3.625 -7.617188 3.789062 -6.738281 4.125 -5.90625 C 4.457031 -5.070312 4.910156 -4.335938 5.484375 -3.703125 C 6.054688 -3.078125 6.726562 -2.578125 7.5 -2.203125 C 8.28125 -1.835938 9.125 -1.65625 10.03125 -1.65625 Z M 10.03125 -1.65625 "/></g></g></g><g fill="#404040" fill-opacity="1"><g transform="translate(734.687865, 306.236356)"><g><path d="M 2.46875 0 L 2.46875 -17.1875 L 4.71875 -17.1875 L 4.71875 0 Z M 2.46875 -20.796875 L 2.46875 -24.09375 L 4.71875 -24.09375 L 4.71875 -20.796875 Z M 2.46875 -20.796875 "/></g></g></g><g fill="#404040" fill-opacity="1"><g transform="translate(741.881849, 306.236356)"><g><path d="M 6.796875 0.328125 C 5.984375 0.328125 5.226562 0.191406 4.53125 -0.078125 C 3.84375 -0.359375 3.238281 -0.738281 2.71875 -1.21875 C 2.207031 -1.707031 1.804688 -2.273438 1.515625 -2.921875 C 1.234375 -3.566406 1.09375 -4.265625 1.09375 -5.015625 C 1.09375 -5.765625 1.265625 -6.457031 1.609375 -7.09375 C 1.960938 -7.726562 2.457031 -8.273438 3.09375 -8.734375 C 3.738281 -9.203125 4.5 -9.5625 5.375 -9.8125 C 6.257812 -10.070312 7.226562 -10.203125 8.28125 -10.203125 C 9.164062 -10.203125 10.054688 -10.125 10.953125 -9.96875 C 11.859375 -9.8125 12.660156 -9.59375 13.359375 -9.3125 L 13.359375 -10.859375 C 13.359375 -12.378906 12.929688 -13.582031 12.078125 -14.46875 C 11.222656 -15.363281 10.035156 -15.8125 8.515625 -15.8125 C 7.628906 -15.8125 6.722656 -15.632812 5.796875 -15.28125 C 4.878906 -14.925781 3.945312 -14.421875 3 -13.765625 L 2.21875 -15.25 C 4.4375 -16.738281 6.585938 -17.484375 8.671875 -17.484375 C 10.828125 -17.484375 12.519531 -16.878906 13.75 -15.671875 C 14.988281 -14.460938 15.609375 -12.789062 15.609375 -10.65625 L 15.609375 -2.90625 C 15.609375 -2.289062 15.882812 -1.984375 16.4375 -1.984375 L 16.4375 0 C 16.0625 0.0625 15.773438 0.09375 15.578125 0.09375 C 15.003906 0.09375 14.554688 -0.046875 14.234375 -0.328125 C 13.921875 -0.617188 13.753906 -1.015625 13.734375 -1.515625 L 13.65625 -2.875 C 12.863281 -1.832031 11.867188 -1.035156 10.671875 -0.484375 C 9.472656 0.0546875 8.179688 0.328125 6.796875 0.328125 Z M 7.328125 -1.390625 C 8.492188 -1.390625 9.566406 -1.609375 10.546875 -2.046875 C 11.523438 -2.484375 12.265625 -3.066406 12.765625 -3.796875 C 12.960938 -3.992188 13.109375 -4.207031 13.203125 -4.4375 C 13.304688 -4.664062 13.359375 -4.878906 13.359375 -5.078125 L 13.359375 -7.890625 C 12.617188 -8.171875 11.84375 -8.390625 11.03125 -8.546875 C 10.226562 -8.703125 9.410156 -8.78125 8.578125 -8.78125 C 6.992188 -8.78125 5.707031 -8.445312 4.71875 -7.78125 C 3.726562 -7.125 3.234375 -6.257812 3.234375 -5.1875 C 3.234375 -4.65625 3.335938 -4.15625 3.546875 -3.6875 C 3.753906 -3.226562 4.039062 -2.828125 4.40625 -2.484375 C 4.769531 -2.148438 5.203125 -1.882812 5.703125 -1.6875 C 6.210938 -1.488281 6.753906 -1.390625 7.328125 -1.390625 Z M 7.328125 -1.390625 "/></g></g></g><g fill="#404040" fill-opacity="1"><g transform="translate(759.866786, 306.236356)"><g><path d="M 16.921875 0 L 14.6875 0 L 14.6875 -9.609375 C 14.6875 -11.648438 14.382812 -13.128906 13.78125 -14.046875 C 13.175781 -14.972656 12.242188 -15.4375 10.984375 -15.4375 C 10.328125 -15.4375 9.664062 -15.316406 9 -15.078125 C 8.34375 -14.835938 7.734375 -14.492188 7.171875 -14.046875 C 6.617188 -13.609375 6.117188 -13.085938 5.671875 -12.484375 C 5.234375 -11.878906 4.914062 -11.226562 4.71875 -10.53125 L 4.71875 0 L 2.46875 0 L 2.46875 -17.1875 L 4.515625 -17.1875 L 4.515625 -13.296875 C 5.222656 -14.554688 6.226562 -15.566406 7.53125 -16.328125 C 8.84375 -17.097656 10.269531 -17.484375 11.8125 -17.484375 C 12.757812 -17.484375 13.5625 -17.304688 14.21875 -16.953125 C 14.882812 -16.609375 15.414062 -16.113281 15.8125 -15.46875 C 16.207031 -14.832031 16.488281 -14.050781 16.65625 -13.125 C 16.832031 -12.207031 16.921875 -11.1875 16.921875 -10.0625 Z M 16.921875 0 "/></g></g></g><g fill="#404040" fill-opacity="1"><g transform="translate(779.105768, 306.236356)"><g><path d="M 10.71875 -0.828125 C 10.59375 -0.753906 10.398438 -0.660156 10.140625 -0.546875 C 9.890625 -0.441406 9.597656 -0.332031 9.265625 -0.21875 C 8.941406 -0.113281 8.570312 -0.0195312 8.15625 0.0625 C 7.738281 0.15625 7.296875 0.203125 6.828125 0.203125 C 6.347656 0.203125 5.882812 0.132812 5.4375 0 C 5 -0.132812 4.613281 -0.335938 4.28125 -0.609375 C 3.957031 -0.878906 3.695312 -1.222656 3.5 -1.640625 C 3.300781 -2.066406 3.203125 -2.554688 3.203125 -3.109375 L 3.203125 -15.40625 L 0.828125 -15.40625 L 0.828125 -17.1875 L 3.203125 -17.1875 L 3.203125 -23 L 5.4375 -23 L 5.4375 -17.1875 L 9.40625 -17.1875 L 9.40625 -15.40625 L 5.4375 -15.40625 L 5.4375 -3.734375 C 5.488281 -3.085938 5.71875 -2.613281 6.125 -2.3125 C 6.53125 -2.019531 7 -1.875 7.53125 -1.875 C 8.164062 -1.875 8.722656 -1.976562 9.203125 -2.1875 C 9.691406 -2.40625 10 -2.554688 10.125 -2.640625 Z M 10.71875 -0.828125 "/></g></g></g><g fill="#404040" fill-opacity="1"><g transform="translate(790.160759, 306.236356)"><g><path d="M 9.90625 0.328125 C 8.644531 0.328125 7.492188 0.09375 6.453125 -0.375 C 5.410156 -0.851562 4.503906 -1.503906 3.734375 -2.328125 C 2.960938 -3.148438 2.359375 -4.097656 1.921875 -5.171875 C 1.492188 -6.253906 1.28125 -7.410156 1.28125 -8.640625 C 1.28125 -9.859375 1.492188 -11 1.921875 -12.0625 C 2.359375 -13.125 2.953125 -14.054688 3.703125 -14.859375 C 4.460938 -15.671875 5.367188 -16.3125 6.421875 -16.78125 C 7.484375 -17.25 8.628906 -17.484375 9.859375 -17.484375 C 11.117188 -17.484375 12.269531 -17.25 13.3125 -16.78125 C 14.363281 -16.3125 15.257812 -15.664062 16 -14.84375 C 16.75 -14.03125 17.332031 -13.097656 17.75 -12.046875 C 18.164062 -10.992188 18.375 -9.867188 18.375 -8.671875 C 18.375 -8.503906 18.375 -8.332031 18.375 -8.15625 C 18.375 -7.976562 18.363281 -7.851562 18.34375 -7.78125 L 3.625 -7.78125 C 3.695312 -6.863281 3.910156 -6.015625 4.265625 -5.234375 C 4.628906 -4.453125 5.097656 -3.773438 5.671875 -3.203125 C 6.242188 -2.628906 6.898438 -2.179688 7.640625 -1.859375 C 8.378906 -1.546875 9.164062 -1.390625 10 -1.390625 C 10.550781 -1.390625 11.097656 -1.460938 11.640625 -1.609375 C 12.191406 -1.765625 12.695312 -1.972656 13.15625 -2.234375 C 13.625 -2.503906 14.046875 -2.832031 14.421875 -3.21875 C 14.796875 -3.601562 15.082031 -4.023438 15.28125 -4.484375 L 17.21875 -3.953125 C 16.957031 -3.316406 16.582031 -2.738281 16.09375 -2.21875 C 15.613281 -1.707031 15.054688 -1.257812 14.421875 -0.875 C 13.785156 -0.488281 13.082031 -0.191406 12.3125 0.015625 C 11.539062 0.222656 10.738281 0.328125 9.90625 0.328125 Z M 16.234375 -9.5 C 16.171875 -10.425781 15.957031 -11.269531 15.59375 -12.03125 C 15.226562 -12.789062 14.765625 -13.441406 14.203125 -13.984375 C 13.640625 -14.535156 12.988281 -14.960938 12.25 -15.265625 C 11.519531 -15.578125 10.738281 -15.734375 9.90625 -15.734375 C 9.0625 -15.734375 8.265625 -15.578125 7.515625 -15.265625 C 6.773438 -14.960938 6.125 -14.535156 5.5625 -13.984375 C 5 -13.441406 4.546875 -12.785156 4.203125 -12.015625 C 3.867188 -11.242188 3.664062 -10.40625 3.59375 -9.5 Z M 16.234375 -9.5 "/></g></g></g><g fill="#404040" fill-opacity="1"><g transform="translate(336.179091, 351.986351)"><g/></g></g><g fill="#404040" fill-opacity="1"><g transform="translate(344.593153, 351.986351)"><g><path d="M 2.4375 0 L 2.4375 -23.4375 L 7 -23.4375 L 7 0 Z M 2.4375 0 "/></g></g></g><g fill="#404040" fill-opacity="1"><g transform="translate(354.031129, 351.986351)"><g><path d="M 9.109375 -23.4375 L 13.140625 -23.4375 L 22.046875 0 L 17.359375 0 L 15.1875 -5.84375 L 7 -5.84375 L 4.84375 0 L 0.171875 0 Z M 14.359375 -9.046875 L 11.125 -18.25 L 7.75 -9.046875 Z M 14.359375 -9.046875 "/></g></g></g><g fill="#404040" fill-opacity="1"><g transform="translate(376.207086, 351.986351)"><g/></g></g><g fill="#404040" fill-opacity="1"><g transform="translate(384.120496, 351.986351)"><g><path d="M 3.46875 5.28125 C 3.644531 5.300781 3.8125 5.316406 3.96875 5.328125 C 4.132812 5.335938 4.296875 5.34375 4.453125 5.34375 C 4.847656 5.34375 5.160156 5.285156 5.390625 5.171875 C 5.617188 5.066406 5.84375 4.828125 6.0625 4.453125 C 6.289062 4.078125 6.539062 3.535156 6.8125 2.828125 C 7.09375 2.128906 7.484375 1.1875 7.984375 0 L 0.5 -17.1875 L 2.8125 -17.1875 L 9.171875 -2.078125 L 15.078125 -17.1875 L 17.21875 -17.1875 L 8.3125 4.984375 C 8.070312 5.617188 7.671875 6.171875 7.109375 6.640625 C 6.546875 7.117188 5.78125 7.359375 4.8125 7.359375 C 4.59375 7.359375 4.382812 7.351562 4.1875 7.34375 C 3.988281 7.332031 3.75 7.304688 3.46875 7.265625 Z M 3.46875 5.28125 "/></g></g></g><g fill="#404040" fill-opacity="1"><g transform="translate(402.006453, 351.986351)"><g/></g></g><g fill="#404040" fill-opacity="1"><g transform="translate(410.417368, 351.986351)"><g><path d="M 21.3125 -6.03125 C 21.3125 -5.039062 21.113281 -4.171875 20.71875 -3.421875 C 20.320312 -2.679688 19.773438 -2.054688 19.078125 -1.546875 C 18.390625 -1.046875 17.585938 -0.660156 16.671875 -0.390625 C 15.765625 -0.128906 14.796875 0 13.765625 0 L 2.4375 0 L 2.4375 -23.4375 L 14.984375 -23.4375 C 15.796875 -23.4375 16.53125 -23.257812 17.1875 -22.90625 C 17.851562 -22.550781 18.414062 -22.09375 18.875 -21.53125 C 19.332031 -20.96875 19.6875 -20.328125 19.9375 -19.609375 C 20.195312 -18.898438 20.328125 -18.179688 20.328125 -17.453125 C 20.328125 -16.304688 20.039062 -15.234375 19.46875 -14.234375 C 18.894531 -13.234375 18.0625 -12.492188 16.96875 -12.015625 C 18.300781 -11.617188 19.359375 -10.90625 20.140625 -9.875 C 20.921875 -8.851562 21.3125 -7.570312 21.3125 -6.03125 Z M 16.734375 -6.890625 C 16.734375 -7.316406 16.660156 -7.71875 16.515625 -8.09375 C 16.367188 -8.476562 16.175781 -8.8125 15.9375 -9.09375 C 15.695312 -9.382812 15.410156 -9.613281 15.078125 -9.78125 C 14.753906 -9.945312 14.390625 -10.03125 13.984375 -10.03125 L 7 -10.03125 L 7 -3.859375 L 13.765625 -3.859375 C 14.179688 -3.859375 14.570312 -3.9375 14.9375 -4.09375 C 15.300781 -4.25 15.613281 -4.460938 15.875 -4.734375 C 16.132812 -5.003906 16.34375 -5.328125 16.5 -5.703125 C 16.65625 -6.078125 16.734375 -6.472656 16.734375 -6.890625 Z M 7 -19.53125 L 7 -13.625 L 13.0625 -13.625 C 13.832031 -13.625 14.488281 -13.890625 15.03125 -14.421875 C 15.570312 -14.953125 15.84375 -15.675781 15.84375 -16.59375 C 15.84375 -17.5 15.59375 -18.210938 15.09375 -18.734375 C 14.601562 -19.265625 13.992188 -19.53125 13.265625 -19.53125 Z M 7 -19.53125 "/></g></g></g><g fill="#404040" fill-opacity="1"><g transform="translate(432.857318, 351.986351)"><g><path d="M 7.296875 0.328125 C 5.515625 0.328125 4.160156 -0.242188 3.234375 -1.390625 C 2.304688 -2.535156 1.84375 -4.226562 1.84375 -6.46875 L 1.84375 -17.296875 L 6.265625 -17.296875 L 6.265625 -7.421875 C 6.265625 -4.765625 7.222656 -3.4375 9.140625 -3.4375 C 9.992188 -3.4375 10.820312 -3.691406 11.625 -4.203125 C 12.4375 -4.722656 13.09375 -5.507812 13.59375 -6.5625 L 13.59375 -17.296875 L 18.015625 -17.296875 L 18.015625 -5.078125 C 18.015625 -4.617188 18.097656 -4.289062 18.265625 -4.09375 C 18.429688 -3.894531 18.703125 -3.785156 19.078125 -3.765625 L 19.078125 0 C 18.628906 0.0820312 18.253906 0.132812 17.953125 0.15625 C 17.660156 0.1875 17.394531 0.203125 17.15625 0.203125 C 16.363281 0.203125 15.71875 0.0195312 15.21875 -0.34375 C 14.726562 -0.707031 14.441406 -1.207031 14.359375 -1.84375 L 14.25 -3.234375 C 13.476562 -2.046875 12.488281 -1.15625 11.28125 -0.5625 C 10.070312 0.03125 8.742188 0.328125 7.296875 0.328125 Z M 7.296875 0.328125 "/></g></g></g><g fill="#404040" fill-opacity="1"><g transform="translate(453.25127, 351.986351)"><g><path d="M 8.546875 0.328125 C 7.097656 0.328125 5.679688 0.0976562 4.296875 -0.359375 C 2.910156 -0.828125 1.71875 -1.488281 0.71875 -2.34375 L 2.375 -5.109375 C 3.425781 -4.367188 4.453125 -3.804688 5.453125 -3.421875 C 6.460938 -3.035156 7.460938 -2.84375 8.453125 -2.84375 C 9.328125 -2.84375 10.015625 -3.003906 10.515625 -3.328125 C 11.023438 -3.660156 11.28125 -4.132812 11.28125 -4.75 C 11.28125 -5.363281 10.984375 -5.8125 10.390625 -6.09375 C 9.796875 -6.382812 8.828125 -6.71875 7.484375 -7.09375 C 6.367188 -7.40625 5.414062 -7.703125 4.625 -7.984375 C 3.832031 -8.273438 3.191406 -8.597656 2.703125 -8.953125 C 2.222656 -9.316406 1.867188 -9.734375 1.640625 -10.203125 C 1.421875 -10.679688 1.3125 -11.25 1.3125 -11.90625 C 1.3125 -12.789062 1.484375 -13.582031 1.828125 -14.28125 C 2.171875 -14.988281 2.648438 -15.585938 3.265625 -16.078125 C 3.878906 -16.578125 4.597656 -16.957031 5.421875 -17.21875 C 6.253906 -17.488281 7.15625 -17.625 8.125 -17.625 C 9.414062 -17.625 10.628906 -17.4375 11.765625 -17.0625 C 12.898438 -16.6875 13.941406 -16.082031 14.890625 -15.25 L 13.09375 -12.578125 C 12.21875 -13.234375 11.367188 -13.710938 10.546875 -14.015625 C 9.722656 -14.328125 8.898438 -14.484375 8.078125 -14.484375 C 7.335938 -14.484375 6.710938 -14.328125 6.203125 -14.015625 C 5.691406 -13.710938 5.4375 -13.222656 5.4375 -12.546875 C 5.4375 -12.234375 5.5 -11.976562 5.625 -11.78125 C 5.75 -11.582031 5.941406 -11.40625 6.203125 -11.25 C 6.460938 -11.09375 6.804688 -10.941406 7.234375 -10.796875 C 7.671875 -10.660156 8.207031 -10.515625 8.84375 -10.359375 C 10.03125 -10.054688 11.046875 -9.75 11.890625 -9.4375 C 12.742188 -9.125 13.4375 -8.769531 13.96875 -8.375 C 14.507812 -7.976562 14.90625 -7.519531 15.15625 -7 C 15.414062 -6.488281 15.546875 -5.867188 15.546875 -5.140625 C 15.546875 -3.453125 14.914062 -2.117188 13.65625 -1.140625 C 12.40625 -0.160156 10.703125 0.328125 8.546875 0.328125 Z M 8.546875 0.328125 "/></g></g></g><g fill="#404040" fill-opacity="1"><g transform="translate(469.652231, 351.986351)"><g><path d="M 2.015625 0 L 2.015625 -17.296875 L 6.4375 -17.296875 L 6.4375 0 Z M 2.015625 -19.703125 L 2.015625 -24.09375 L 6.4375 -24.09375 L 6.4375 -19.703125 Z M 2.015625 -19.703125 "/></g></g></g><g fill="#404040" fill-opacity="1"><g transform="translate(478.067208, 351.986351)"><g><path d="M 18.078125 0 L 13.65625 0 L 13.65625 -9.703125 C 13.65625 -11.085938 13.410156 -12.097656 12.921875 -12.734375 C 12.441406 -13.367188 11.773438 -13.6875 10.921875 -13.6875 C 10.484375 -13.6875 10.03125 -13.597656 9.5625 -13.421875 C 9.101562 -13.253906 8.671875 -13.007812 8.265625 -12.6875 C 7.859375 -12.363281 7.488281 -11.984375 7.15625 -11.546875 C 6.832031 -11.109375 6.59375 -10.625 6.4375 -10.09375 L 6.4375 0 L 2.015625 0 L 2.015625 -17.296875 L 6 -17.296875 L 6 -14.09375 C 6.644531 -15.1875 7.570312 -16.039062 8.78125 -16.65625 C 9.988281 -17.28125 11.351562 -17.59375 12.875 -17.59375 C 13.945312 -17.59375 14.820312 -17.394531 15.5 -17 C 16.1875 -16.601562 16.71875 -16.082031 17.09375 -15.4375 C 17.46875 -14.800781 17.722656 -14.078125 17.859375 -13.265625 C 18.003906 -12.453125 18.078125 -11.628906 18.078125 -10.796875 Z M 18.078125 0 "/></g></g></g><g fill="#404040" fill-opacity="1"><g transform="translate(497.999163, 351.986351)"><g><path d="M 10.03125 0.328125 C 8.644531 0.328125 7.390625 0.09375 6.265625 -0.375 C 5.148438 -0.851562 4.195312 -1.5 3.40625 -2.3125 C 2.613281 -3.125 2 -4.066406 1.5625 -5.140625 C 1.132812 -6.222656 0.921875 -7.359375 0.921875 -8.546875 C 0.921875 -9.773438 1.128906 -10.929688 1.546875 -12.015625 C 1.960938 -13.109375 2.566406 -14.066406 3.359375 -14.890625 C 4.148438 -15.722656 5.113281 -16.378906 6.25 -16.859375 C 7.382812 -17.347656 8.65625 -17.59375 10.0625 -17.59375 C 11.46875 -17.59375 12.726562 -17.347656 13.84375 -16.859375 C 14.957031 -16.378906 15.90625 -15.726562 16.6875 -14.90625 C 17.46875 -14.09375 18.0625 -13.148438 18.46875 -12.078125 C 18.875 -11.003906 19.078125 -9.882812 19.078125 -8.71875 C 19.078125 -8.425781 19.070312 -8.144531 19.0625 -7.875 C 19.050781 -7.613281 19.019531 -7.398438 18.96875 -7.234375 L 5.609375 -7.234375 C 5.671875 -6.546875 5.832031 -5.9375 6.09375 -5.40625 C 6.363281 -4.882812 6.707031 -4.4375 7.125 -4.0625 C 7.539062 -3.6875 8.015625 -3.398438 8.546875 -3.203125 C 9.078125 -3.003906 9.628906 -2.90625 10.203125 -2.90625 C 11.078125 -2.90625 11.90625 -3.117188 12.6875 -3.546875 C 13.46875 -3.972656 14 -4.539062 14.28125 -5.25 L 18.078125 -4.1875 C 17.441406 -2.875 16.425781 -1.789062 15.03125 -0.9375 C 13.632812 -0.09375 11.96875 0.328125 10.03125 0.328125 Z M 14.515625 -10.09375 C 14.410156 -11.394531 13.929688 -12.4375 13.078125 -13.21875 C 12.234375 -14 11.207031 -14.390625 10 -14.390625 C 9.40625 -14.390625 8.847656 -14.285156 8.328125 -14.078125 C 7.816406 -13.867188 7.363281 -13.578125 6.96875 -13.203125 C 6.570312 -12.828125 6.242188 -12.375 5.984375 -11.84375 C 5.734375 -11.320312 5.585938 -10.738281 5.546875 -10.09375 Z M 14.515625 -10.09375 "/></g></g></g><g fill="#404040" fill-opacity="1"><g transform="translate(517.766117, 351.986351)"><g><path d="M 8.546875 0.328125 C 7.097656 0.328125 5.679688 0.0976562 4.296875 -0.359375 C 2.910156 -0.828125 1.71875 -1.488281 0.71875 -2.34375 L 2.375 -5.109375 C 3.425781 -4.367188 4.453125 -3.804688 5.453125 -3.421875 C 6.460938 -3.035156 7.460938 -2.84375 8.453125 -2.84375 C 9.328125 -2.84375 10.015625 -3.003906 10.515625 -3.328125 C 11.023438 -3.660156 11.28125 -4.132812 11.28125 -4.75 C 11.28125 -5.363281 10.984375 -5.8125 10.390625 -6.09375 C 9.796875 -6.382812 8.828125 -6.71875 7.484375 -7.09375 C 6.367188 -7.40625 5.414062 -7.703125 4.625 -7.984375 C 3.832031 -8.273438 3.191406 -8.597656 2.703125 -8.953125 C 2.222656 -9.316406 1.867188 -9.734375 1.640625 -10.203125 C 1.421875 -10.679688 1.3125 -11.25 1.3125 -11.90625 C 1.3125 -12.789062 1.484375 -13.582031 1.828125 -14.28125 C 2.171875 -14.988281 2.648438 -15.585938 3.265625 -16.078125 C 3.878906 -16.578125 4.597656 -16.957031 5.421875 -17.21875 C 6.253906 -17.488281 7.15625 -17.625 8.125 -17.625 C 9.414062 -17.625 10.628906 -17.4375 11.765625 -17.0625 C 12.898438 -16.6875 13.941406 -16.082031 14.890625 -15.25 L 13.09375 -12.578125 C 12.21875 -13.234375 11.367188 -13.710938 10.546875 -14.015625 C 9.722656 -14.328125 8.898438 -14.484375 8.078125 -14.484375 C 7.335938 -14.484375 6.710938 -14.328125 6.203125 -14.015625 C 5.691406 -13.710938 5.4375 -13.222656 5.4375 -12.546875 C 5.4375 -12.234375 5.5 -11.976562 5.625 -11.78125 C 5.75 -11.582031 5.941406 -11.40625 6.203125 -11.25 C 6.460938 -11.09375 6.804688 -10.941406 7.234375 -10.796875 C 7.671875 -10.660156 8.207031 -10.515625 8.84375 -10.359375 C 10.03125 -10.054688 11.046875 -9.75 11.890625 -9.4375 C 12.742188 -9.125 13.4375 -8.769531 13.96875 -8.375 C 14.507812 -7.976562 14.90625 -7.519531 15.15625 -7 C 15.414062 -6.488281 15.546875 -5.867188 15.546875 -5.140625 C 15.546875 -3.453125 14.914062 -2.117188 13.65625 -1.140625 C 12.40625 -0.160156 10.703125 0.328125 8.546875 0.328125 Z M 8.546875 0.328125 "/></g></g></g><g fill="#404040" fill-opacity="1"><g transform="translate(534.167078, 351.986351)"><g><path d="M 8.546875 0.328125 C 7.097656 0.328125 5.679688 0.0976562 4.296875 -0.359375 C 2.910156 -0.828125 1.71875 -1.488281 0.71875 -2.34375 L 2.375 -5.109375 C 3.425781 -4.367188 4.453125 -3.804688 5.453125 -3.421875 C 6.460938 -3.035156 7.460938 -2.84375 8.453125 -2.84375 C 9.328125 -2.84375 10.015625 -3.003906 10.515625 -3.328125 C 11.023438 -3.660156 11.28125 -4.132812 11.28125 -4.75 C 11.28125 -5.363281 10.984375 -5.8125 10.390625 -6.09375 C 9.796875 -6.382812 8.828125 -6.71875 7.484375 -7.09375 C 6.367188 -7.40625 5.414062 -7.703125 4.625 -7.984375 C 3.832031 -8.273438 3.191406 -8.597656 2.703125 -8.953125 C 2.222656 -9.316406 1.867188 -9.734375 1.640625 -10.203125 C 1.421875 -10.679688 1.3125 -11.25 1.3125 -11.90625 C 1.3125 -12.789062 1.484375 -13.582031 1.828125 -14.28125 C 2.171875 -14.988281 2.648438 -15.585938 3.265625 -16.078125 C 3.878906 -16.578125 4.597656 -16.957031 5.421875 -17.21875 C 6.253906 -17.488281 7.15625 -17.625 8.125 -17.625 C 9.414062 -17.625 10.628906 -17.4375 11.765625 -17.0625 C 12.898438 -16.6875 13.941406 -16.082031 14.890625 -15.25 L 13.09375 -12.578125 C 12.21875 -13.234375 11.367188 -13.710938 10.546875 -14.015625 C 9.722656 -14.328125 8.898438 -14.484375 8.078125 -14.484375 C 7.335938 -14.484375 6.710938 -14.328125 6.203125 -14.015625 C 5.691406 -13.710938 5.4375 -13.222656 5.4375 -12.546875 C 5.4375 -12.234375 5.5 -11.976562 5.625 -11.78125 C 5.75 -11.582031 5.941406 -11.40625 6.203125 -11.25 C 6.460938 -11.09375 6.804688 -10.941406 7.234375 -10.796875 C 7.671875 -10.660156 8.207031 -10.515625 8.84375 -10.359375 C 10.03125 -10.054688 11.046875 -9.75 11.890625 -9.4375 C 12.742188 -9.125 13.4375 -8.769531 13.96875 -8.375 C 14.507812 -7.976562 14.90625 -7.519531 15.15625 -7 C 15.414062 -6.488281 15.546875 -5.867188 15.546875 -5.140625 C 15.546875 -3.453125 14.914062 -2.117188 13.65625 -1.140625 C 12.40625 -0.160156 10.703125 0.328125 8.546875 0.328125 Z M 8.546875 0.328125 "/></g></g></g><g fill="#404040" fill-opacity="1"><g transform="translate(550.568038, 351.986351)"><g/></g></g><g fill="#404040" fill-opacity="1"><g transform="translate(558.488024, 351.986351)"><g><path d="M 22.140625 -23.4375 L 22.140625 0 L 17.625 0 L 17.625 -10 L 7 -10 L 7 0 L 2.4375 0 L 2.4375 -23.4375 L 7 -23.4375 L 7 -13.953125 L 17.625 -13.953125 L 17.625 -23.4375 Z M 22.140625 -23.4375 "/></g></g></g><g fill="#404040" fill-opacity="1"><g transform="translate(583.072975, 351.986351)"><g><path d="M 6.734375 0.328125 C 5.898438 0.328125 5.117188 0.191406 4.390625 -0.078125 C 3.660156 -0.359375 3.03125 -0.742188 2.5 -1.234375 C 1.976562 -1.734375 1.566406 -2.3125 1.265625 -2.96875 C 0.972656 -3.625 0.828125 -4.347656 0.828125 -5.140625 C 0.828125 -5.960938 1.003906 -6.71875 1.359375 -7.40625 C 1.722656 -8.101562 2.226562 -8.691406 2.875 -9.171875 C 3.53125 -9.660156 4.304688 -10.039062 5.203125 -10.3125 C 6.109375 -10.582031 7.101562 -10.71875 8.1875 -10.71875 C 8.957031 -10.71875 9.707031 -10.648438 10.4375 -10.515625 C 11.175781 -10.390625 11.832031 -10.207031 12.40625 -9.96875 L 12.40625 -10.953125 C 12.40625 -12.097656 12.082031 -12.976562 11.4375 -13.59375 C 10.789062 -14.207031 9.828125 -14.515625 8.546875 -14.515625 C 7.617188 -14.515625 6.710938 -14.347656 5.828125 -14.015625 C 4.953125 -13.691406 4.054688 -13.210938 3.140625 -12.578125 L 1.78125 -15.375 C 4 -16.851562 6.394531 -17.59375 8.96875 -17.59375 C 11.457031 -17.59375 13.390625 -16.976562 14.765625 -15.75 C 16.140625 -14.53125 16.828125 -12.769531 16.828125 -10.46875 L 16.828125 -5.078125 C 16.828125 -4.617188 16.910156 -4.289062 17.078125 -4.09375 C 17.242188 -3.894531 17.515625 -3.785156 17.890625 -3.765625 L 17.890625 0 C 17.140625 0.15625 16.488281 0.234375 15.9375 0.234375 C 15.101562 0.234375 14.457031 0.046875 14 -0.328125 C 13.550781 -0.703125 13.273438 -1.195312 13.171875 -1.8125 L 13.0625 -2.765625 C 12.289062 -1.753906 11.351562 -0.984375 10.25 -0.453125 C 9.15625 0.0664062 7.984375 0.328125 6.734375 0.328125 Z M 7.984375 -2.90625 C 8.734375 -2.90625 9.441406 -3.035156 10.109375 -3.296875 C 10.785156 -3.566406 11.3125 -3.921875 11.6875 -4.359375 C 12.164062 -4.734375 12.40625 -5.148438 12.40625 -5.609375 L 12.40625 -7.59375 C 11.875 -7.789062 11.300781 -7.945312 10.6875 -8.0625 C 10.070312 -8.1875 9.476562 -8.25 8.90625 -8.25 C 7.757812 -8.25 6.820312 -7.988281 6.09375 -7.46875 C 5.375 -6.957031 5.015625 -6.304688 5.015625 -5.515625 C 5.015625 -4.765625 5.300781 -4.140625 5.875 -3.640625 C 6.445312 -3.148438 7.148438 -2.90625 7.984375 -2.90625 Z M 7.984375 -2.90625 "/></g></g></g><g fill="#404040" fill-opacity="1"><g transform="translate(602.014936, 351.986351)"><g><path d="M 0.921875 -8.640625 C 0.921875 -9.859375 1.128906 -11.003906 1.546875 -12.078125 C 1.960938 -13.148438 2.566406 -14.09375 3.359375 -14.90625 C 4.148438 -15.726562 5.109375 -16.378906 6.234375 -16.859375 C 7.359375 -17.347656 8.625 -17.59375 10.03125 -17.59375 C 11.925781 -17.59375 13.535156 -17.179688 14.859375 -16.359375 C 16.191406 -15.546875 17.191406 -14.484375 17.859375 -13.171875 L 13.53125 -11.84375 C 13.15625 -12.476562 12.660156 -12.96875 12.046875 -13.3125 C 11.429688 -13.65625 10.75 -13.828125 10 -13.828125 C 9.363281 -13.828125 8.769531 -13.695312 8.21875 -13.4375 C 7.664062 -13.1875 7.1875 -12.835938 6.78125 -12.390625 C 6.375 -11.941406 6.054688 -11.394531 5.828125 -10.75 C 5.597656 -10.113281 5.484375 -9.410156 5.484375 -8.640625 C 5.484375 -7.867188 5.601562 -7.164062 5.84375 -6.53125 C 6.082031 -5.894531 6.40625 -5.34375 6.8125 -4.875 C 7.21875 -4.414062 7.695312 -4.0625 8.25 -3.8125 C 8.800781 -3.5625 9.382812 -3.4375 10 -3.4375 C 10.789062 -3.4375 11.519531 -3.632812 12.1875 -4.03125 C 12.863281 -4.425781 13.332031 -4.910156 13.59375 -5.484375 L 17.921875 -4.15625 C 17.328125 -2.832031 16.347656 -1.753906 14.984375 -0.921875 C 13.617188 -0.0859375 11.976562 0.328125 10.0625 0.328125 C 8.65625 0.328125 7.390625 0.0859375 6.265625 -0.390625 C 5.148438 -0.878906 4.195312 -1.535156 3.40625 -2.359375 C 2.613281 -3.179688 2 -4.132812 1.5625 -5.21875 C 1.132812 -6.3125 0.921875 -7.453125 0.921875 -8.640625 Z M 0.921875 -8.640625 "/></g></g></g><g fill="#404040" fill-opacity="1"><g transform="translate(620.626907, 351.986351)"><g><path d="M 13.828125 0 L 8.8125 -7.484375 L 6.4375 -5.140625 L 6.4375 0 L 2.015625 0 L 2.015625 -24.09375 L 6.4375 -24.09375 L 6.4375 -9.46875 L 13.359375 -17.265625 L 18.078125 -17.265625 L 11.65625 -9.9375 L 18.546875 0 Z M 13.828125 0 "/></g></g></g><g fill="#404040" fill-opacity="1"><g transform="translate(639.04086, 351.986351)"><g><path d="M 2.015625 0 L 2.015625 -17.296875 L 6.4375 -17.296875 L 6.4375 0 Z M 2.015625 -19.703125 L 2.015625 -24.09375 L 6.4375 -24.09375 L 6.4375 -19.703125 Z M 2.015625 -19.703125 "/></g></g></g><g fill="#404040" fill-opacity="1"><g transform="translate(647.455837, 351.986351)"><g><path d="M 18.078125 0 L 13.65625 0 L 13.65625 -9.703125 C 13.65625 -11.085938 13.410156 -12.097656 12.921875 -12.734375 C 12.441406 -13.367188 11.773438 -13.6875 10.921875 -13.6875 C 10.484375 -13.6875 10.03125 -13.597656 9.5625 -13.421875 C 9.101562 -13.253906 8.671875 -13.007812 8.265625 -12.6875 C 7.859375 -12.363281 7.488281 -11.984375 7.15625 -11.546875 C 6.832031 -11.109375 6.59375 -10.625 6.4375 -10.09375 L 6.4375 0 L 2.015625 0 L 2.015625 -17.296875 L 6 -17.296875 L 6 -14.09375 C 6.644531 -15.1875 7.570312 -16.039062 8.78125 -16.65625 C 9.988281 -17.28125 11.351562 -17.59375 12.875 -17.59375 C 13.945312 -17.59375 14.820312 -17.394531 15.5 -17 C 16.1875 -16.601562 16.71875 -16.082031 17.09375 -15.4375 C 17.46875 -14.800781 17.722656 -14.078125 17.859375 -13.265625 C 18.003906 -12.453125 18.078125 -11.628906 18.078125 -10.796875 Z M 18.078125 0 "/></g></g></g><g fill="#404040" fill-opacity="1"><g transform="translate(667.387781, 351.986351)"><g><path d="M 8.78125 0.09375 C 7.613281 0.09375 6.554688 -0.132812 5.609375 -0.59375 C 4.660156 -1.050781 3.835938 -1.679688 3.140625 -2.484375 C 2.453125 -3.296875 1.921875 -4.226562 1.546875 -5.28125 C 1.171875 -6.332031 0.984375 -7.453125 0.984375 -8.640625 C 0.984375 -9.898438 1.179688 -11.066406 1.578125 -12.140625 C 1.972656 -13.222656 2.523438 -14.171875 3.234375 -14.984375 C 3.941406 -15.796875 4.789062 -16.429688 5.78125 -16.890625 C 6.769531 -17.359375 7.859375 -17.59375 9.046875 -17.59375 C 10.390625 -17.59375 11.566406 -17.289062 12.578125 -16.6875 C 13.585938 -16.082031 14.421875 -15.269531 15.078125 -14.25 L 15.078125 -17.296875 L 18.9375 -17.296875 L 18.9375 -0.828125 C 18.9375 0.453125 18.691406 1.597656 18.203125 2.609375 C 17.722656 3.617188 17.0625 4.472656 16.21875 5.171875 C 15.375 5.878906 14.363281 6.421875 13.1875 6.796875 C 12.007812 7.171875 10.726562 7.359375 9.34375 7.359375 C 7.445312 7.359375 5.851562 7.046875 4.5625 6.421875 C 3.28125 5.796875 2.175781 4.910156 1.25 3.765625 L 3.65625 1.421875 C 4.320312 2.234375 5.15625 2.867188 6.15625 3.328125 C 7.15625 3.796875 8.21875 4.03125 9.34375 4.03125 C 10.019531 4.03125 10.671875 3.9375 11.296875 3.75 C 11.929688 3.5625 12.488281 3.269531 12.96875 2.875 C 13.445312 2.476562 13.820312 1.96875 14.09375 1.34375 C 14.375 0.726562 14.515625 0.00390625 14.515625 -0.828125 L 14.515625 -3 C 13.941406 -2.007812 13.140625 -1.242188 12.109375 -0.703125 C 11.078125 -0.171875 9.96875 0.09375 8.78125 0.09375 Z M 10.265625 -3.4375 C 10.742188 -3.4375 11.203125 -3.507812 11.640625 -3.65625 C 12.085938 -3.8125 12.5 -4.019531 12.875 -4.28125 C 13.25 -4.550781 13.578125 -4.859375 13.859375 -5.203125 C 14.140625 -5.554688 14.359375 -5.9375 14.515625 -6.34375 L 14.515625 -10.46875 C 14.117188 -11.476562 13.5 -12.289062 12.65625 -12.90625 C 11.8125 -13.519531 10.925781 -13.828125 10 -13.828125 C 9.3125 -13.828125 8.691406 -13.675781 8.140625 -13.375 C 7.597656 -13.082031 7.128906 -12.6875 6.734375 -12.1875 C 6.335938 -11.695312 6.035156 -11.128906 5.828125 -10.484375 C 5.617188 -9.847656 5.515625 -9.191406 5.515625 -8.515625 C 5.515625 -7.804688 5.632812 -7.144531 5.875 -6.53125 C 6.113281 -5.914062 6.445312 -5.375 6.875 -4.90625 C 7.3125 -4.445312 7.8125 -4.085938 8.375 -3.828125 C 8.945312 -3.566406 9.578125 -3.4375 10.265625 -3.4375 Z M 10.265625 -3.4375 "/></g></g></g></svg>