<svg xmlns="http://www.w3.org/2000/svg" xmlns:xlink="http://www.w3.org/1999/xlink" width="1920" zoomAndPan="magnify" viewBox="0 0 1440 195.000001" height="260" preserveAspectRatio="xMidYMid meet" version="1.0"><defs><g/><clipPath id="b155f2230b"><path d="M 3.671875 0 L 1436.324219 0 L 1436.324219 194.003906 L 3.671875 194.003906 Z M 3.671875 0 " clip-rule="nonzero"/></clipPath></defs><g clip-path="url(#b155f2230b)"><path fill="#ffffff" d="M 3.671875 0 L 1436.328125 0 L 1436.328125 201.46875 L 3.671875 201.46875 Z M 3.671875 0 " fill-opacity="1" fill-rule="nonzero"/><path fill="#ffffff" d="M 3.671875 0 L 1436.328125 0 L 1436.328125 194.003906 L 3.671875 194.003906 Z M 3.671875 0 " fill-opacity="1" fill-rule="nonzero"/><path fill="#ffc72c" d="M 3.671875 0 L 1436.328125 0 L 1436.328125 194.003906 L 3.671875 194.003906 Z M 3.671875 0 " fill-opacity="1" fill-rule="nonzero"/></g><g fill="#404040" fill-opacity="1"><g transform="translate(19.051547, 145.459882)"><g><path d="M 4.84375 -56.25 C 4.84375 -63.019531 6.066406 -69.710938 8.515625 -76.328125 C 10.960938 -82.941406 14.53125 -88.851562 19.21875 -94.0625 C 23.90625 -99.269531 29.632812 -103.488281 36.40625 -106.71875 C 43.175781 -109.945312 50.882812 -111.5625 59.53125 -111.5625 C 69.738281 -111.5625 78.566406 -109.320312 86.015625 -104.84375 C 93.460938 -100.363281 99.007812 -94.53125 102.65625 -87.34375 L 86.09375 -75.9375 C 84.632812 -79.0625 82.863281 -81.691406 80.78125 -83.828125 C 78.695312 -85.960938 76.457031 -87.65625 74.0625 -88.90625 C 71.664062 -90.15625 69.164062 -91.066406 66.5625 -91.640625 C 63.957031 -92.210938 61.40625 -92.5 58.90625 -92.5 C 53.488281 -92.5 48.773438 -91.40625 44.765625 -89.21875 C 40.753906 -87.03125 37.421875 -84.191406 34.765625 -80.703125 C 32.109375 -77.210938 30.101562 -73.253906 28.75 -68.828125 C 27.394531 -64.398438 26.71875 -60 26.71875 -55.625 C 26.71875 -50.726562 27.5 -46.015625 29.0625 -41.484375 C 30.625 -36.953125 32.835938 -32.96875 35.703125 -29.53125 C 38.566406 -26.09375 42.003906 -23.332031 46.015625 -21.25 C 50.023438 -19.164062 54.425781 -18.125 59.21875 -18.125 C 61.71875 -18.125 64.320312 -18.4375 67.03125 -19.0625 C 69.738281 -19.6875 72.316406 -20.675781 74.765625 -22.03125 C 77.210938 -23.382812 79.476562 -25.128906 81.5625 -27.265625 C 83.644531 -29.398438 85.3125 -31.976562 86.5625 -35 L 104.21875 -24.84375 C 102.445312 -20.675781 99.921875 -17.003906 96.640625 -13.828125 C 93.359375 -10.648438 89.660156 -7.96875 85.546875 -5.78125 C 81.429688 -3.59375 77.03125 -1.925781 72.34375 -0.78125 C 67.65625 0.363281 63.070312 0.9375 58.59375 0.9375 C 50.675781 0.9375 43.4375 -0.726562 36.875 -4.0625 C 30.3125 -7.394531 24.660156 -11.742188 19.921875 -17.109375 C 15.179688 -22.472656 11.484375 -28.566406 8.828125 -35.390625 C 6.171875 -42.210938 4.84375 -49.164062 4.84375 -56.25 Z M 4.84375 -56.25 "/></g></g></g><g fill="#404040" fill-opacity="1"><g transform="translate(120.459804, 145.459882)"><g><path d="M 85.625 0 L 64.6875 0 L 64.6875 -45.9375 C 64.6875 -52.394531 63.488281 -57.160156 61.09375 -60.234375 C 58.695312 -63.304688 55.3125 -64.84375 50.9375 -64.84375 C 49.0625 -64.84375 47.082031 -64.425781 45 -63.59375 C 42.914062 -62.757812 40.9375 -61.585938 39.0625 -60.078125 C 37.1875 -58.566406 35.46875 -56.769531 33.90625 -54.6875 C 32.34375 -52.601562 31.195312 -50.3125 30.46875 -47.8125 L 30.46875 0 L 9.53125 0 L 9.53125 -114.0625 L 30.46875 -114.0625 L 30.46875 -66.71875 C 33.488281 -72.03125 37.578125 -76.117188 42.734375 -78.984375 C 47.890625 -81.847656 53.59375 -83.28125 59.84375 -83.28125 C 65.15625 -83.28125 69.476562 -82.367188 72.8125 -80.546875 C 76.144531 -78.722656 78.75 -76.300781 80.625 -73.28125 C 82.5 -70.257812 83.800781 -66.820312 84.53125 -62.96875 C 85.257812 -59.113281 85.625 -55.15625 85.625 -51.09375 Z M 85.625 0 "/></g></g></g><g fill="#404040" fill-opacity="1"><g transform="translate(209.055297, 145.459882)"><g><path d="M 31.875 1.5625 C 27.914062 1.5625 24.21875 0.910156 20.78125 -0.390625 C 17.34375 -1.691406 14.375 -3.515625 11.875 -5.859375 C 9.375 -8.203125 7.421875 -10.9375 6.015625 -14.0625 C 4.609375 -17.1875 3.90625 -20.625 3.90625 -24.375 C 3.90625 -28.226562 4.765625 -31.796875 6.484375 -35.078125 C 8.203125 -38.359375 10.597656 -41.144531 13.671875 -43.4375 C 16.742188 -45.726562 20.414062 -47.523438 24.6875 -48.828125 C 28.957031 -50.128906 33.644531 -50.78125 38.75 -50.78125 C 42.394531 -50.78125 45.960938 -50.46875 49.453125 -49.84375 C 52.941406 -49.21875 56.039062 -48.332031 58.75 -47.1875 L 58.75 -51.875 C 58.75 -57.289062 57.210938 -61.457031 54.140625 -64.375 C 51.066406 -67.289062 46.507812 -68.75 40.46875 -68.75 C 36.09375 -68.75 31.820312 -67.96875 27.65625 -66.40625 C 23.488281 -64.84375 19.21875 -62.550781 14.84375 -59.53125 L 8.4375 -72.8125 C 18.957031 -79.789062 30.3125 -83.28125 42.5 -83.28125 C 54.269531 -83.28125 63.410156 -80.390625 69.921875 -74.609375 C 76.429688 -68.828125 79.6875 -60.46875 79.6875 -49.53125 L 79.6875 -24.0625 C 79.6875 -21.875 80.078125 -20.3125 80.859375 -19.375 C 81.640625 -18.4375 82.914062 -17.914062 84.6875 -17.8125 L 84.6875 0 C 81.144531 0.726562 78.070312 1.09375 75.46875 1.09375 C 71.507812 1.09375 68.460938 0.207031 66.328125 -1.5625 C 64.191406 -3.332031 62.863281 -5.675781 62.34375 -8.59375 L 61.875 -13.125 C 58.226562 -8.332031 53.800781 -4.6875 48.59375 -2.1875 C 43.382812 0.3125 37.8125 1.5625 31.875 1.5625 Z M 37.8125 -13.75 C 41.351562 -13.75 44.710938 -14.375 47.890625 -15.625 C 51.066406 -16.875 53.539062 -18.539062 55.3125 -20.625 C 57.601562 -22.394531 58.75 -24.375 58.75 -26.5625 L 58.75 -35.9375 C 56.25 -36.875 53.539062 -37.628906 50.625 -38.203125 C 47.707031 -38.773438 44.894531 -39.0625 42.1875 -39.0625 C 36.769531 -39.0625 32.34375 -37.835938 28.90625 -35.390625 C 25.46875 -32.941406 23.75 -29.84375 23.75 -26.09375 C 23.75 -22.550781 25.101562 -19.609375 27.8125 -17.265625 C 30.519531 -14.921875 33.851562 -13.75 37.8125 -13.75 Z M 37.8125 -13.75 "/></g></g></g><g fill="#404040" fill-opacity="1"><g transform="translate(292.963193, 145.459882)"><g><path d="M 85.625 0 L 64.6875 0 L 64.6875 -45.9375 C 64.6875 -52.5 63.539062 -57.289062 61.25 -60.3125 C 58.957031 -63.332031 55.78125 -64.84375 51.71875 -64.84375 C 49.632812 -64.84375 47.5 -64.425781 45.3125 -63.59375 C 43.125 -62.757812 41.066406 -61.585938 39.140625 -60.078125 C 37.210938 -58.566406 35.46875 -56.769531 33.90625 -54.6875 C 32.34375 -52.601562 31.195312 -50.3125 30.46875 -47.8125 L 30.46875 0 L 9.53125 0 L 9.53125 -81.875 L 28.4375 -81.875 L 28.4375 -66.71875 C 31.457031 -71.925781 35.832031 -75.988281 41.5625 -78.90625 C 47.289062 -81.820312 53.75 -83.28125 60.9375 -83.28125 C 66.039062 -83.28125 70.207031 -82.34375 73.4375 -80.46875 C 76.664062 -78.59375 79.164062 -76.144531 80.9375 -73.125 C 82.707031 -70.101562 83.929688 -66.664062 84.609375 -62.8125 C 85.285156 -58.957031 85.625 -55.050781 85.625 -51.09375 Z M 85.625 0 "/></g></g></g><g fill="#404040" fill-opacity="1"><g transform="translate(381.558674, 145.459882)"><g><path d="M 41.5625 0.46875 C 36.039062 0.46875 31.039062 -0.625 26.5625 -2.8125 C 22.082031 -5 18.203125 -7.992188 14.921875 -11.796875 C 11.640625 -15.597656 9.113281 -20 7.34375 -25 C 5.570312 -30 4.6875 -35.3125 4.6875 -40.9375 C 4.6875 -46.875 5.625 -52.394531 7.5 -57.5 C 9.375 -62.601562 11.976562 -67.082031 15.3125 -70.9375 C 18.644531 -74.789062 22.65625 -77.8125 27.34375 -80 C 32.03125 -82.1875 37.1875 -83.28125 42.8125 -83.28125 C 49.164062 -83.28125 54.738281 -81.847656 59.53125 -78.984375 C 64.320312 -76.117188 68.28125 -72.289062 71.40625 -67.5 L 71.40625 -81.875 L 89.6875 -81.875 L 89.6875 -3.90625 C 89.6875 2.132812 88.539062 7.550781 86.25 12.34375 C 83.957031 17.132812 80.804688 21.195312 76.796875 24.53125 C 72.785156 27.863281 67.992188 30.414062 62.421875 32.1875 C 56.847656 33.957031 50.78125 34.84375 44.21875 34.84375 C 35.257812 34.84375 27.734375 33.359375 21.640625 30.390625 C 15.546875 27.421875 10.3125 23.226562 5.9375 17.8125 L 17.34375 6.71875 C 20.46875 10.570312 24.398438 13.59375 29.140625 15.78125 C 33.878906 17.96875 38.90625 19.0625 44.21875 19.0625 C 47.445312 19.0625 50.546875 18.617188 53.515625 17.734375 C 56.484375 16.847656 59.113281 15.46875 61.40625 13.59375 C 63.695312 11.71875 65.492188 9.320312 66.796875 6.40625 C 68.097656 3.488281 68.75 0.0507812 68.75 -3.90625 L 68.75 -14.21875 C 66.039062 -9.53125 62.238281 -5.910156 57.34375 -3.359375 C 52.445312 -0.804688 47.1875 0.46875 41.5625 0.46875 Z M 48.59375 -16.25 C 50.882812 -16.25 53.070312 -16.613281 55.15625 -17.34375 C 57.238281 -18.070312 59.164062 -19.0625 60.9375 -20.3125 C 62.707031 -21.5625 64.269531 -23.019531 65.625 -24.6875 C 66.976562 -26.351562 68.019531 -28.125 68.75 -30 L 68.75 -49.53125 C 66.875 -54.320312 63.929688 -58.175781 59.921875 -61.09375 C 55.910156 -64.007812 51.71875 -65.46875 47.34375 -65.46875 C 44.113281 -65.46875 41.195312 -64.765625 38.59375 -63.359375 C 35.988281 -61.953125 33.75 -60.078125 31.875 -57.734375 C 30 -55.390625 28.566406 -52.707031 27.578125 -49.6875 C 26.585938 -46.664062 26.09375 -43.539062 26.09375 -40.3125 C 26.09375 -36.976562 26.664062 -33.851562 27.8125 -30.9375 C 28.957031 -28.019531 30.546875 -25.46875 32.578125 -23.28125 C 34.609375 -21.09375 36.976562 -19.375 39.6875 -18.125 C 42.394531 -16.875 45.363281 -16.25 48.59375 -16.25 Z M 48.59375 -16.25 "/></g></g></g><g fill="#404040" fill-opacity="1"><g transform="translate(474.84174, 145.459882)"><g><path d="M 9.53125 0 L 9.53125 -81.875 L 30.46875 -81.875 L 30.46875 0 Z M 9.53125 -93.28125 L 9.53125 -114.0625 L 30.46875 -114.0625 L 30.46875 -93.28125 Z M 9.53125 -93.28125 "/></g></g></g><g fill="#404040" fill-opacity="1"><g transform="translate(508.904804, 145.459882)"><g><path d="M 85.625 0 L 64.6875 0 L 64.6875 -45.9375 C 64.6875 -52.5 63.539062 -57.289062 61.25 -60.3125 C 58.957031 -63.332031 55.78125 -64.84375 51.71875 -64.84375 C 49.632812 -64.84375 47.5 -64.425781 45.3125 -63.59375 C 43.125 -62.757812 41.066406 -61.585938 39.140625 -60.078125 C 37.210938 -58.566406 35.46875 -56.769531 33.90625 -54.6875 C 32.34375 -52.601562 31.195312 -50.3125 30.46875 -47.8125 L 30.46875 0 L 9.53125 0 L 9.53125 -81.875 L 28.4375 -81.875 L 28.4375 -66.71875 C 31.457031 -71.925781 35.832031 -75.988281 41.5625 -78.90625 C 47.289062 -81.820312 53.75 -83.28125 60.9375 -83.28125 C 66.039062 -83.28125 70.207031 -82.34375 73.4375 -80.46875 C 76.664062 -78.59375 79.164062 -76.144531 80.9375 -73.125 C 82.707031 -70.101562 83.929688 -66.664062 84.609375 -62.8125 C 85.285156 -58.957031 85.625 -55.050781 85.625 -51.09375 Z M 85.625 0 "/></g></g></g><g fill="#404040" fill-opacity="1"><g transform="translate(597.500284, 145.459882)"><g><path d="M 41.5625 0.46875 C 36.039062 0.46875 31.039062 -0.625 26.5625 -2.8125 C 22.082031 -5 18.203125 -7.992188 14.921875 -11.796875 C 11.640625 -15.597656 9.113281 -20 7.34375 -25 C 5.570312 -30 4.6875 -35.3125 4.6875 -40.9375 C 4.6875 -46.875 5.625 -52.394531 7.5 -57.5 C 9.375 -62.601562 11.976562 -67.082031 15.3125 -70.9375 C 18.644531 -74.789062 22.65625 -77.8125 27.34375 -80 C 32.03125 -82.1875 37.1875 -83.28125 42.8125 -83.28125 C 49.164062 -83.28125 54.738281 -81.847656 59.53125 -78.984375 C 64.320312 -76.117188 68.28125 -72.289062 71.40625 -67.5 L 71.40625 -81.875 L 89.6875 -81.875 L 89.6875 -3.90625 C 89.6875 2.132812 88.539062 7.550781 86.25 12.34375 C 83.957031 17.132812 80.804688 21.195312 76.796875 24.53125 C 72.785156 27.863281 67.992188 30.414062 62.421875 32.1875 C 56.847656 33.957031 50.78125 34.84375 44.21875 34.84375 C 35.257812 34.84375 27.734375 33.359375 21.640625 30.390625 C 15.546875 27.421875 10.3125 23.226562 5.9375 17.8125 L 17.34375 6.71875 C 20.46875 10.570312 24.398438 13.59375 29.140625 15.78125 C 33.878906 17.96875 38.90625 19.0625 44.21875 19.0625 C 47.445312 19.0625 50.546875 18.617188 53.515625 17.734375 C 56.484375 16.847656 59.113281 15.46875 61.40625 13.59375 C 63.695312 11.71875 65.492188 9.320312 66.796875 6.40625 C 68.097656 3.488281 68.75 0.0507812 68.75 -3.90625 L 68.75 -14.21875 C 66.039062 -9.53125 62.238281 -5.910156 57.34375 -3.359375 C 52.445312 -0.804688 47.1875 0.46875 41.5625 0.46875 Z M 48.59375 -16.25 C 50.882812 -16.25 53.070312 -16.613281 55.15625 -17.34375 C 57.238281 -18.070312 59.164062 -19.0625 60.9375 -20.3125 C 62.707031 -21.5625 64.269531 -23.019531 65.625 -24.6875 C 66.976562 -26.351562 68.019531 -28.125 68.75 -30 L 68.75 -49.53125 C 66.875 -54.320312 63.929688 -58.175781 59.921875 -61.09375 C 55.910156 -64.007812 51.71875 -65.46875 47.34375 -65.46875 C 44.113281 -65.46875 41.195312 -64.765625 38.59375 -63.359375 C 35.988281 -61.953125 33.75 -60.078125 31.875 -57.734375 C 30 -55.390625 28.566406 -52.707031 27.578125 -49.6875 C 26.585938 -46.664062 26.09375 -43.539062 26.09375 -40.3125 C 26.09375 -36.976562 26.664062 -33.851562 27.8125 -30.9375 C 28.957031 -28.019531 30.546875 -25.46875 32.578125 -23.28125 C 34.609375 -21.09375 36.976562 -19.375 39.6875 -18.125 C 42.394531 -16.875 45.363281 -16.25 48.59375 -16.25 Z M 48.59375 -16.25 "/></g></g></g><g fill="#404040" fill-opacity="1"><g transform="translate(690.78335, 145.459882)"><g/></g></g><g fill="#404040" fill-opacity="1"><g transform="translate(722.502644, 145.459882)"><g><path d="M 58.59375 -4.21875 C 55.78125 -2.96875 52.34375 -1.71875 48.28125 -0.46875 C 44.21875 0.78125 39.945312 1.40625 35.46875 1.40625 C 32.550781 1.40625 29.816406 1.039062 27.265625 0.3125 C 24.710938 -0.414062 22.472656 -1.585938 20.546875 -3.203125 C 18.617188 -4.816406 17.082031 -6.898438 15.9375 -9.453125 C 14.789062 -12.003906 14.21875 -15.101562 14.21875 -18.75 L 14.21875 -65.78125 L 3.4375 -65.78125 L 3.4375 -81.875 L 14.21875 -81.875 L 14.21875 -108.4375 L 35.15625 -108.4375 L 35.15625 -81.875 L 52.34375 -81.875 L 52.34375 -65.78125 L 35.15625 -65.78125 L 35.15625 -25.78125 C 35.15625 -22.863281 35.910156 -20.804688 37.421875 -19.609375 C 38.929688 -18.410156 40.78125 -17.8125 42.96875 -17.8125 C 45.15625 -17.8125 47.289062 -18.175781 49.375 -18.90625 C 51.457031 -19.632812 53.125 -20.257812 54.375 -20.78125 Z M 58.59375 -4.21875 "/></g></g></g><g fill="#404040" fill-opacity="1"><g transform="translate(776.72241, 145.459882)"><g><path d="M 85.625 0 L 64.6875 0 L 64.6875 -45.9375 C 64.6875 -52.394531 63.488281 -57.160156 61.09375 -60.234375 C 58.695312 -63.304688 55.3125 -64.84375 50.9375 -64.84375 C 49.0625 -64.84375 47.082031 -64.425781 45 -63.59375 C 42.914062 -62.757812 40.9375 -61.585938 39.0625 -60.078125 C 37.1875 -58.566406 35.46875 -56.769531 33.90625 -54.6875 C 32.34375 -52.601562 31.195312 -50.3125 30.46875 -47.8125 L 30.46875 0 L 9.53125 0 L 9.53125 -114.0625 L 30.46875 -114.0625 L 30.46875 -66.71875 C 33.488281 -72.03125 37.578125 -76.117188 42.734375 -78.984375 C 47.890625 -81.847656 53.59375 -83.28125 59.84375 -83.28125 C 65.15625 -83.28125 69.476562 -82.367188 72.8125 -80.546875 C 76.144531 -78.722656 78.75 -76.300781 80.625 -73.28125 C 82.5 -70.257812 83.800781 -66.820312 84.53125 -62.96875 C 85.257812 -59.113281 85.625 -55.15625 85.625 -51.09375 Z M 85.625 0 "/></g></g></g><g fill="#404040" fill-opacity="1"><g transform="translate(865.31789, 145.459882)"><g><path d="M 47.5 1.5625 C 40.9375 1.5625 35 0.441406 29.6875 -1.796875 C 24.375 -4.035156 19.84375 -7.082031 16.09375 -10.9375 C 12.34375 -14.789062 9.453125 -19.269531 7.421875 -24.375 C 5.390625 -29.476562 4.375 -34.84375 4.375 -40.46875 C 4.375 -46.300781 5.363281 -51.796875 7.34375 -56.953125 C 9.320312 -62.109375 12.1875 -66.640625 15.9375 -70.546875 C 19.6875 -74.453125 24.242188 -77.550781 29.609375 -79.84375 C 34.972656 -82.132812 40.988281 -83.28125 47.65625 -83.28125 C 54.320312 -83.28125 60.285156 -82.132812 65.546875 -79.84375 C 70.804688 -77.550781 75.285156 -74.476562 78.984375 -70.625 C 82.679688 -66.769531 85.492188 -62.289062 87.421875 -57.1875 C 89.347656 -52.082031 90.3125 -46.769531 90.3125 -41.25 C 90.3125 -39.894531 90.285156 -38.59375 90.234375 -37.34375 C 90.179688 -36.09375 90.050781 -35.050781 89.84375 -34.21875 L 26.5625 -34.21875 C 26.875 -30.988281 27.65625 -28.125 28.90625 -25.625 C 30.15625 -23.125 31.769531 -20.988281 33.75 -19.21875 C 35.726562 -17.445312 37.96875 -16.09375 40.46875 -15.15625 C 42.96875 -14.21875 45.570312 -13.75 48.28125 -13.75 C 52.445312 -13.75 56.378906 -14.765625 60.078125 -16.796875 C 63.773438 -18.828125 66.300781 -21.507812 67.65625 -24.84375 L 85.625 -19.84375 C 82.601562 -13.59375 77.785156 -8.460938 71.171875 -4.453125 C 64.554688 -0.441406 56.664062 1.5625 47.5 1.5625 Z M 68.75 -47.8125 C 68.226562 -53.957031 65.960938 -58.878906 61.953125 -62.578125 C 57.941406 -66.273438 53.070312 -68.125 47.34375 -68.125 C 44.53125 -68.125 41.898438 -67.628906 39.453125 -66.640625 C 37.003906 -65.648438 34.84375 -64.269531 32.96875 -62.5 C 31.09375 -60.726562 29.554688 -58.59375 28.359375 -56.09375 C 27.160156 -53.59375 26.457031 -50.832031 26.25 -47.8125 Z M 68.75 -47.8125 "/></g></g></g><g fill="#404040" fill-opacity="1"><g transform="translate(953.132084, 145.459882)"><g/></g></g><g fill="#404040" fill-opacity="1"><g transform="translate(984.851378, 145.459882)"><g><path d="M 14.53125 0 L 14.53125 -61.5625 L 3.75 -61.5625 L 3.75 -77.5 L 14.53125 -77.5 L 14.53125 -82.5 C 14.53125 -92.707031 16.976562 -100.78125 21.875 -106.71875 C 26.769531 -112.65625 33.4375 -115.625 41.875 -115.625 C 48.539062 -115.625 55.257812 -114.007812 62.03125 -110.78125 L 57.8125 -95 C 56.25 -95.832031 54.398438 -96.535156 52.265625 -97.109375 C 50.128906 -97.679688 48.175781 -97.96875 46.40625 -97.96875 C 39.113281 -97.96875 35.46875 -93.070312 35.46875 -83.28125 L 35.46875 -77.5 L 55.46875 -77.5 L 55.46875 -61.5625 L 35.46875 -61.5625 L 35.46875 0 Z M 14.53125 0 "/></g></g></g><g fill="#404040" fill-opacity="1"><g transform="translate(1036.883586, 145.459882)"><g><path d="M 34.53125 1.5625 C 26.09375 1.5625 19.6875 -1.144531 15.3125 -6.5625 C 10.9375 -11.976562 8.75 -20 8.75 -30.625 L 8.75 -81.875 L 29.6875 -81.875 L 29.6875 -35.15625 C 29.6875 -22.550781 34.21875 -16.25 43.28125 -16.25 C 47.34375 -16.25 51.273438 -17.472656 55.078125 -19.921875 C 58.878906 -22.367188 61.976562 -26.09375 64.375 -31.09375 L 64.375 -81.875 L 85.3125 -81.875 L 85.3125 -24.0625 C 85.3125 -21.875 85.703125 -20.3125 86.484375 -19.375 C 87.265625 -18.4375 88.539062 -17.914062 90.3125 -17.8125 L 90.3125 0 C 88.226562 0.414062 86.484375 0.675781 85.078125 0.78125 C 83.671875 0.882812 82.394531 0.9375 81.25 0.9375 C 77.5 0.9375 74.453125 0.078125 72.109375 -1.640625 C 69.765625 -3.359375 68.382812 -5.726562 67.96875 -8.75 L 67.5 -15.3125 C 63.851562 -9.6875 59.164062 -5.46875 53.4375 -2.65625 C 47.707031 0.15625 41.40625 1.5625 34.53125 1.5625 Z M 34.53125 1.5625 "/></g></g></g><g fill="#404040" fill-opacity="1"><g transform="translate(1127.666625, 145.459882)"><g><path d="M 58.59375 -4.21875 C 55.78125 -2.96875 52.34375 -1.71875 48.28125 -0.46875 C 44.21875 0.78125 39.945312 1.40625 35.46875 1.40625 C 32.550781 1.40625 29.816406 1.039062 27.265625 0.3125 C 24.710938 -0.414062 22.472656 -1.585938 20.546875 -3.203125 C 18.617188 -4.816406 17.082031 -6.898438 15.9375 -9.453125 C 14.789062 -12.003906 14.21875 -15.101562 14.21875 -18.75 L 14.21875 -65.78125 L 3.4375 -65.78125 L 3.4375 -81.875 L 14.21875 -81.875 L 14.21875 -108.4375 L 35.15625 -108.4375 L 35.15625 -81.875 L 52.34375 -81.875 L 52.34375 -65.78125 L 35.15625 -65.78125 L 35.15625 -25.78125 C 35.15625 -22.863281 35.910156 -20.804688 37.421875 -19.609375 C 38.929688 -18.410156 40.78125 -17.8125 42.96875 -17.8125 C 45.15625 -17.8125 47.289062 -18.175781 49.375 -18.90625 C 51.457031 -19.632812 53.125 -20.257812 54.375 -20.78125 Z M 58.59375 -4.21875 "/></g></g></g><g fill="#404040" fill-opacity="1"><g transform="translate(1181.886345, 145.459882)"><g><path d="M 34.53125 1.5625 C 26.09375 1.5625 19.6875 -1.144531 15.3125 -6.5625 C 10.9375 -11.976562 8.75 -20 8.75 -30.625 L 8.75 -81.875 L 29.6875 -81.875 L 29.6875 -35.15625 C 29.6875 -22.550781 34.21875 -16.25 43.28125 -16.25 C 47.34375 -16.25 51.273438 -17.472656 55.078125 -19.921875 C 58.878906 -22.367188 61.976562 -26.09375 64.375 -31.09375 L 64.375 -81.875 L 85.3125 -81.875 L 85.3125 -24.0625 C 85.3125 -21.875 85.703125 -20.3125 86.484375 -19.375 C 87.265625 -18.4375 88.539062 -17.914062 90.3125 -17.8125 L 90.3125 0 C 88.226562 0.414062 86.484375 0.675781 85.078125 0.78125 C 83.671875 0.882812 82.394531 0.9375 81.25 0.9375 C 77.5 0.9375 74.453125 0.078125 72.109375 -1.640625 C 69.765625 -3.359375 68.382812 -5.726562 67.96875 -8.75 L 67.5 -15.3125 C 63.851562 -9.6875 59.164062 -5.46875 53.4375 -2.65625 C 47.707031 0.15625 41.40625 1.5625 34.53125 1.5625 Z M 34.53125 1.5625 "/></g></g></g><g fill="#404040" fill-opacity="1"><g transform="translate(1272.669384, 145.459882)"><g><path d="M 58.28125 -63.75 C 51.925781 -63.644531 46.25 -62.421875 41.25 -60.078125 C 36.25 -57.734375 32.65625 -54.21875 30.46875 -49.53125 L 30.46875 0 L 9.53125 0 L 9.53125 -81.875 L 28.75 -81.875 L 28.75 -64.375 C 30.207031 -67.1875 31.925781 -69.710938 33.90625 -71.953125 C 35.882812 -74.191406 38.019531 -76.144531 40.3125 -77.8125 C 42.601562 -79.476562 44.921875 -80.753906 47.265625 -81.640625 C 49.609375 -82.523438 51.875 -82.96875 54.0625 -82.96875 C 55.207031 -82.96875 56.066406 -82.96875 56.640625 -82.96875 C 57.210938 -82.96875 57.757812 -82.914062 58.28125 -82.8125 Z M 58.28125 -63.75 "/></g></g></g><g fill="#404040" fill-opacity="1"><g transform="translate(1327.357922, 145.459882)"><g><path d="M 47.5 1.5625 C 40.9375 1.5625 35 0.441406 29.6875 -1.796875 C 24.375 -4.035156 19.84375 -7.082031 16.09375 -10.9375 C 12.34375 -14.789062 9.453125 -19.269531 7.421875 -24.375 C 5.390625 -29.476562 4.375 -34.84375 4.375 -40.46875 C 4.375 -46.300781 5.363281 -51.796875 7.34375 -56.953125 C 9.320312 -62.109375 12.1875 -66.640625 15.9375 -70.546875 C 19.6875 -74.453125 24.242188 -77.550781 29.609375 -79.84375 C 34.972656 -82.132812 40.988281 -83.28125 47.65625 -83.28125 C 54.320312 -83.28125 60.285156 -82.132812 65.546875 -79.84375 C 70.804688 -77.550781 75.285156 -74.476562 78.984375 -70.625 C 82.679688 -66.769531 85.492188 -62.289062 87.421875 -57.1875 C 89.347656 -52.082031 90.3125 -46.769531 90.3125 -41.25 C 90.3125 -39.894531 90.285156 -38.59375 90.234375 -37.34375 C 90.179688 -36.09375 90.050781 -35.050781 89.84375 -34.21875 L 26.5625 -34.21875 C 26.875 -30.988281 27.65625 -28.125 28.90625 -25.625 C 30.15625 -23.125 31.769531 -20.988281 33.75 -19.21875 C 35.726562 -17.445312 37.96875 -16.09375 40.46875 -15.15625 C 42.96875 -14.21875 45.570312 -13.75 48.28125 -13.75 C 52.445312 -13.75 56.378906 -14.765625 60.078125 -16.796875 C 63.773438 -18.828125 66.300781 -21.507812 67.65625 -24.84375 L 85.625 -19.84375 C 82.601562 -13.59375 77.785156 -8.460938 71.171875 -4.453125 C 64.554688 -0.441406 56.664062 1.5625 47.5 1.5625 Z M 68.75 -47.8125 C 68.226562 -53.957031 65.960938 -58.878906 61.953125 -62.578125 C 57.941406 -66.273438 53.070312 -68.125 47.34375 -68.125 C 44.53125 -68.125 41.898438 -67.628906 39.453125 -66.640625 C 37.003906 -65.648438 34.84375 -64.269531 32.96875 -62.5 C 31.09375 -60.726562 29.554688 -58.59375 28.359375 -56.09375 C 27.160156 -53.59375 26.457031 -50.832031 26.25 -47.8125 Z M 68.75 -47.8125 "/></g></g></g></svg>