<svg xmlns="http://www.w3.org/2000/svg" xmlns:xlink="http://www.w3.org/1999/xlink" width="1920" zoomAndPan="magnify" viewBox="0 0 1440 449.999984" height="600" preserveAspectRatio="xMidYMid meet" version="1.0"><defs><g/></defs><rect x="-144" width="1728" fill="#ffffff" y="-44.999998" height="539.99998" fill-opacity="1"/><rect x="-144" width="1728" fill="#ffffff" y="-44.999998" height="539.99998" fill-opacity="1"/><rect x="-144" width="1728" fill="#ffc72c" y="-44.999998" height="539.99998" fill-opacity="1"/><g fill="#404040" fill-opacity="1"><g transform="translate(103.314855, 269.999979)"><g><path d="M 3.96875 -46.078125 C 3.96875 -51.617188 4.96875 -57.097656 6.96875 -62.515625 C 8.976562 -67.929688 11.898438 -72.773438 15.734375 -77.046875 C 19.578125 -81.316406 24.269531 -84.769531 29.8125 -87.40625 C 35.363281 -90.050781 41.679688 -91.375 48.765625 -91.375 C 57.117188 -91.375 64.347656 -89.539062 70.453125 -85.875 C 76.554688 -82.207031 81.097656 -77.429688 84.078125 -71.546875 L 70.515625 -62.203125 C 69.328125 -64.765625 67.878906 -66.914062 66.171875 -68.65625 C 64.460938 -70.40625 62.625 -71.789062 60.65625 -72.8125 C 58.695312 -73.84375 56.648438 -74.59375 54.515625 -75.0625 C 52.390625 -75.53125 50.300781 -75.765625 48.25 -75.765625 C 43.8125 -75.765625 39.945312 -74.867188 36.65625 -73.078125 C 33.375 -71.285156 30.644531 -68.957031 28.46875 -66.09375 C 26.300781 -63.238281 24.660156 -60 23.546875 -56.375 C 22.441406 -52.75 21.890625 -49.144531 21.890625 -45.5625 C 21.890625 -41.550781 22.523438 -37.6875 23.796875 -33.96875 C 25.078125 -30.257812 26.890625 -27 29.234375 -24.1875 C 31.585938 -21.375 34.40625 -19.113281 37.6875 -17.40625 C 40.976562 -15.695312 44.582031 -14.84375 48.5 -14.84375 C 50.550781 -14.84375 52.6875 -15.097656 54.90625 -15.609375 C 57.125 -16.117188 59.234375 -16.925781 61.234375 -18.03125 C 63.242188 -19.144531 65.101562 -20.578125 66.8125 -22.328125 C 68.519531 -24.078125 69.882812 -26.191406 70.90625 -28.671875 L 85.359375 -20.34375 C 83.910156 -16.9375 81.84375 -13.929688 79.15625 -11.328125 C 76.46875 -8.722656 73.4375 -6.523438 70.0625 -4.734375 C 66.695312 -2.941406 63.09375 -1.578125 59.25 -0.640625 C 55.414062 0.296875 51.664062 0.765625 48 0.765625 C 41.507812 0.765625 35.578125 -0.597656 30.203125 -3.328125 C 24.828125 -6.054688 20.195312 -9.617188 16.3125 -14.015625 C 12.4375 -18.410156 9.410156 -23.398438 7.234375 -28.984375 C 5.054688 -34.578125 3.96875 -40.273438 3.96875 -46.078125 Z M 3.96875 -46.078125 "/></g></g></g><g fill="#404040" fill-opacity="1"><g transform="translate(191.101401, 269.999979)"><g><path d="M 70.140625 0 L 52.984375 0 L 52.984375 -37.625 C 52.984375 -42.914062 52 -46.816406 50.03125 -49.328125 C 48.070312 -51.847656 45.300781 -53.109375 41.71875 -53.109375 C 40.1875 -53.109375 38.566406 -52.765625 36.859375 -52.078125 C 35.148438 -51.398438 33.523438 -50.441406 31.984375 -49.203125 C 30.453125 -47.972656 29.046875 -46.503906 27.765625 -44.796875 C 26.492188 -43.085938 25.554688 -41.207031 24.953125 -39.15625 L 24.953125 0 L 7.8125 0 L 7.8125 -93.421875 L 24.953125 -93.421875 L 24.953125 -54.65625 C 27.429688 -59 30.78125 -62.34375 35 -64.6875 C 39.226562 -67.039062 43.898438 -68.21875 49.015625 -68.21875 C 53.367188 -68.21875 56.910156 -67.46875 59.640625 -65.96875 C 62.367188 -64.476562 64.5 -62.492188 66.03125 -60.015625 C 67.570312 -57.546875 68.640625 -54.734375 69.234375 -51.578125 C 69.835938 -48.421875 70.140625 -45.175781 70.140625 -41.84375 Z M 70.140625 0 "/></g></g></g><g fill="#404040" fill-opacity="1"><g transform="translate(268.394505, 269.999979)"><g><path d="M 26.109375 1.28125 C 22.867188 1.28125 19.835938 0.75 17.015625 -0.3125 C 14.203125 -1.382812 11.769531 -2.878906 9.71875 -4.796875 C 7.675781 -6.710938 6.078125 -8.953125 4.921875 -11.515625 C 3.773438 -14.078125 3.203125 -16.894531 3.203125 -19.96875 C 3.203125 -23.125 3.90625 -26.046875 5.3125 -28.734375 C 6.71875 -31.421875 8.675781 -33.703125 11.1875 -35.578125 C 13.707031 -37.453125 16.71875 -38.921875 20.21875 -39.984375 C 23.71875 -41.054688 27.554688 -41.59375 31.734375 -41.59375 C 34.722656 -41.59375 37.644531 -41.335938 40.5 -40.828125 C 43.363281 -40.316406 45.90625 -39.59375 48.125 -38.65625 L 48.125 -42.484375 C 48.125 -46.921875 46.863281 -50.332031 44.34375 -52.71875 C 41.832031 -55.113281 38.097656 -56.3125 33.140625 -56.3125 C 29.554688 -56.3125 26.054688 -55.671875 22.640625 -54.390625 C 19.234375 -53.109375 15.738281 -51.234375 12.15625 -48.765625 L 6.90625 -59.640625 C 15.53125 -65.359375 24.832031 -68.21875 34.8125 -68.21875 C 44.457031 -68.21875 51.941406 -65.847656 57.265625 -61.109375 C 62.597656 -56.378906 65.265625 -49.535156 65.265625 -40.578125 L 65.265625 -19.703125 C 65.265625 -17.910156 65.582031 -16.628906 66.21875 -15.859375 C 66.863281 -15.097656 67.914062 -14.675781 69.375 -14.59375 L 69.375 0 C 66.46875 0.59375 63.945312 0.890625 61.8125 0.890625 C 58.570312 0.890625 56.078125 0.164062 54.328125 -1.28125 C 52.578125 -2.726562 51.488281 -4.648438 51.0625 -7.046875 L 50.6875 -10.75 C 47.695312 -6.820312 44.066406 -3.832031 39.796875 -1.78125 C 35.535156 0.257812 30.972656 1.28125 26.109375 1.28125 Z M 30.96875 -11.265625 C 33.875 -11.265625 36.625 -11.773438 39.21875 -12.796875 C 41.820312 -13.816406 43.851562 -15.179688 45.3125 -16.890625 C 47.1875 -18.335938 48.125 -19.957031 48.125 -21.75 L 48.125 -29.4375 C 46.070312 -30.207031 43.851562 -30.828125 41.46875 -31.296875 C 39.082031 -31.765625 36.78125 -32 34.5625 -32 C 30.125 -32 26.492188 -30.992188 23.671875 -28.984375 C 20.859375 -26.984375 19.453125 -24.445312 19.453125 -21.375 C 19.453125 -18.46875 20.5625 -16.054688 22.78125 -14.140625 C 25 -12.222656 27.726562 -11.265625 30.96875 -11.265625 Z M 30.96875 -11.265625 "/></g></g></g><g fill="#404040" fill-opacity="1"><g transform="translate(341.848551, 269.999979)"><g><path d="M 70.140625 0 L 52.984375 0 L 52.984375 -37.625 C 52.984375 -43 52.046875 -46.921875 50.171875 -49.390625 C 48.296875 -51.867188 45.691406 -53.109375 42.359375 -53.109375 C 40.648438 -53.109375 38.898438 -52.765625 37.109375 -52.078125 C 35.316406 -51.398438 33.628906 -50.441406 32.046875 -49.203125 C 30.472656 -47.972656 29.046875 -46.503906 27.765625 -44.796875 C 26.492188 -43.085938 25.554688 -41.207031 24.953125 -39.15625 L 24.953125 0 L 7.8125 0 L 7.8125 -67.0625 L 23.296875 -67.0625 L 23.296875 -54.65625 C 25.765625 -58.914062 29.34375 -62.238281 34.03125 -64.625 C 38.726562 -67.019531 44.019531 -68.21875 49.90625 -68.21875 C 54.09375 -68.21875 57.507812 -67.445312 60.15625 -65.90625 C 62.800781 -64.375 64.847656 -62.367188 66.296875 -59.890625 C 67.742188 -57.421875 68.742188 -54.609375 69.296875 -51.453125 C 69.859375 -48.296875 70.140625 -45.09375 70.140625 -41.84375 Z M 70.140625 0 "/></g></g></g><g fill="#404040" fill-opacity="1"><g transform="translate(419.141644, 269.999979)"><g><path d="M 34.046875 0.390625 C 29.523438 0.390625 25.425781 -0.503906 21.75 -2.296875 C 18.082031 -4.085938 14.90625 -6.539062 12.21875 -9.65625 C 9.53125 -12.769531 7.460938 -16.375 6.015625 -20.46875 C 4.566406 -24.570312 3.84375 -28.925781 3.84375 -33.53125 C 3.84375 -38.394531 4.609375 -42.914062 6.140625 -47.09375 C 7.679688 -51.28125 9.816406 -54.953125 12.546875 -58.109375 C 15.273438 -61.265625 18.554688 -63.738281 22.390625 -65.53125 C 26.234375 -67.320312 30.457031 -68.21875 35.0625 -68.21875 C 40.269531 -68.21875 44.835938 -67.039062 48.765625 -64.6875 C 52.691406 -62.34375 55.929688 -59.210938 58.484375 -55.296875 L 58.484375 -67.0625 L 73.46875 -67.0625 L 73.46875 -3.203125 C 73.46875 1.742188 72.523438 6.179688 70.640625 10.109375 C 68.765625 14.035156 66.1875 17.363281 62.90625 20.09375 C 59.625 22.820312 55.695312 24.910156 51.125 26.359375 C 46.5625 27.816406 41.59375 28.546875 36.21875 28.546875 C 28.882812 28.546875 22.71875 27.328125 17.71875 24.890625 C 12.726562 22.460938 8.441406 19.03125 4.859375 14.59375 L 14.203125 5.5 C 16.765625 8.65625 19.984375 11.128906 23.859375 12.921875 C 27.742188 14.710938 31.863281 15.609375 36.21875 15.609375 C 38.863281 15.609375 41.398438 15.242188 43.828125 14.515625 C 46.265625 13.796875 48.421875 12.664062 50.296875 11.125 C 52.171875 9.59375 53.640625 7.628906 54.703125 5.234375 C 55.773438 2.847656 56.3125 0.0351562 56.3125 -3.203125 L 56.3125 -11.640625 C 54.09375 -7.804688 50.976562 -4.84375 46.96875 -2.75 C 42.957031 -0.65625 38.648438 0.390625 34.046875 0.390625 Z M 39.796875 -13.3125 C 41.679688 -13.3125 43.472656 -13.609375 45.171875 -14.203125 C 46.878906 -14.804688 48.457031 -15.617188 49.90625 -16.640625 C 51.363281 -17.660156 52.644531 -18.851562 53.75 -20.21875 C 54.863281 -21.582031 55.71875 -23.035156 56.3125 -24.578125 L 56.3125 -40.578125 C 54.78125 -44.492188 52.367188 -47.644531 49.078125 -50.03125 C 45.796875 -52.425781 42.363281 -53.625 38.78125 -53.625 C 36.132812 -53.625 33.742188 -53.046875 31.609375 -51.890625 C 29.472656 -50.742188 27.640625 -49.207031 26.109375 -47.28125 C 24.578125 -45.363281 23.40625 -43.164062 22.59375 -40.6875 C 21.78125 -38.21875 21.375 -35.660156 21.375 -33.015625 C 21.375 -30.285156 21.84375 -27.722656 22.78125 -25.328125 C 23.71875 -22.941406 25.019531 -20.851562 26.6875 -19.0625 C 28.351562 -17.269531 30.289062 -15.863281 32.5 -14.84375 C 34.71875 -13.820312 37.148438 -13.3125 39.796875 -13.3125 Z M 39.796875 -13.3125 "/></g></g></g><g fill="#404040" fill-opacity="1"><g transform="translate(500.27384, 269.999979)"><g><path d="M 7.8125 0 L 7.8125 -67.0625 L 24.953125 -67.0625 L 24.953125 0 Z M 7.8125 -76.40625 L 7.8125 -93.421875 L 24.953125 -93.421875 L 24.953125 -76.40625 Z M 7.8125 -76.40625 "/></g></g></g><g fill="#404040" fill-opacity="1"><g transform="translate(532.905887, 269.999979)"><g><path d="M 70.140625 0 L 52.984375 0 L 52.984375 -37.625 C 52.984375 -43 52.046875 -46.921875 50.171875 -49.390625 C 48.296875 -51.867188 45.691406 -53.109375 42.359375 -53.109375 C 40.648438 -53.109375 38.898438 -52.765625 37.109375 -52.078125 C 35.316406 -51.398438 33.628906 -50.441406 32.046875 -49.203125 C 30.472656 -47.972656 29.046875 -46.503906 27.765625 -44.796875 C 26.492188 -43.085938 25.554688 -41.207031 24.953125 -39.15625 L 24.953125 0 L 7.8125 0 L 7.8125 -67.0625 L 23.296875 -67.0625 L 23.296875 -54.65625 C 25.765625 -58.914062 29.34375 -62.238281 34.03125 -64.625 C 38.726562 -67.019531 44.019531 -68.21875 49.90625 -68.21875 C 54.09375 -68.21875 57.507812 -67.445312 60.15625 -65.90625 C 62.800781 -64.375 64.847656 -62.367188 66.296875 -59.890625 C 67.742188 -57.421875 68.742188 -54.609375 69.296875 -51.453125 C 69.859375 -48.296875 70.140625 -45.09375 70.140625 -41.84375 Z M 70.140625 0 "/></g></g></g><g fill="#404040" fill-opacity="1"><g transform="translate(610.199002, 269.999979)"><g><path d="M 34.046875 0.390625 C 29.523438 0.390625 25.425781 -0.503906 21.75 -2.296875 C 18.082031 -4.085938 14.90625 -6.539062 12.21875 -9.65625 C 9.53125 -12.769531 7.460938 -16.375 6.015625 -20.46875 C 4.566406 -24.570312 3.84375 -28.925781 3.84375 -33.53125 C 3.84375 -38.394531 4.609375 -42.914062 6.140625 -47.09375 C 7.679688 -51.28125 9.816406 -54.953125 12.546875 -58.109375 C 15.273438 -61.265625 18.554688 -63.738281 22.390625 -65.53125 C 26.234375 -67.320312 30.457031 -68.21875 35.0625 -68.21875 C 40.269531 -68.21875 44.835938 -67.039062 48.765625 -64.6875 C 52.691406 -62.34375 55.929688 -59.210938 58.484375 -55.296875 L 58.484375 -67.0625 L 73.46875 -67.0625 L 73.46875 -3.203125 C 73.46875 1.742188 72.523438 6.179688 70.640625 10.109375 C 68.765625 14.035156 66.1875 17.363281 62.90625 20.09375 C 59.625 22.820312 55.695312 24.910156 51.125 26.359375 C 46.5625 27.816406 41.59375 28.546875 36.21875 28.546875 C 28.882812 28.546875 22.71875 27.328125 17.71875 24.890625 C 12.726562 22.460938 8.441406 19.03125 4.859375 14.59375 L 14.203125 5.5 C 16.765625 8.65625 19.984375 11.128906 23.859375 12.921875 C 27.742188 14.710938 31.863281 15.609375 36.21875 15.609375 C 38.863281 15.609375 41.398438 15.242188 43.828125 14.515625 C 46.265625 13.796875 48.421875 12.664062 50.296875 11.125 C 52.171875 9.59375 53.640625 7.628906 54.703125 5.234375 C 55.773438 2.847656 56.3125 0.0351562 56.3125 -3.203125 L 56.3125 -11.640625 C 54.09375 -7.804688 50.976562 -4.84375 46.96875 -2.75 C 42.957031 -0.65625 38.648438 0.390625 34.046875 0.390625 Z M 39.796875 -13.3125 C 41.679688 -13.3125 43.472656 -13.609375 45.171875 -14.203125 C 46.878906 -14.804688 48.457031 -15.617188 49.90625 -16.640625 C 51.363281 -17.660156 52.644531 -18.851562 53.75 -20.21875 C 54.863281 -21.582031 55.71875 -23.035156 56.3125 -24.578125 L 56.3125 -40.578125 C 54.78125 -44.492188 52.367188 -47.644531 49.078125 -50.03125 C 45.796875 -52.425781 42.363281 -53.625 38.78125 -53.625 C 36.132812 -53.625 33.742188 -53.046875 31.609375 -51.890625 C 29.472656 -50.742188 27.640625 -49.207031 26.109375 -47.28125 C 24.578125 -45.363281 23.40625 -43.164062 22.59375 -40.6875 C 21.78125 -38.21875 21.375 -35.660156 21.375 -33.015625 C 21.375 -30.285156 21.84375 -27.722656 22.78125 -25.328125 C 23.71875 -22.941406 25.019531 -20.851562 26.6875 -19.0625 C 28.351562 -17.269531 30.289062 -15.863281 32.5 -14.84375 C 34.71875 -13.820312 37.148438 -13.3125 39.796875 -13.3125 Z M 39.796875 -13.3125 "/></g></g></g><g fill="#404040" fill-opacity="1"><g transform="translate(722.043705, 269.999979)"><g><path d="M 48 -3.453125 C 45.6875 -2.429688 42.867188 -1.40625 39.546875 -0.375 C 36.222656 0.644531 32.722656 1.15625 29.046875 1.15625 C 26.660156 1.15625 24.421875 0.851562 22.328125 0.25 C 20.242188 -0.34375 18.410156 -1.300781 16.828125 -2.625 C 15.253906 -3.945312 13.992188 -5.648438 13.046875 -7.734375 C 12.109375 -9.828125 11.640625 -12.367188 11.640625 -15.359375 L 11.640625 -53.875 L 2.8125 -53.875 L 2.8125 -67.0625 L 11.640625 -67.0625 L 11.640625 -88.828125 L 28.796875 -88.828125 L 28.796875 -67.0625 L 42.875 -67.0625 L 42.875 -53.875 L 28.796875 -53.875 L 28.796875 -21.125 C 28.796875 -18.726562 29.414062 -17.039062 30.65625 -16.0625 C 31.894531 -15.082031 33.410156 -14.59375 35.203125 -14.59375 C 36.992188 -14.59375 38.738281 -14.890625 40.4375 -15.484375 C 42.144531 -16.078125 43.507812 -16.585938 44.53125 -17.015625 Z M 48 -3.453125 "/></g></g></g><g fill="#404040" fill-opacity="1"><g transform="translate(771.183669, 269.999979)"><g><path d="M 70.140625 0 L 52.984375 0 L 52.984375 -37.625 C 52.984375 -42.914062 52 -46.816406 50.03125 -49.328125 C 48.070312 -51.847656 45.300781 -53.109375 41.71875 -53.109375 C 40.1875 -53.109375 38.566406 -52.765625 36.859375 -52.078125 C 35.148438 -51.398438 33.523438 -50.441406 31.984375 -49.203125 C 30.453125 -47.972656 29.046875 -46.503906 27.765625 -44.796875 C 26.492188 -43.085938 25.554688 -41.207031 24.953125 -39.15625 L 24.953125 0 L 7.8125 0 L 7.8125 -93.421875 L 24.953125 -93.421875 L 24.953125 -54.65625 C 27.429688 -59 30.78125 -62.34375 35 -64.6875 C 39.226562 -67.039062 43.898438 -68.21875 49.015625 -68.21875 C 53.367188 -68.21875 56.910156 -67.46875 59.640625 -65.96875 C 62.367188 -64.476562 64.5 -62.492188 66.03125 -60.015625 C 67.570312 -57.546875 68.640625 -54.734375 69.234375 -51.578125 C 69.835938 -48.421875 70.140625 -45.175781 70.140625 -41.84375 Z M 70.140625 0 "/></g></g></g><g fill="#404040" fill-opacity="1"><g transform="translate(848.476785, 269.999979)"><g><path d="M 38.90625 1.28125 C 33.53125 1.28125 28.664062 0.363281 24.3125 -1.46875 C 19.96875 -3.300781 16.257812 -5.796875 13.1875 -8.953125 C 10.113281 -12.109375 7.742188 -15.773438 6.078125 -19.953125 C 4.410156 -24.140625 3.578125 -28.535156 3.578125 -33.140625 C 3.578125 -37.921875 4.390625 -42.421875 6.015625 -46.640625 C 7.640625 -50.867188 9.984375 -54.582031 13.046875 -57.78125 C 16.117188 -60.976562 19.851562 -63.515625 24.25 -65.390625 C 28.644531 -67.273438 33.570312 -68.21875 39.03125 -68.21875 C 44.488281 -68.21875 49.375 -67.273438 53.6875 -65.390625 C 58 -63.515625 61.664062 -61 64.6875 -57.84375 C 67.71875 -54.6875 70.019531 -51.019531 71.59375 -46.84375 C 73.175781 -42.664062 73.96875 -38.3125 73.96875 -33.78125 C 73.96875 -32.675781 73.945312 -31.609375 73.90625 -30.578125 C 73.863281 -29.554688 73.757812 -28.707031 73.59375 -28.03125 L 21.75 -28.03125 C 22.007812 -25.382812 22.648438 -23.035156 23.671875 -20.984375 C 24.703125 -18.941406 26.023438 -17.191406 27.640625 -15.734375 C 29.265625 -14.285156 31.097656 -13.175781 33.140625 -12.40625 C 35.191406 -11.644531 37.328125 -11.265625 39.546875 -11.265625 C 42.960938 -11.265625 46.179688 -12.09375 49.203125 -13.75 C 52.234375 -15.414062 54.304688 -17.613281 55.421875 -20.34375 L 70.140625 -16.25 C 67.660156 -11.132812 63.710938 -6.929688 58.296875 -3.640625 C 52.878906 -0.359375 46.414062 1.28125 38.90625 1.28125 Z M 56.3125 -39.15625 C 55.882812 -44.195312 54.023438 -48.226562 50.734375 -51.25 C 47.453125 -54.28125 43.46875 -55.796875 38.78125 -55.796875 C 36.476562 -55.796875 34.320312 -55.390625 32.3125 -54.578125 C 30.3125 -53.773438 28.539062 -52.644531 27 -51.1875 C 25.46875 -49.738281 24.207031 -47.988281 23.21875 -45.9375 C 22.238281 -43.894531 21.664062 -41.632812 21.5 -39.15625 Z M 56.3125 -39.15625 "/></g></g></g><g fill="#404040" fill-opacity="1"><g transform="translate(955.842499, 269.999979)"><g><path d="M 11.90625 0 L 11.90625 -50.421875 L 3.078125 -50.421875 L 3.078125 -63.484375 L 11.90625 -63.484375 L 11.90625 -67.578125 C 11.90625 -75.941406 13.910156 -82.550781 17.921875 -87.40625 C 21.929688 -92.269531 27.390625 -94.703125 34.296875 -94.703125 C 39.753906 -94.703125 45.257812 -93.378906 50.8125 -90.734375 L 47.359375 -77.8125 C 46.078125 -78.5 44.5625 -79.078125 42.8125 -79.546875 C 41.0625 -80.015625 39.460938 -80.25 38.015625 -80.25 C 32.035156 -80.25 29.046875 -76.238281 29.046875 -68.21875 L 29.046875 -63.484375 L 45.4375 -63.484375 L 45.4375 -50.421875 L 29.046875 -50.421875 L 29.046875 0 Z M 11.90625 0 "/></g></g></g><g fill="#404040" fill-opacity="1"><g transform="translate(1003.190915, 269.999979)"><g><path d="M 28.28125 1.28125 C 21.375 1.28125 16.128906 -0.9375 12.546875 -5.375 C 8.960938 -9.8125 7.171875 -16.378906 7.171875 -25.078125 L 7.171875 -67.0625 L 24.3125 -67.0625 L 24.3125 -28.796875 C 24.3125 -18.472656 28.023438 -13.3125 35.453125 -13.3125 C 38.773438 -13.3125 41.992188 -14.3125 45.109375 -16.3125 C 48.222656 -18.320312 50.765625 -21.375 52.734375 -25.46875 L 52.734375 -67.0625 L 69.875 -67.0625 L 69.875 -19.703125 C 69.875 -17.910156 70.191406 -16.628906 70.828125 -15.859375 C 71.472656 -15.097656 72.519531 -14.675781 73.96875 -14.59375 L 73.96875 0 C 72.269531 0.34375 70.84375 0.554688 69.6875 0.640625 C 68.53125 0.722656 67.484375 0.765625 66.546875 0.765625 C 63.472656 0.765625 60.976562 0.0625 59.0625 -1.34375 C 57.144531 -2.75 56.015625 -4.691406 55.671875 -7.171875 L 55.296875 -12.546875 C 52.304688 -7.929688 48.460938 -4.472656 43.765625 -2.171875 C 39.078125 0.128906 33.914062 1.28125 28.28125 1.28125 Z M 28.28125 1.28125 "/></g></g></g><g fill="#404040" fill-opacity="1"><g transform="translate(1082.275534, 269.999979)"><g><path d="M 48 -3.453125 C 45.6875 -2.429688 42.867188 -1.40625 39.546875 -0.375 C 36.222656 0.644531 32.722656 1.15625 29.046875 1.15625 C 26.660156 1.15625 24.421875 0.851562 22.328125 0.25 C 20.242188 -0.34375 18.410156 -1.300781 16.828125 -2.625 C 15.253906 -3.945312 13.992188 -5.648438 13.046875 -7.734375 C 12.109375 -9.828125 11.640625 -12.367188 11.640625 -15.359375 L 11.640625 -53.875 L 2.8125 -53.875 L 2.8125 -67.0625 L 11.640625 -67.0625 L 11.640625 -88.828125 L 28.796875 -88.828125 L 28.796875 -67.0625 L 42.875 -67.0625 L 42.875 -53.875 L 28.796875 -53.875 L 28.796875 -21.125 C 28.796875 -18.726562 29.414062 -17.039062 30.65625 -16.0625 C 31.894531 -15.082031 33.410156 -14.59375 35.203125 -14.59375 C 36.992188 -14.59375 38.738281 -14.890625 40.4375 -15.484375 C 42.144531 -16.078125 43.507812 -16.585938 44.53125 -17.015625 Z M 48 -3.453125 "/></g></g></g><g fill="#404040" fill-opacity="1"><g transform="translate(1131.415545, 269.999979)"><g><path d="M 28.28125 1.28125 C 21.375 1.28125 16.128906 -0.9375 12.546875 -5.375 C 8.960938 -9.8125 7.171875 -16.378906 7.171875 -25.078125 L 7.171875 -67.0625 L 24.3125 -67.0625 L 24.3125 -28.796875 C 24.3125 -18.472656 28.023438 -13.3125 35.453125 -13.3125 C 38.773438 -13.3125 41.992188 -14.3125 45.109375 -16.3125 C 48.222656 -18.320312 50.765625 -21.375 52.734375 -25.46875 L 52.734375 -67.0625 L 69.875 -67.0625 L 69.875 -19.703125 C 69.875 -17.910156 70.191406 -16.628906 70.828125 -15.859375 C 71.472656 -15.097656 72.519531 -14.675781 73.96875 -14.59375 L 73.96875 0 C 72.269531 0.34375 70.84375 0.554688 69.6875 0.640625 C 68.53125 0.722656 67.484375 0.765625 66.546875 0.765625 C 63.472656 0.765625 60.976562 0.0625 59.0625 -1.34375 C 57.144531 -2.75 56.015625 -4.691406 55.671875 -7.171875 L 55.296875 -12.546875 C 52.304688 -7.929688 48.460938 -4.472656 43.765625 -2.171875 C 39.078125 0.128906 33.914062 1.28125 28.28125 1.28125 Z M 28.28125 1.28125 "/></g></g></g><g fill="#404040" fill-opacity="1"><g transform="translate(1210.500256, 269.999979)"><g><path d="M 47.734375 -52.21875 C 42.535156 -52.132812 37.882812 -51.128906 33.78125 -49.203125 C 29.6875 -47.285156 26.742188 -44.410156 24.953125 -40.578125 L 24.953125 0 L 7.8125 0 L 7.8125 -67.0625 L 23.546875 -67.0625 L 23.546875 -52.734375 C 24.742188 -55.035156 26.148438 -57.101562 27.765625 -58.9375 C 29.390625 -60.769531 31.140625 -62.367188 33.015625 -63.734375 C 34.890625 -65.097656 36.785156 -66.140625 38.703125 -66.859375 C 40.628906 -67.585938 42.488281 -67.953125 44.28125 -67.953125 C 45.21875 -67.953125 45.921875 -67.953125 46.390625 -67.953125 C 46.859375 -67.953125 47.304688 -67.910156 47.734375 -67.828125 Z M 47.734375 -52.21875 "/></g></g></g><g fill="#404040" fill-opacity="1"><g transform="translate(1260.024147, 269.999979)"><g><path d="M 38.90625 1.28125 C 33.53125 1.28125 28.664062 0.363281 24.3125 -1.46875 C 19.96875 -3.300781 16.257812 -5.796875 13.1875 -8.953125 C 10.113281 -12.109375 7.742188 -15.773438 6.078125 -19.953125 C 4.410156 -24.140625 3.578125 -28.535156 3.578125 -33.140625 C 3.578125 -37.921875 4.390625 -42.421875 6.015625 -46.640625 C 7.640625 -50.867188 9.984375 -54.582031 13.046875 -57.78125 C 16.117188 -60.976562 19.851562 -63.515625 24.25 -65.390625 C 28.644531 -67.273438 33.570312 -68.21875 39.03125 -68.21875 C 44.488281 -68.21875 49.375 -67.273438 53.6875 -65.390625 C 58 -63.515625 61.664062 -61 64.6875 -57.84375 C 67.71875 -54.6875 70.019531 -51.019531 71.59375 -46.84375 C 73.175781 -42.664062 73.96875 -38.3125 73.96875 -33.78125 C 73.96875 -32.675781 73.945312 -31.609375 73.90625 -30.578125 C 73.863281 -29.554688 73.757812 -28.707031 73.59375 -28.03125 L 21.75 -28.03125 C 22.007812 -25.382812 22.648438 -23.035156 23.671875 -20.984375 C 24.703125 -18.941406 26.023438 -17.191406 27.640625 -15.734375 C 29.265625 -14.285156 31.097656 -13.175781 33.140625 -12.40625 C 35.191406 -11.644531 37.328125 -11.265625 39.546875 -11.265625 C 42.960938 -11.265625 46.179688 -12.09375 49.203125 -13.75 C 52.234375 -15.414062 54.304688 -17.613281 55.421875 -20.34375 L 70.140625 -16.25 C 67.660156 -11.132812 63.710938 -6.929688 58.296875 -3.640625 C 52.878906 -0.359375 46.414062 1.28125 38.90625 1.28125 Z M 56.3125 -39.15625 C 55.882812 -44.195312 54.023438 -48.226562 50.734375 -51.25 C 47.453125 -54.28125 43.46875 -55.796875 38.78125 -55.796875 C 36.476562 -55.796875 34.320312 -55.390625 32.3125 -54.578125 C 30.3125 -53.773438 28.539062 -52.644531 27 -51.1875 C 25.46875 -49.738281 24.207031 -47.988281 23.21875 -45.9375 C 22.238281 -43.894531 21.664062 -41.632812 21.5 -39.15625 Z M 56.3125 -39.15625 "/></g></g></g></svg>